<?xml version="1.0" encoding="UTF-8"?>
<svg width="239px" height="58px" viewBox="0 0 239 58" version="1.1" xmlns="http://www.w3.org/2000/svg" xmlns:xlink="http://www.w3.org/1999/xlink">
    <!-- Generator: Sketch 52.4 (67378) - http://www.bohemiancoding.com/sketch -->
    <title>Unknown-5</title>
    <desc>Created with Sketch.</desc>
    <g id="Page-1" stroke="none" stroke-width="1" fill="none" fill-rule="evenodd">
        <g id="Unknown-5" fill="#FFFFFF">
            <g id="Group">
                <path d="M0.7,45.4 C0.8,43.3 1,40.2 1,37.4 L1,0 L6.6,0 L6.6,19.5 L6.7,19.5 C8.7,16 12.3,13.8 17.3,13.8 C25,13.8 30.4,20.2 30.4,29.6 C30.4,40.7 23.4,46.2 16.5,46.2 C12,46.2 8.4,44.5 6.1,40.4 L5.9,40.4 L5.6,45.5 C5.6,45.4 0.7,45.4 0.7,45.4 Z M6.6,33 C6.6,33.7 6.7,34.4 6.9,35 C8,38.9 11.3,41.6 15.3,41.6 C21.2,41.6 24.7,36.8 24.7,29.7 C24.7,23.5 21.5,18.2 15.5,18.2 C11.7,18.2 8.1,20.8 6.9,25.1 C6.8,25.7 6.6,26.5 6.6,27.4 C6.6,27.5 6.6,33 6.6,33 Z" id="Shape" fill-rule="nonzero"></path>
                <path d="M53.5,45.4 L53,41.5 L52.8,41.5 C51.1,43.9 47.7,46.1 43.3,46.1 C37,46.1 33.8,41.7 33.8,37.2 C33.8,29.7 40.5,25.6 52.4,25.7 L52.4,25.1 C52.4,22.5 51.7,17.9 45.4,17.9 C42.5,17.9 39.5,18.8 37.3,20.2 L36,16.5 C38.6,14.8 42.3,13.7 46.2,13.7 C55.7,13.7 58,20.2 58,26.4 L58,38 C58,40.7 58.1,43.3 58.5,45.4 C58.6,45.4 53.5,45.4 53.5,45.4 Z M52.6,29.6 C46.5,29.5 39.5,30.6 39.5,36.6 C39.5,40.2 41.9,42 44.8,42 C48.8,42 51.4,39.4 52.3,36.8 C52.5,36.2 52.6,35.6 52.6,35 L52.6,29.6 Z" id="Shape" fill-rule="nonzero"></path>
                <polygon id="Path" points="65.5 0 71.1 0 71.1 45.4 65.5 45.4"></polygon>
                <path d="M77.9,39.7 C79.6,40.8 82.5,41.9 85.3,41.9 C89.4,41.9 91.3,39.9 91.3,37.3 C91.3,34.6 89.7,33.1 85.5,31.6 C79.9,29.6 77.3,26.5 77.3,22.8 C77.3,17.8 81.3,13.7 88,13.7 C91.1,13.7 93.9,14.6 95.6,15.6 L94.2,19.7 C93.1,19 90.8,18 88,18 C84.7,18 82.8,19.9 82.8,22.2 C82.8,24.8 84.7,25.9 88.7,27.4 C94.1,29.4 96.8,32.1 96.8,36.7 C96.8,42.1 92.6,46 85.2,46 C81.8,46 78.7,45.2 76.5,43.9 L77.9,39.7 Z" id="Path"></path>
                <path d="M120.2,45.4 L119.8,41.5 L119.6,41.5 C117.9,43.9 114.5,46.1 110.1,46.1 C103.8,46.1 100.6,41.7 100.6,37.2 C100.6,29.7 107.3,25.6 119.2,25.7 L119.2,25.1 C119.2,22.5 118.5,17.9 112.2,17.9 C109.3,17.9 106.3,18.8 104.1,20.2 L102.8,16.5 C105.4,14.8 109.1,13.7 113,13.7 C122.5,13.7 124.8,20.2 124.8,26.4 L124.8,38 C124.8,40.7 124.9,43.3 125.3,45.4 C125.4,45.4 120.2,45.4 120.2,45.4 Z M119.4,29.6 C113.3,29.5 106.3,30.6 106.3,36.6 C106.3,40.2 108.7,42 111.6,42 C115.6,42 118.2,39.4 119.1,36.8 C119.3,36.2 119.4,35.6 119.4,35 C119.4,35 119.4,29.6 119.4,29.6 Z" id="Shape" fill-rule="nonzero"></path>
                <path d="M132.3,22.8 C132.3,19.6 132.2,17 132,14.4 L136.9,14.4 L137.2,19.4 L137.4,19.4 C139.1,16.5 142,13.7 147.1,13.7 C151.3,13.7 154.5,16.3 155.9,19.9 L156,19.9 C157,18.2 158.2,16.8 159.5,15.9 C161.4,14.5 163.4,13.7 166.3,13.7 C170.4,13.7 176.5,16.4 176.5,27.1 L176.5,45.3 L171,45.3 L171,27.9 C171,21.9 168.8,18.4 164.3,18.4 C161.1,18.4 158.6,20.8 157.6,23.5 C157.3,24.3 157.2,25.3 157.2,26.3 L157.2,45.4 L151.7,45.4 L151.7,26.9 C151.7,22 149.5,18.4 145.2,18.4 C141.7,18.4 139.1,21.2 138.2,24 C137.9,24.8 137.8,25.8 137.8,26.8 L137.8,45.5 L132.3,45.5 L132.3,22.8 Z" id="Path"></path>
                <path d="M190.3,5.8 C190.4,7.7 189,9.3 186.7,9.3 C184.7,9.3 183.3,7.8 183.3,5.8 C183.3,3.8 184.8,2.3 186.8,2.3 C188.9,2.2 190.3,3.8 190.3,5.8 Z M184,45.4 L184,14.4 L189.6,14.4 L189.6,45.4 L184,45.4 Z" id="Shape" fill-rule="nonzero"></path>
                <path d="M218.7,40.6 L218.6,40.6 C216.9,43.7 213.5,46.1 208.5,46.1 C201.3,46.1 195.4,39.8 195.4,30.4 C195.4,18.8 202.9,13.7 209.4,13.7 C214.2,13.7 217.4,16.1 218.9,19.1 L219,19.1 L219.2,14.4 L224.5,14.4 C224.4,17 224.3,19.7 224.3,22.9 L224.3,58 L218.7,58 L218.7,40.6 Z M218.7,27 C218.7,26.2 218.6,25.3 218.4,24.6 C217.6,21.1 214.6,18.2 210.3,18.2 C204.5,18.2 201,23.1 201,30.1 C201,36.2 203.9,41.6 210.2,41.6 C213.8,41.6 217,39.4 218.3,35.5 C218.6,34.7 218.7,33.6 218.7,32.8 L218.7,27 Z" id="Shape" fill-rule="nonzero"></path>
            </g>
            <path d="M238.9,18.1 C238.9,20.7 236.9,22.7 234.2,22.7 C231.6,22.7 229.5,20.7 229.5,18.1 C229.5,15.6 231.6,13.5 234.2,13.5 C236.9,13.5 238.9,15.6 238.9,18.1 Z M230.7,18.1 C230.7,20.1 232.2,21.8 234.3,21.8 C236.3,21.8 237.8,20.2 237.8,18.2 C237.8,16.2 236.3,14.5 234.3,14.5 C232.3,14.5 230.7,16.1 230.7,18.1 Z M233.5,20.5 L232.4,20.5 L232.4,15.9 C232.8,15.8 233.4,15.8 234.2,15.8 C235.1,15.8 235.5,15.9 235.8,16.1 C236.1,16.3 236.2,16.7 236.2,17.1 C236.2,17.6 235.8,18 235.2,18.2 L235.2,18.3 C235.6,18.5 235.9,18.8 236,19.4 C236.1,20.1 236.2,20.4 236.3,20.5 L235.2,20.5 C235.1,20.3 235,19.9 234.8,19.4 C234.7,18.9 234.4,18.7 233.8,18.7 L233.3,18.7 L233.5,20.5 Z M233.5,17.9 L234,17.9 C234.6,17.9 235.1,17.7 235.1,17.2 C235.1,16.8 234.8,16.5 234.1,16.5 C233.8,16.5 233.6,16.5 233.5,16.6 L233.5,17.9 Z" id="Shape" fill-rule="nonzero"></path>
        </g>
    </g>
</svg>