<?xml version="1.0" encoding="UTF-8"?>
<svg width="72px" height="72px" viewBox="0 0 72 72" version="1.1" xmlns="http://www.w3.org/2000/svg" xmlns:xlink="http://www.w3.org/1999/xlink">
    <!-- Generator: Sketch 52.4 (67378) - http://www.bohemiancoding.com/sketch -->
    <title>f5</title>
    <desc>Created with Sketch.</desc>
    <defs>
        <polygon id="path-1" points="0 0 71.9999 0 71.9999 71.9998 0 71.9998"></polygon>
    </defs>
    <g id="Live-Site" stroke="none" stroke-width="1" fill="none" fill-rule="evenodd">
        <g id="sponsors-live" transform="translate(-90.000000, -307.000000)">
            <g id="f5" transform="translate(90.000000, 307.000000)">
                <path d="M64.9619,67.5312 L65.4859,67.5312 L65.4859,66.3602 L65.9009,66.3602 C66.1769,66.3602 66.3739,66.3882 66.4849,66.4572 C66.6699,66.5682 66.7649,66.7972 66.7649,67.1402 L66.7649,67.3802 L66.7739,67.4692 C66.7809,67.4872 66.7809,67.4952 66.7819,67.5062 C66.7859,67.5202 66.7869,67.5252 66.7969,67.5312 L67.2829,67.5312 L67.2659,67.4972 C67.2499,67.4742 67.2419,67.4242 67.2399,67.3452 C67.2339,67.2632 67.2339,67.1902 67.2339,67.1242 L67.2339,66.9032 C67.2339,66.7512 67.1789,66.5992 67.0709,66.4402 C66.9609,66.2812 66.7869,66.1872 66.5539,66.1462 C66.7399,66.1162 66.8859,66.0662 66.9839,66.0062 C67.1839,65.8802 67.2759,65.6772 67.2759,65.4152 C67.2759,65.0432 67.1279,64.7872 66.8159,64.6602 C66.6439,64.5912 66.3739,64.5532 66.0029,64.5532 L64.9619,64.5532 L64.9619,67.5312 Z M66.4559,65.9272 C66.3499,65.9722 66.1809,65.9932 65.9569,65.9932 L65.4859,65.9932 L65.4859,64.9102 L65.9349,64.9102 C66.2249,64.9102 66.4369,64.9512 66.5659,65.0242 C66.6999,65.0992 66.7649,65.2452 66.7649,65.4592 C66.7649,65.6902 66.6639,65.8422 66.4559,65.9272 Z M67.9819,64.1362 C67.4469,63.6092 66.8079,63.3462 66.0519,63.3462 C65.3109,63.3462 64.6679,63.6092 64.1439,64.1362 C63.6099,64.6652 63.3509,65.3062 63.3509,66.0582 C63.3509,66.8082 63.6069,67.4522 64.1349,67.9782 C64.6579,68.5132 65.3049,68.7792 66.0519,68.7792 C66.8079,68.7792 67.4469,68.5132 67.9819,67.9782 C68.5069,67.4492 68.7769,66.8032 68.7769,66.0582 C68.7769,65.3022 68.5069,64.6652 67.9819,64.1362 Z M67.7059,64.4062 C68.1639,64.8532 68.3889,65.4092 68.3889,66.0582 C68.3889,66.7002 68.1639,67.2612 67.7059,67.7192 C67.2549,68.1742 66.7019,68.4062 66.0519,68.4062 C65.4069,68.4062 64.8549,68.1742 64.3999,67.7192 C63.9509,67.2612 63.7209,66.7002 63.7209,66.0582 C63.7209,65.4092 63.9509,64.8532 64.3999,64.4062 C64.8619,63.9402 65.4119,63.7132 66.0519,63.7132 C66.6999,63.7132 67.2499,63.9402 67.7059,64.4062 Z" id="Fill-1" fill="#FEFEFE"></path>
                <g id="Group-5">
                    <mask id="mask-2" fill="white">
                        <use xlink:href="#path-1"></use>
                    </mask>
                    <g id="Clip-4"></g>
                    <path d="M65.7119,15.6738 C65.2709,17.4978 65.0389,19.3868 64.6129,21.3208 C59.2129,20.6198 52.8709,20.1068 45.7449,19.8558 C45.1739,21.6648 44.6319,23.4338 44.0129,25.3658 C55.9329,26.0978 61.7269,29.2398 65.1609,32.9418 C68.5019,36.6848 69.2119,40.8218 69.0189,44.6618 C68.5929,50.9028 65.8409,54.8488 62.0639,57.7738 C58.2419,60.6528 53.6189,62.0828 49.9209,62.3928 C44.4639,62.8008 37.1679,61.5028 35.6149,60.5508 C34.6829,58.4248 33.7599,56.2818 32.7689,53.9448 C32.5269,53.4468 32.3759,52.9378 33.0589,52.3438 C34.1189,51.3268 35.1409,50.3418 36.2139,49.2998 C36.6899,48.8358 37.2149,48.4038 37.6139,49.0688 C39.0819,51.3318 40.4559,53.4078 41.8339,55.4808 C43.3989,57.7878 45.7819,59.8908 50.9879,59.5408 C55.3649,59.1498 58.6939,55.8388 59.0469,52.1978 C59.4309,45.4588 52.6109,40.6808 34.8809,39.1468 C38.2819,28.8728 41.5979,18.9308 44.2509,11.0298 C48.4629,11.2248 52.3609,11.5688 56.0859,12.0488 C58.8409,12.3998 61.3999,13.0408 63.9669,13.3378 C57.3669,5.2028 47.2959,-0.0002 36.0029,-0.0002 C16.1189,-0.0002 -0.0001,16.1178 -0.0001,35.9998 C-0.0001,43.9868 2.6059,51.3628 7.0069,57.3338 C8.5309,57.3448 9.5879,57.0048 9.7029,56.3468 C9.8419,55.6598 9.7249,54.5958 9.6049,53.5218 C8.8869,46.4578 8.6309,38.8298 8.9009,31.1858 C7.0749,31.2658 5.4369,31.3478 3.8659,31.4398 C3.9289,30.0268 4.0049,28.6878 4.1189,27.2928 C5.6709,27.1448 7.3149,27.0138 9.1199,26.8618 C9.1969,25.6448 9.2839,24.4658 9.3889,23.2758 C10.1999,15.9868 17.8769,11.5258 24.2719,9.8048 C27.1079,9.1138 28.8439,8.8958 30.2059,8.8238 C30.6979,8.8088 31.2299,8.7898 31.7579,8.7898 C33.0839,8.7898 34.4279,8.9128 35.2799,9.4918 C36.6589,10.5258 38.0229,11.5538 39.4719,12.6988 C39.6189,12.8948 39.7739,13.1998 39.4139,13.7318 C38.7489,14.5098 38.1069,15.2548 37.4309,16.0548 C37.0409,16.5278 36.3949,16.4028 35.8499,16.2558 C34.7099,15.6718 33.6119,15.1348 32.4989,14.5958 C30.4809,13.6988 28.3949,12.7758 26.0709,12.8658 C24.6229,12.9828 23.2199,14.4658 23.0739,16.4938 C22.8729,19.5818 22.7379,22.7468 22.6239,26.1758 C26.6519,26.0608 30.6699,25.9938 34.9089,25.9728 C34.9089,26.9378 34.9029,27.8218 34.9029,28.8088 C33.5209,29.4268 32.2169,30.0518 30.8319,30.6828 C27.9739,30.7158 25.2529,30.7378 22.5139,30.7858 C22.3869,38.9428 22.5069,47.0698 22.8739,54.5828 C22.9439,55.7168 23.0009,56.8648 23.3269,57.6338 C23.7189,58.6018 25.9669,59.3478 30.8579,59.6238 C30.8779,60.4748 30.9009,61.2778 30.9279,62.1048 C22.9629,61.8718 15.3149,61.1098 9.1809,60.0068 C15.7739,67.3658 25.3459,71.9998 36.0029,71.9998 C55.8859,71.9998 71.9999,55.8818 71.9999,35.9998 C71.9999,28.4568 69.6769,21.4588 65.7119,15.6738" id="Fill-3" fill="#FEFEFE" mask="url(#mask-2)"></path>
                </g>
                <polygon id="Fill-6" fill="#E2173D" points="9.1807 60.0068 9.1807 60.0068 9.1807 60.0058"></polygon>
            </g>
        </g>
    </g>
</svg>