<?xml version="1.0" encoding="UTF-8"?>
<svg width="216px" height="34px" viewBox="0 0 216 34" version="1.1" xmlns="http://www.w3.org/2000/svg" xmlns:xlink="http://www.w3.org/1999/xlink">
    <!-- Generator: Sketch 52.4 (67378) - http://www.bohemiancoding.com/sketch -->
    <title>Google Cloud</title>
    <desc>Created with Sketch.</desc>
    <defs>
        <polygon id="path-1" points="0.8295 0.161 26.2795 0.161 26.2795 11.709 0.8295 11.709"></polygon>
        <polygon id="path-3" points="0.747742861 0.869164474 89.9446 0.869164474 89.9446 30 0.747742861 30"></polygon>
        <polygon id="path-5" points="0 34.8391 216 34.8391 216 1.0001 0 1.0001"></polygon>
    </defs>
    <g id="Live-Site" stroke="none" stroke-width="1" fill="none" fill-rule="evenodd">
        <g id="sponsors-live" transform="translate(-90.000000, -763.000000)">
            <g id="Google-Cloud" transform="translate(90.000000, 762.000000)">
                <g id="Group-3" transform="translate(4.000000, 0.839100)">
                    <mask id="mask-2" fill="white">
                        <use xlink:href="#path-1"></use>
                    </mask>
                    <g id="Clip-2"></g>
                    <path d="M21.4065,9.034 L22.6285,9.034 L26.1085,5.554 L26.2795,4.076 C19.8025,-1.641 9.9165,-1.025 4.1985,5.453 C2.6105,7.252 1.4585,9.392 0.8295,11.709 C1.2175,11.55 1.6465,11.524 2.0515,11.636 L9.0115,10.487 C9.0115,10.487 9.3655,9.901 9.5495,9.938 C12.6445,6.537 17.8555,6.141 21.4305,9.034 L21.4065,9.034 Z" id="Fill-1" fill="#FEFEFE" mask="url(#mask-2)"></path>
                </g>
                <path d="M35.0667,12.5479 C34.2667,9.6019 32.6247,6.9529 30.3397,4.9279 L25.4557,9.8129 C27.5177,11.4979 28.6937,14.0369 28.6427,16.6999 L28.6427,17.5679 C31.0447,17.5679 32.9907,19.5139 32.9907,21.9139 C32.9907,24.3159 31.0447,26.2619 28.6427,26.2619 L19.9477,26.2619 L19.0817,27.1419 L19.0817,32.3559 L19.9477,33.2229 L28.6427,33.2229 C34.8877,33.2719 39.9907,28.2479 40.0397,22.0029 C40.0687,18.2179 38.2027,14.6689 35.0667,12.5479" id="Fill-4" fill="#FEFEFE"></path>
                <path d="M11.2405,33.1738 L19.9355,33.1738 L19.9355,26.2128 L11.2405,26.2128 C10.6215,26.2128 10.0095,26.0798 9.4455,25.8218 L8.2245,26.2008 L4.7195,29.6818 L4.4145,30.9028 C6.3805,32.3868 8.7775,33.1848 11.2405,33.1738" id="Fill-6" fill="#FEFEFE"></path>
                <path d="M11.2405,10.5938 C4.9955,10.6308 -0.0365,15.7248 0.0005,21.9698 C0.0205,25.4568 1.6495,28.7398 4.4145,30.8658 L9.4585,25.8228 C7.2695,24.8338 6.2975,22.2588 7.2855,20.0708 C8.2745,17.8818 10.8495,16.9098 13.0375,17.8988 C14.0025,18.3338 14.7735,19.1068 15.2095,20.0708 L20.2535,15.0268 C18.1075,12.2218 14.7725,10.5808 11.2405,10.5938" id="Fill-8" fill="#FEFEFE"></path>
                <g id="Group-12" transform="translate(51.000000, 4.839100)">
                    <mask id="mask-4" fill="white">
                        <use xlink:href="#path-3"></use>
                    </mask>
                    <g id="Clip-11"></g>
                    <path d="M79.6136,15.9881 L86.1106,13.2901 C85.9106,12.8131 85.5516,12.4221 85.0966,12.1781 C84.5866,11.8901 84.0096,11.7431 83.4236,11.7511 C82.4296,11.7761 81.4866,12.1931 80.7986,12.9111 C79.9646,13.7091 79.5296,14.8381 79.6136,15.9881 Z M83.6926,23.4741 C81.7626,23.5241 79.8996,22.7671 78.5516,21.3861 C77.1826,20.0151 76.4366,18.1441 76.4876,16.2091 C76.4146,14.2681 77.1336,12.3821 78.4776,10.9811 C79.7466,9.6441 81.5196,8.9041 83.3626,8.9421 C84.2006,8.9331 85.0316,9.0951 85.8046,9.4191 C86.5016,9.7001 87.1356,10.1141 87.6736,10.6391 C88.1346,11.0851 88.5446,11.5811 88.8946,12.1171 C89.1776,12.5701 89.4196,13.0491 89.6156,13.5461 L89.9446,14.3771 L80.1756,18.3941 C80.7796,19.7841 82.1776,20.6581 83.6926,20.5921 C85.1566,20.5961 86.5146,19.8321 87.2706,18.5781 L89.7136,20.2261 C89.0896,21.1181 88.2926,21.8741 87.3686,22.4491 C86.2696,23.1421 84.9916,23.5001 83.6926,23.4741 Z M71.7606,23.0351 L74.9486,23.0351 L74.9486,1.6881 L71.7606,1.6881 L71.7606,23.0351 Z M62.8706,20.6171 C63.9266,20.6401 64.9376,20.1921 65.6316,19.3951 C66.3846,18.5321 66.7816,17.4151 66.7416,16.2691 C66.7876,15.1041 66.3896,13.9661 65.6316,13.0821 C64.9386,12.2841 63.9266,11.8361 62.8706,11.8611 C61.7876,11.8391 60.7466,12.2831 60.0126,13.0821 C59.2056,13.9341 58.7666,15.0711 58.7926,16.2451 C58.7666,17.4081 59.2066,18.5331 60.0126,19.3711 C60.7426,20.1771 61.7836,20.6321 62.8706,20.6171 Z M62.6506,29.9961 C61.1866,30.0421 59.7526,29.5861 58.5846,28.7011 C57.5486,27.9221 56.7316,26.8861 56.2156,25.6971 L58.9996,24.5371 C59.3026,25.2481 59.7766,25.8731 60.3796,26.3561 C61.0246,26.8771 61.8346,27.1491 62.6636,27.1261 C63.7256,27.1901 64.7646,26.7891 65.5086,26.0271 C66.2446,25.1391 66.6076,24.0021 66.5216,22.8511 L66.5216,21.8011 L66.4126,21.8011 C65.4686,22.9221 64.0516,23.5331 62.5906,23.4501 C60.7366,23.4561 58.9656,22.6851 57.7056,21.3251 C56.3396,19.9761 55.5846,18.1281 55.6166,16.2091 C55.5826,14.2781 56.3376,12.4171 57.7056,11.0541 C58.9626,9.6891 60.7336,8.9141 62.5906,8.9181 C63.3666,8.9171 64.1346,9.0881 64.8376,9.4191 C65.4446,9.6841 65.9866,10.0801 66.4246,10.5791 L66.5346,10.5791 L66.5346,9.4191 L69.5626,9.4191 L69.5626,22.4251 C69.7236,24.5041 69.0216,26.5571 67.6216,28.1021 C66.2876,29.3791 64.4956,30.0611 62.6506,29.9961 Z M44.1376,19.3591 C45.6316,20.9541 48.1346,21.0361 49.7296,19.5431 C49.7936,19.4831 49.8546,19.4231 49.9136,19.3591 C50.7286,18.5161 51.1696,17.3811 51.1346,16.2091 C51.1716,15.0321 50.7306,13.8911 49.9136,13.0461 C48.3786,11.4431 45.8356,11.3891 44.2326,12.9251 C44.1926,12.9651 44.1526,13.0051 44.1126,13.0461 C43.2966,13.8911 42.8556,15.0321 42.8916,16.2091 C42.8606,17.3821 43.3056,18.5181 44.1256,19.3591 L44.1376,19.3591 Z M52.1976,21.3981 C49.3056,24.1701 44.7446,24.1701 41.8536,21.3981 C40.4536,20.0411 39.6866,18.1581 39.7416,16.2091 C39.6886,14.2591 40.4556,12.3771 41.8536,11.0181 C44.7446,8.2471 49.3056,8.2471 52.1976,11.0181 C53.5956,12.3771 54.3626,14.2591 54.3096,16.2091 C54.3646,18.1581 53.5976,20.0411 52.1976,21.3981 Z M28.2376,19.3591 C29.7306,20.9541 32.2346,21.0361 33.8306,19.5431 C33.8926,19.4831 33.9546,19.4231 34.0136,19.3591 C34.8296,18.5161 35.2696,17.3811 35.2346,16.2091 C35.2706,15.0321 34.8316,13.8911 34.0136,13.0461 C32.4776,11.4431 29.9346,11.3891 28.3336,12.9251 C28.2926,12.9651 28.2526,13.0051 28.2136,13.0461 C27.3956,13.8911 26.9556,15.0321 26.9916,16.2091 C26.9606,17.3821 27.4056,18.5181 28.2246,19.3591 L28.2376,19.3591 Z M36.2976,21.3981 C33.4066,24.1701 28.8446,24.1701 25.9536,21.3981 C24.5536,20.0411 23.7876,18.1581 23.8416,16.2091 C23.7886,14.2591 24.5546,12.3771 25.9536,11.0181 C28.8466,8.2531 33.4036,8.2531 36.2976,11.0181 C37.6966,12.3771 38.4626,14.2591 38.4106,16.2091 C38.4616,18.1601 37.6896,20.0431 36.2856,21.3981 L36.2976,21.3981 Z M12.1906,23.4741 C9.1666,23.5131 6.2566,22.3181 4.1316,20.1651 C1.9376,18.1021 0.7106,15.2141 0.7486,12.2031 C0.7126,9.1921 1.9386,6.3041 4.1316,4.2401 C6.2456,2.0651 9.1566,0.8471 12.1906,0.8701 C15.0806,0.8321 17.8646,1.9531 19.9216,3.9841 L17.7476,6.1941 C16.2596,4.7561 14.2606,3.9661 12.1906,3.9961 C10.0196,3.9691 7.9366,4.8561 6.4516,6.4381 C4.9076,7.9701 4.0556,10.0651 4.0936,12.2391 C4.0766,14.3881 4.9256,16.4531 6.4516,17.9671 C9.5956,21.1001 14.6646,21.1601 17.8816,18.1011 C18.8396,17.0521 19.4266,15.7181 19.5546,14.3031 L12.2276,14.3031 L12.2276,11.1761 L22.5946,11.1761 C22.6976,11.8061 22.7386,12.4441 22.7186,13.0821 C22.8476,15.7481 21.8816,18.3511 20.0436,20.2871 C17.9976,22.4171 15.1416,23.5761 12.1906,23.4741 Z" id="Fill-10" fill="#FEFEFE" mask="url(#mask-4)"></path>
                </g>
                <path d="M157.6389,28.3135 C152.0819,28.4095 147.4989,23.9825 147.4039,18.4255 C147.4019,18.2905 147.4019,18.1545 147.4049,18.0185 C147.2759,12.4625 151.6749,7.8545 157.2319,7.7255 C157.3679,7.7215 157.5029,7.7215 157.6389,7.7235 C160.4179,7.6365 163.0849,8.8245 164.8799,10.9485 L163.1219,12.6575 C161.8019,10.9985 159.7699,10.0675 157.6509,10.1545 C155.6189,10.1085 153.6569,10.8935 152.2159,12.3285 C150.7189,13.8345 149.9169,15.8965 150.0059,18.0185 C149.9169,20.1405 150.7189,22.2035 152.2159,23.7095 C153.6569,25.1445 155.6189,25.9285 157.6509,25.8835 C160.0149,25.9105 162.2629,24.8585 163.7569,23.0255 L165.5159,24.7845 C164.5949,25.8855 163.4389,26.7655 162.1329,27.3615 C160.7249,28.0105 159.1889,28.3365 157.6389,28.3135" id="Fill-13" fill="#FEFEFE"></path>
                <mask id="mask-6" fill="white">
                    <use xlink:href="#path-5"></use>
                </mask>
                <g id="Clip-16"></g>
                <polygon id="Fill-15" fill="#FEFEFE" mask="url(#mask-6)" points="167.713 27.8741 170.241 27.8741 170.241 8.1511 167.713 8.1511"></polygon>
                <path d="M176.2503,24.6748 C177.8673,26.3838 180.5643,26.4588 182.2743,24.8408 C182.3323,24.7868 182.3873,24.7318 182.4413,24.6748 C183.3343,23.7168 183.8053,22.4408 183.7483,21.1328 C183.8053,19.8248 183.3343,18.5488 182.4413,17.5918 C180.8233,15.8818 178.1263,15.8068 176.4163,17.4248 C176.3593,17.4788 176.3043,17.5338 176.2503,17.5918 C175.3573,18.5488 174.8873,19.8248 174.9423,21.1328 C174.8933,22.4388 175.3683,23.7088 176.2623,24.6618 L176.2503,24.6748 Z M174.3693,16.0038 C177.1263,13.2658 181.5763,13.2658 184.3343,16.0038 C185.6433,17.3848 186.3463,19.2318 186.2883,21.1328 C186.3463,23.0338 185.6433,24.8808 184.3343,26.2618 C181.5763,28.9998 177.1263,28.9998 174.3693,26.2618 C173.0613,24.8808 172.3573,23.0338 172.4153,21.1328 C172.3573,19.2318 173.0613,17.3848 174.3693,16.0038 Z" id="Fill-17" fill="#FEFEFE" mask="url(#mask-6)"></path>
                <path d="M200.2952,27.874 L197.8532,27.874 L197.8532,26.006 L197.7792,26.006 C197.3452,26.715 196.7302,27.297 195.9962,27.69 C195.2352,28.132 194.3722,28.363 193.4932,28.362 C192.0472,28.461 190.6352,27.895 189.6582,26.823 C188.7332,25.653 188.2692,24.186 188.3522,22.696 L188.3522,14.392 L190.8802,14.392 L190.8802,22.232 C190.8802,24.748 191.9912,26.006 194.2142,26.006 C195.2162,26.037 196.1712,25.582 196.7782,24.784 C197.4342,23.954 197.7822,22.923 197.7682,21.865 L197.7682,14.392 L200.2952,14.392 L200.2952,27.874 Z" id="Fill-18" fill="#FEFEFE" mask="url(#mask-6)"></path>
                <path d="M209.2952,26.0059 C210.4512,26.0229 211.5592,25.5419 212.3362,24.6869 C213.1952,23.7089 213.6342,22.4319 213.5582,21.1329 C213.6342,19.8339 213.1952,18.5569 212.3362,17.5789 C210.8022,15.8929 208.1912,15.7699 206.5052,17.3039 C206.4092,17.3919 206.3172,17.4839 206.2312,17.5789 C205.3682,18.5509 204.9292,19.8249 205.0092,21.1209 C204.9292,22.4169 205.3682,23.6909 206.2312,24.6619 C207.0092,25.5329 208.1272,26.0239 209.2952,26.0059 M208.8802,28.3139 C207.1452,28.3189 205.4932,27.5659 204.3612,26.2499 C203.0962,24.8519 202.4182,23.0189 202.4692,21.1329 C202.4182,19.2469 203.0962,17.4139 204.3612,16.0159 C205.4932,14.6999 207.1452,13.9459 208.8802,13.9519 C209.8412,13.9369 210.7902,14.1639 211.6402,14.6109 C212.3872,14.9869 213.0202,15.5569 213.4722,16.2599 L213.5822,16.2599 L213.4722,14.3919 L213.4722,8.1519 L216.0002,8.1519 L216.0002,27.8739 L213.5582,27.8739 L213.5582,26.0059 L213.4472,26.0059 C212.9952,26.7089 212.3622,27.2779 211.6152,27.6539 C210.7732,28.0979 209.8332,28.3239 208.8802,28.3139" id="Fill-19" fill="#FEFEFE" mask="url(#mask-6)"></path>
            </g>
        </g>
    </g>
</svg>