<?xml version="1.0" encoding="UTF-8"?>
<svg width="170px" height="36px" viewBox="0 0 170 36" version="1.1" xmlns="http://www.w3.org/2000/svg" xmlns:xlink="http://www.w3.org/1999/xlink">
    <!-- Generator: Sketch 52.4 (67378) - http://www.bohemiancoding.com/sketch -->
    <title>GoDaddy</title>
    <desc>Created with Sketch.</desc>
    <defs>
        <polygon id="path-1" points="0 0 28.8369 0 28.8369 27.635 0 27.635"></polygon>
        <polygon id="path-3" points="0.3967 0.7727 4.648 0.7727 4.648 4.9317 0.3967 4.9317"></polygon>
    </defs>
    <g id="Live-Site" stroke="none" stroke-width="1" fill="none" fill-rule="evenodd">
        <g id="sponsors-live" transform="translate(-436.000000, -665.000000)">
            <g id="GoDaddy" transform="translate(436.000000, 665.000000)">
                <path d="M44.0411,17.6994 C44.0411,15.5734 42.3771,13.8174 40.2051,13.8174 C38.0791,13.8174 36.3691,15.5734 36.3691,17.6994 C36.3691,19.8254 38.0331,21.5354 40.2051,21.5354 C42.3311,21.5354 44.0411,19.8254 44.0411,17.6994 M50.6951,17.7464 C50.6951,23.2454 46.0281,27.6354 40.2521,27.6354 C34.4751,27.6354 29.8081,23.2454 29.8081,17.7464 C29.8081,12.2004 34.4751,7.7634 40.2521,7.7634 C46.0281,7.7634 50.6951,12.2464 50.6951,17.7464" id="Fill-1" fill="#FEFEFE"></path>
                <path d="M71.4913,13.7258 C71.4913,10.0288 68.9033,6.7928 65.0683,6.7928 L59.7543,6.7928 L59.7543,20.7958 L65.0683,20.7958 C68.9033,20.8418 71.4913,17.4688 71.4913,13.7258 M78.7013,13.7258 C78.7013,21.6278 73.1093,27.0348 65.2533,27.0348 L53.8853,27.0348 C53.3303,27.0348 52.9143,26.6188 52.9143,26.1108 L52.9143,1.4788 C52.9143,0.9708 53.3303,0.5548 53.8853,0.5548 L65.2533,0.5548 C73.1093,0.5548 78.7013,5.8228 78.7013,13.7258" id="Fill-3" fill="#FEFEFE"></path>
                <path d="M89.7921,21.5812 C91.9181,21.5812 93.6281,19.8252 93.6281,17.6992 C93.6281,15.5732 91.9641,13.8632 89.7921,13.8632 C87.6661,13.8632 85.9561,15.6202 85.9561,17.7462 C85.9561,19.8712 87.6661,21.5812 89.7921,21.5812 M88.8211,7.7642 C91.0861,7.7642 92.8891,8.5962 93.6741,9.7512 L93.6741,9.1962 C93.6741,8.6872 94.0901,8.3182 94.5521,8.3182 L99.3121,8.3182 C99.8201,8.3182 100.1891,8.6872 100.1891,9.1962 L100.1891,26.2032 C100.1891,26.7112 99.8201,27.0812 99.3121,27.0812 L94.5521,27.0812 C94.0441,27.0812 93.6741,26.7112 93.6741,26.2032 L93.6741,25.6482 C92.8891,26.8042 91.0401,27.6352 88.7751,27.6352 C83.9691,27.6352 79.3481,23.8002 79.3481,17.6532 C79.3481,11.5072 84.0161,7.7642 88.8211,7.7642" id="Fill-5" fill="#FEFEFE"></path>
                <path d="M111.5118,21.5812 C113.6378,21.5812 115.3478,19.8252 115.3478,17.6992 C115.3478,15.5732 113.6848,13.8632 111.5118,13.8632 C109.3868,13.8632 107.6768,15.6202 107.6768,17.7462 C107.6768,19.8712 109.3868,21.5812 111.5118,21.5812 M110.4038,7.7642 C112.7138,7.7642 114.5158,8.6422 115.3478,9.6582 L115.3478,1.4332 C115.3478,0.9242 115.7638,0.5552 116.2258,0.5552 L121.0778,0.5552 C121.5868,0.5552 121.9558,0.9242 121.9558,1.4332 L121.9558,26.2032 C121.9558,26.7112 121.5868,27.0812 121.0778,27.0812 L116.3188,27.0812 C115.8098,27.0812 115.4408,26.7112 115.4408,26.2032 L115.4408,25.6482 C114.4698,26.8042 112.8058,27.6352 110.5418,27.6352 C105.7358,27.6352 101.1148,23.8002 101.1148,17.6532 C101.1148,11.5072 105.6428,7.7642 110.4038,7.7642" id="Fill-7" fill="#FEFEFE"></path>
                <path d="M133.2784,21.5812 C135.4044,21.5812 137.1144,19.8252 137.1144,17.6992 C137.1144,15.5732 135.4044,13.8632 133.2784,13.8632 C131.1524,13.8632 129.4424,15.6202 129.4424,17.7462 C129.4424,19.8712 131.1064,21.5812 133.2784,21.5812 M132.1234,7.7642 C134.4334,7.7642 136.2364,8.6422 137.0684,9.6582 L137.0684,1.4332 C137.0684,0.9242 137.4834,0.5552 137.9464,0.5552 L142.7994,0.5552 C143.3064,0.5552 143.6764,0.9242 143.6764,1.4332 L143.6764,26.2032 C143.6764,26.7112 143.3064,27.0812 142.7994,27.0812 L138.0384,27.0812 C137.5304,27.0812 137.1604,26.7112 137.1604,26.2032 L137.1604,25.6482 C136.1894,26.8042 134.5264,27.6352 132.2614,27.6352 C127.4564,27.6352 122.8344,23.8002 122.8344,17.6532 C122.8344,11.5072 127.3634,7.7642 132.1234,7.7642" id="Fill-9" fill="#FEFEFE"></path>
                <path d="M159.6202,29.8078 C158.4182,33.7818 155.6452,35.9998 151.3022,35.9998 C148.9442,35.9998 146.6342,35.2138 145.1552,33.9198 C144.9242,33.6898 144.7852,33.4118 144.7852,33.1348 C144.7852,32.9038 144.8782,32.6258 145.1092,32.3488 L146.9112,29.6218 C147.1882,29.2528 147.6042,29.2058 147.6972,29.2058 C148.1132,29.2058 148.2982,29.2988 148.6672,29.5768 C149.2222,29.9468 150.0082,30.4088 150.8862,30.4088 C151.6252,30.4088 152.5962,30.0848 152.9652,28.9758 L153.5662,27.0808 L150.6542,27.0808 C150.0542,27.0808 149.6842,26.6648 149.4992,26.1568 L144.6462,9.7968 C144.5552,9.3808 144.5082,9.1508 144.5082,9.0118 C144.5082,8.6418 144.7852,8.3188 145.2942,8.3188 L151.0242,8.3188 C151.5322,8.3188 151.8092,8.7808 151.9482,9.2428 L155.1382,20.9808 L155.3682,20.9808 L157.9102,9.2428 C158.0032,8.7808 158.3262,8.3188 158.8342,8.3188 L164.6572,8.3188 C165.2122,8.3188 165.4422,8.6418 165.4422,9.0118 C165.4422,9.1508 165.3962,9.3808 165.3042,9.7968 L159.6202,29.8078 Z" id="Fill-11" fill="#FEFEFE"></path>
                <g id="Group-15">
                    <mask id="mask-2" fill="white">
                        <use xlink:href="#path-1"></use>
                    </mask>
                    <g id="Clip-14"></g>
                    <path d="M22.9679,23.384 C20.6569,26.572 16.8669,27.635 13.4939,27.635 C5.7309,27.635 -0.0001,21.859 -0.0001,13.818 C-0.0001,6.147 6.1929,0 14.2799,0 C20.2869,0 25.0939,2.542 27.2659,7.394 C27.5429,7.948 27.7279,8.873 26.1109,9.151 L21.8589,9.89 C20.8889,10.074 20.3339,9.428 20.1489,9.151 C18.9019,7.441 16.8669,6.285 14.4179,6.285 C10.1669,6.285 7.1629,9.52 7.1629,13.818 C7.1629,18.577 10.5829,21.351 14.3259,21.351 C16.8219,21.351 18.8549,20.426 20.1959,18.67 L16.4519,18.67 C15.8979,18.67 15.4819,18.254 15.4819,17.746 L15.4819,14.188 C15.4819,13.679 15.8979,13.263 16.4519,13.263 L27.8659,13.263 C28.4209,13.263 28.8369,13.679 28.8369,14.188 L28.8369,26.111 C28.8369,26.618 28.4209,27.034 27.8659,27.034 L23.8919,27.034 C23.3379,27.034 22.9219,26.618 22.9219,26.111 L22.9219,23.384 L22.9679,23.384 Z" id="Fill-13" fill="#FEFEFE" mask="url(#mask-2)"></path>
                </g>
                <g id="Group-18" transform="translate(165.000000, 2.000000)">
                    <mask id="mask-4" fill="white">
                        <use xlink:href="#path-3"></use>
                    </mask>
                    <g id="Clip-17"></g>
                    <path d="M2.8917,2.4367 C2.8917,2.3437 2.8457,2.2507 2.7997,2.2057 C2.7527,2.1597 2.6617,2.1127 2.5227,2.1127 L2.1067,2.1127 L2.1067,2.7597 L2.5227,2.7597 C2.6157,2.7597 2.7067,2.7137 2.7997,2.6667 C2.8917,2.6217 2.8917,2.5287 2.8917,2.4367 M2.0607,4.0997 L1.6447,4.0997 C1.6447,4.0997 1.5977,4.0997 1.5977,4.0537 C1.5977,4.0077 1.5517,4.0077 1.5517,4.0077 L1.5517,1.6977 C1.5517,1.6977 1.5517,1.6507 1.5977,1.6507 L1.6447,1.6047 L2.5687,1.6047 C2.8457,1.6047 3.0777,1.6977 3.2617,1.8357 C3.4467,1.9747 3.5387,2.2057 3.5387,2.4367 C3.5387,2.5757 3.4937,2.7137 3.4007,2.8527 C3.3077,2.9917 3.2157,3.0827 3.0777,3.1297 L3.5847,3.9607 C3.5847,4.0077 3.6317,4.0077 3.5847,4.0537 C3.5847,4.0997 3.5387,4.0997 3.4937,4.0997 L3.0777,4.0997 L2.9847,4.0997 C2.9387,4.0997 2.9387,4.0537 2.8917,4.0077 L2.4297,3.2687 L2.1067,3.2687 L2.1067,4.0077 C2.1067,4.0077 2.1067,4.0537 2.0607,4.0537 C2.1067,4.0537 2.1067,4.0997 2.0607,4.0997 M2.5227,4.5627 C2.9847,4.5627 3.4007,4.3767 3.7237,4.0537 C4.0477,3.7307 4.2327,3.3147 4.2327,2.8527 C4.2327,2.3897 4.0477,1.9747 3.7237,1.6507 C3.4007,1.3277 2.9847,1.1427 2.5227,1.1427 C2.0607,1.1427 1.6447,1.3277 1.3217,1.6507 C0.9967,1.9747 0.8127,2.3897 0.8127,2.8527 C0.8127,3.3147 0.9967,3.7307 1.3217,4.0537 C1.5977,4.3767 2.0137,4.5627 2.5227,4.5627 M0.9967,4.3317 C0.8127,4.1467 0.6277,3.9157 0.5357,3.6377 C0.4427,3.3607 0.3967,3.1297 0.3967,2.8527 C0.3967,2.5757 0.4427,2.2977 0.5357,2.0667 C0.6277,1.7897 0.8127,1.6047 0.9967,1.3737 C1.1827,1.1887 1.4127,1.0497 1.6907,0.9117 C1.9677,0.8187 2.1997,0.7727 2.5227,0.7727 C2.8457,0.7727 3.0777,0.8187 3.3547,0.9117 C3.6317,1.0037 3.8167,1.1427 4.0477,1.3737 C4.2327,1.5587 4.4167,1.7897 4.5097,2.0667 C4.6017,2.3437 4.6487,2.5757 4.6487,2.8527 C4.6487,3.1297 4.6017,3.4077 4.5097,3.6377 C4.4167,3.9157 4.2327,4.0997 4.0477,4.3317 C3.8627,4.5157 3.6317,4.6547 3.3547,4.7927 C3.0777,4.8857 2.8457,4.9317 2.5227,4.9317 C2.1997,4.9317 1.9677,4.8857 1.6907,4.7927 C1.4127,4.6547 1.2287,4.5157 0.9967,4.3317" id="Fill-16" fill="#FEFEFE" mask="url(#mask-4)"></path>
                </g>
            </g>
        </g>
    </g>
</svg>