<?xml version="1.0" encoding="UTF-8"?>
<svg width="43px" height="43px" viewBox="0 0 43 43" version="1.1" xmlns="http://www.w3.org/2000/svg" xmlns:xlink="http://www.w3.org/1999/xlink">
    <!-- Generator: Sketch 52.4 (67378) - http://www.bohemiancoding.com/sketch -->
    <title>Group 9</title>
    <desc>Created with Sketch.</desc>
    <g id="Live-Site" stroke="none" stroke-width="1" fill="none" fill-rule="evenodd">
        <g id="about-live-" transform="translate(-795.000000, -590.000000)">
            <g id="Group-11" transform="translate(796.000000, 591.000000)">
                <g id="Group-9">
                    <g id="Slack_Mark_Monochrome_White" transform="translate(7.000000, 7.000000)" fill="#FFFFFF">
                        <g id="Group" transform="translate(0.000000, 14.153226)">
                            <path d="M5.7483871,2.87419355 C5.7483871,4.42016129 4.48548387,5.68306452 2.93951613,5.68306452 C1.39354839,5.68306452 0.130645161,4.42016129 0.130645161,2.87419355 C0.130645161,1.32822581 1.39354839,0.0653225806 2.93951613,0.0653225806 L5.7483871,0.0653225806 L5.7483871,2.87419355 Z" id="Path"></path>
                            <path d="M7.16370968,2.87419355 C7.16370968,1.32822581 8.4266129,0.0653225806 9.97258065,0.0653225806 C11.5185484,0.0653225806 12.7814516,1.32822581 12.7814516,2.87419355 L12.7814516,9.90725806 C12.7814516,11.4532258 11.5185484,12.716129 9.97258065,12.716129 C8.4266129,12.716129 7.16370968,11.4532258 7.16370968,9.90725806 C7.16370968,9.90725806 7.16370968,2.87419355 7.16370968,2.87419355 Z" id="Path"></path>
                        </g>
                        <g id="Group">
                            <path d="M9.97258065,5.7483871 C8.4266129,5.7483871 7.16370968,4.48548387 7.16370968,2.93951613 C7.16370968,1.39354839 8.4266129,0.130645161 9.97258065,0.130645161 C11.5185484,0.130645161 12.7814516,1.39354839 12.7814516,2.93951613 L12.7814516,5.7483871 L9.97258065,5.7483871 Z" id="Path"></path>
                            <path d="M9.97258065,7.16370968 C11.5185484,7.16370968 12.7814516,8.4266129 12.7814516,9.97258065 C12.7814516,11.5185484 11.5185484,12.7814516 9.97258065,12.7814516 L2.93951613,12.7814516 C1.39354839,12.7814516 0.130645161,11.5185484 0.130645161,9.97258065 C0.130645161,8.4266129 1.39354839,7.16370968 2.93951613,7.16370968 C2.93951613,7.16370968 9.97258065,7.16370968 9.97258065,7.16370968 Z" id="Path"></path>
                        </g>
                        <g id="Group" transform="translate(14.153226, 0.000000)">
                            <path d="M7.0983871,9.97258065 C7.0983871,8.4266129 8.36129032,7.16370968 9.90725806,7.16370968 C11.4532258,7.16370968 12.716129,8.4266129 12.716129,9.97258065 C12.716129,11.5185484 11.4532258,12.7814516 9.90725806,12.7814516 L7.0983871,12.7814516 L7.0983871,9.97258065 Z" id="Path"></path>
                            <path d="M5.68306452,9.97258065 C5.68306452,11.5185484 4.42016129,12.7814516 2.87419355,12.7814516 C1.32822581,12.7814516 0.0653225806,11.5185484 0.0653225806,9.97258065 L0.0653225806,2.93951613 C0.0653225806,1.39354839 1.32822581,0.130645161 2.87419355,0.130645161 C4.42016129,0.130645161 5.68306452,1.39354839 5.68306452,2.93951613 L5.68306452,9.97258065 Z" id="Path"></path>
                        </g>
                        <g id="Group" transform="translate(14.153226, 14.153226)">
                            <path d="M2.87419355,7.0983871 C4.42016129,7.0983871 5.68306452,8.36129032 5.68306452,9.90725806 C5.68306452,11.4532258 4.42016129,12.716129 2.87419355,12.716129 C1.32822581,12.716129 0.0653225806,11.4532258 0.0653225806,9.90725806 L0.0653225806,7.0983871 L2.87419355,7.0983871 Z" id="Path"></path>
                            <path d="M2.87419355,5.68306452 C1.32822581,5.68306452 0.0653225806,4.42016129 0.0653225806,2.87419355 C0.0653225806,1.32822581 1.32822581,0.0653225806 2.87419355,0.0653225806 L9.90725806,0.0653225806 C11.4532258,0.0653225806 12.716129,1.32822581 12.716129,2.87419355 C12.716129,4.42016129 11.4532258,5.68306452 9.90725806,5.68306452 L2.87419355,5.68306452 Z" id="Path"></path>
                        </g>
                    </g>
                    <path d="M41.0886486,20.5443243 C41.0886486,31.8910688 31.8910688,41.0886486 20.5443243,41.0886486 C9.19815054,41.0886486 -3.19744231e-14,31.8910688 -3.19744231e-14,20.5443243 C-3.19744231e-14,9.19815054 9.19815054,-2.84217094e-14 20.5443243,-2.84217094e-14 C31.8910688,-2.84217094e-14 41.0886486,9.19815054 41.0886486,20.5443243 Z" id="Stroke-1" stroke="#FEFEFE" stroke-width="1.35135135"></path>
                </g>
            </g>
        </g>
    </g>
</svg>