<?xml version="1.0" encoding="UTF-8"?>
<svg width="144px" height="25px" viewBox="0 0 144 25" version="1.1" xmlns="http://www.w3.org/2000/svg" xmlns:xlink="http://www.w3.org/1999/xlink">
    <!-- Generator: Sketch 52.4 (67378) - http://www.bohemiancoding.com/sketch -->
    <title>Hack Club</title>
    <desc>Created with Sketch.</desc>
    <defs>
        <polygon id="path-1" points="0 -0.0003 144 -0.0003 144 24.9095 0 24.9095"></polygon>
    </defs>
    <g id="Live-Site" stroke="none" stroke-width="1" fill="none" fill-rule="evenodd">
        <g id="sponsors-live" transform="translate(-450.000000, -1175.000000)">
            <g id="Hack-Club" transform="translate(450.000000, 1175.000000)">
                <mask id="mask-2" fill="white">
                    <use xlink:href="#path-1"></use>
                </mask>
                <g id="Clip-2"></g>
                <path d="M136.672,11.4595 C138.271,11.4595 138.36,13.7815 138.36,16.2845 C138.36,18.9685 137.758,20.9295 135.586,20.9295 C135.164,20.9295 134.471,20.7475 134.23,20.6885 L134.23,17.1295 C134.23,14.1445 135.225,11.4595 136.672,11.4595 Z M29.946,11.4595 C30.338,11.4595 31.001,11.6105 31.303,11.7305 L31.303,15.5915 C31.303,18.3965 30.217,20.8985 28.83,20.8985 C27.232,20.8985 27.142,18.5765 27.142,16.1045 C27.172,13.4495 27.775,11.4595 29.946,11.4595 Z M110.164,7.8405 L110.164,18.9985 C110.164,22.5265 111.49,24.8185 114.989,24.8185 C117.341,24.8185 119.513,23.8845 120.658,21.8035 C121.141,23.7935 122.227,24.8795 122.227,24.8795 L126.479,23.5525 C126.479,23.5525 124.639,21.8635 124.639,16.5565 L124.639,7.8405 L119.361,7.8405 L119.361,16.1935 C119.361,19.0895 118.065,20.9295 116.828,20.9295 C115.803,20.9295 115.502,19.9035 115.502,18.3055 L115.502,7.8405 L110.164,7.8405 Z M29.946,7.5995 C24.97,7.5995 21.563,11.3985 21.563,16.4955 C21.563,21.5015 23.613,24.8185 28.016,24.8185 C30.429,24.8185 31.876,23.6125 32.6,21.5625 C32.992,23.7635 34.198,24.8795 34.198,24.8795 L38.45,23.5525 C38.45,23.5525 36.61,21.8635 36.61,16.5565 L36.61,8.5645 C36.521,8.5945 32.721,7.5995 29.946,7.5995 Z M47.89,7.5095 C43.245,7.5095 39.777,10.6755 39.777,16.6775 C39.777,21.5925 42.039,24.9095 47.497,24.9095 C50.483,24.9095 52.443,23.8235 52.474,23.7645 L51.508,20.2345 C51.418,20.2655 49.759,20.8985 48.703,20.8985 C47.256,20.8985 45.387,20.2955 45.387,16.1045 C45.387,11.8525 47.136,11.4295 48.251,11.4295 C49.156,11.4295 49.639,11.9115 50.182,12.5755 L52.775,9.8915 C51.72,8.4745 50.061,7.5095 47.89,7.5095 Z M90.773,1.6885 C83.957,1.6885 80.67,6.6645 80.67,13.6015 C80.67,20.7475 83.716,24.8185 90.562,24.8185 C93.276,24.8185 95.417,24.3065 96.775,23.7335 L95.568,19.9935 C94.331,20.5065 92.823,20.9295 91.225,20.9295 C87.696,20.9295 86.611,17.7625 86.611,13.2385 C86.611,8.5045 87.878,5.6085 90.742,5.6085 C91.919,5.6085 93.065,6.0315 94.301,7.5095 L97.317,4.4635 C96.05,3.0455 94.361,1.6885 90.773,1.6885 Z M134.23,0.3925 L128.951,1.2965 L128.951,23.8545 C129.314,23.9755 132.842,24.8185 135.616,24.8185 C140.592,24.8185 144,21.0495 144,15.9525 C144,10.9165 141.949,7.5995 137.728,7.5995 C136.22,7.5995 135.073,8.2025 134.259,9.2885 L134.259,0.3925 L134.23,0.3925 Z M104.735,0.3925 L99.458,1.2965 L99.458,20.4765 C99.458,22.8585 100.816,24.7295 103.861,24.7295 C105.791,24.7295 107.54,24.1555 108.203,23.8545 L107.691,20.5365 C107.178,20.6275 106.515,20.7185 106.063,20.7185 C105.068,20.7185 104.705,20.3555 104.705,19.2705 L104.705,0.3925 L104.735,0.3925 Z M60.073,0.3925 L54.795,1.2965 L54.795,24.6075 L60.073,24.6075 L60.073,17.4315 L60.103,17.4315 C64.536,24.6985 60.193,17.5815 64.506,24.6075 L69.844,24.6075 L64.386,16.2545 L69.482,7.8115 L64.325,7.8115 L60.073,14.7765 L60.073,11.7005 L60.073,0.3925 Z M18.818,-0.0005 L13.329,0.9655 L13.329,1.9905 L13.329,6.8455 L13.329,10.8555 L5.488,10.8555 C5.519,9.2285 5.519,7.5095 5.519,5.9405 L5.519,0.0295 L0,0.9945 L0,1.9905 L0,6.9055 L0,24.6075 L5.519,24.6075 L5.519,14.9275 L13.359,14.9275 L13.359,24.6075 L18.848,24.6075 L18.848,5.8505 L18.848,1.9905 L18.818,-0.0005 Z" id="Fill-1" fill="#FEFEFE" mask="url(#mask-2)"></path>
            </g>
        </g>
    </g>
</svg>