<?xml version="1.0" encoding="UTF-8"?>
<svg width="398px" height="72px" viewBox="0 0 398 72" version="1.1" xmlns="http://www.w3.org/2000/svg" xmlns:xlink="http://www.w3.org/1999/xlink">
    <!-- Generator: Sketch 52.4 (67378) - http://www.bohemiancoding.com/sketch -->
    <title>itradenetwork</title>
    <desc>Created with Sketch.</desc>
    <defs>
        <polygon id="path-1" points="0.735829252 0 32.5651907 0 32.5651907 53.7340659 0.735829252 53.7340659"></polygon>
        <polygon id="path-3" points="0.1495 0.9466 11.727 0.9466 11.727 6.7356 0.1495 6.7356"></polygon>
    </defs>
    <g id="Live-Site" stroke="none" stroke-width="1" fill="none" fill-rule="evenodd">
        <g id="sponsors-live" transform="translate(-722.000000, -307.000000)">
            <g id="itradenetwork" transform="translate(722.000000, 307.000000)">
                <g id="Group-3" transform="translate(9.000000, 0.000000)">
                    <mask id="mask-2" fill="white">
                        <use xlink:href="#path-1"></use>
                    </mask>
                    <g id="Clip-2"></g>
                    <path d="M18.2297,-0.0001 C46.3177,30.0169 19.9457,56.1749 7.0807,49.9569 C-3.6393,44.3829 6.6517,28.0869 20.8027,24.4419 L21.0167,24.4419 C6.2227,27.2299 -7.2853,45.4549 6.4377,52.7449 C21.2317,59.3909 49.9617,31.5179 18.2297,-0.0001" id="Fill-1" fill="#FEFEFE" mask="url(#mask-2)"></path>
                </g>
                <path d="M15.009,30.4462 C0.858,43.5252 6.432,53.1732 11.15,56.6042 C28.516,68.8252 57.247,42.6672 42.024,16.5092 C52.959,43.7392 27.016,65.1802 12.007,54.6742 C7.933,51.8862 1.93,43.3102 15.009,30.4462" id="Fill-4" fill="#FEFEFE"></path>
                <path d="M48.6711,31.0893 C53.3881,49.9573 34.0911,71.8263 14.3651,64.5373 C-0.8569,58.9623 2.5721,45.2403 4.0731,42.6673 L4.2881,42.2383 C2.7871,44.8113 0.6431,57.4613 15.0091,62.3933 C32.5901,68.6103 51.2431,49.7423 48.6711,31.0893" id="Fill-6" fill="#FEFEFE"></path>
                <path d="M0.0002,55.103 C0.0002,56.818 2.1442,67.324 14.3652,70.969 C30.4452,75.686 48.8852,63.679 50.6012,45.883 C48.2412,62.179 31.0892,72.47 15.8662,68.825 C3.4312,65.823 0.2142,56.818 0.0002,55.103" id="Fill-8" fill="#FEFEFE"></path>
                <path d="M173.885,51.2436 L183.105,49.0996 C186.535,48.2426 192.968,47.5986 192.968,42.8816 L192.968,39.0226 C192.968,34.0906 185.463,32.5906 179.674,32.5906 C175.815,32.5906 168.953,34.3056 168.953,39.0226 L168.953,53.1736 C168.953,58.7476 176.243,60.6776 180.96,60.6776 C184.82,60.6776 187.393,60.2486 190.18,59.1766 C193.182,58.1046 191.681,53.6016 188.679,54.6746 C187.179,55.1026 185.034,55.9606 180.96,55.9606 C177.744,55.9606 175.386,54.8886 173.885,53.3876 L173.885,51.2436 Z M173.885,39.8796 C175.386,38.3796 177.531,37.5216 179.674,37.5216 C184.177,37.5216 186.535,38.1646 188.036,39.6656 L188.036,42.8816 C187.393,43.3106 182.461,44.3826 181.819,44.3826 L173.885,46.0976 L173.885,39.8796 Z" id="Fill-10" fill="#FEFEFE"></path>
                <path d="M236.4924,60.892 C231.9894,60.892 224.7004,58.962 224.7004,54.031 L224.7004,38.594 C224.7004,34.52 231.5604,32.805 235.2064,32.805 C240.1374,32.805 248.4994,34.091 248.4994,38.594 L248.4994,42.882 C248.4994,46.098 244.4264,47.17 239.9234,48.027 C239.4944,48.027 239.0654,48.242 238.6374,48.242 L228.7734,50.6 L227.9164,50.815 L227.9164,51.672 L227.9164,53.816 L227.9164,54.46 L228.3454,54.889 C229.8464,56.39 232.4184,58.104 236.9214,58.104 C241.2094,58.104 243.5674,57.247 245.2834,56.818 L245.4974,56.818 L246.1404,56.818 C246.9984,56.818 247.4274,57.461 247.4274,58.104 C247.4274,58.534 247.4274,59.391 246.3544,59.605 C242.9254,60.463 240.5664,60.892 236.4924,60.892 M235.2064,35.377 C232.4184,35.377 229.8464,36.45 227.9164,38.164 L227.4874,38.594 L227.4874,39.022 L227.4874,46.098 L227.4874,47.599 L228.9884,47.17 L237.7784,45.24 C239.4944,44.811 243.9964,43.954 244.8544,43.31 L245.2834,42.882 L245.2834,42.238 L245.2834,38.808 L245.2834,38.379 L244.8544,37.95 C243.3534,36.235 240.3514,35.377 235.2064,35.377" id="Fill-12" fill="#FEFEFE"></path>
                <path d="M63.0364,28.7309 C61.1064,28.7309 59.6054,27.2299 59.6054,25.5149 C59.6054,23.7989 61.1064,22.2979 63.0364,22.2979 C64.7514,22.2979 66.2524,23.7989 66.2524,25.5149 C66.4674,27.2299 64.9664,28.7309 63.0364,28.7309 Z M60.6784,60.4629 L60.6784,34.9489 C60.6784,33.6619 61.7494,32.5899 63.0364,32.5899 C64.3224,32.5899 65.6084,33.6619 65.6084,34.9489 L65.6084,60.2489 L60.6784,60.2489 L60.6784,60.4629 Z" id="Fill-14" fill="#FEFEFE"></path>
                <path d="M84.4768,60.4633 C79.7598,60.4633 72.4698,58.5333 72.4698,52.9593 L72.4698,37.9503 L71.6128,37.9503 C70.3268,37.9503 69.0388,36.8783 69.0388,35.5913 C69.0388,34.3053 70.1118,33.2333 71.6128,33.2333 L72.4698,33.2333 L72.4698,25.0863 C72.4698,23.7993 73.5418,22.7273 75.0428,22.7273 C76.3298,22.7273 77.4018,23.7993 77.4018,25.0863 L77.4018,33.0193 L87.0498,33.0193 L87.0498,37.9503 L77.4018,37.9503 L77.4018,52.9593 C78.9028,54.4603 81.2608,55.5313 84.4768,55.5313 C85.7628,55.5313 87.0498,56.6043 87.0498,57.8903 C87.0498,59.3913 85.7628,60.4633 84.4768,60.4633" id="Fill-16" fill="#FEFEFE"></path>
                <path d="M107.2043,38.1645 C105.9183,37.7355 104.4173,37.5215 102.9163,37.5215 C99.6993,37.5215 97.5563,38.3795 95.8403,39.6655 L95.8403,60.6775 L90.9093,60.6775 L90.9093,39.4515 C90.9093,34.3055 98.1993,32.5905 102.9163,32.5905 C105.0593,32.5905 111.7063,32.8045 110.4203,36.6645 C109.9913,37.9505 108.4903,38.5935 107.2043,38.1645" id="Fill-18" fill="#FEFEFE"></path>
                <path d="M153.0871,60.892 C148.3701,60.892 141.0801,58.962 141.0801,53.388 L141.0801,40.094 C141.0801,34.52 147.9411,32.59 152.6581,32.59 C154.8031,32.59 157.8051,33.019 160.1631,33.876 L160.1631,22.298 L165.0941,22.298 L165.0941,53.388 C165.3091,58.748 157.8051,60.892 153.0871,60.892 Z M160.1631,40.094 C158.6621,38.594 155.8751,37.521 152.6581,37.521 C149.4421,37.521 147.5131,38.594 146.0121,40.094 L146.0121,53.388 C147.5131,54.889 149.8711,55.96 153.0871,55.96 C156.3041,55.96 158.6621,54.889 160.1631,53.388 L160.1631,40.094 Z" id="Fill-20" fill="#FEFEFE"></path>
                <path d="M220.841,60.4633 L217.839,60.4633 L217.839,39.4513 L217.839,39.0223 L217.624,38.5933 C216.338,37.0923 213.551,35.3773 209.048,35.3773 C205.403,35.3773 202.402,36.4493 200.472,38.5933 L200.043,39.0223 L200.043,39.4513 L200.043,60.2493 L197.256,60.2493 L197.256,39.4513 C197.256,34.3053 204.545,32.5903 209.048,32.5903 C213.551,32.5903 220.841,34.5203 220.841,39.4513 L220.841,60.4633 Z" id="Fill-22" fill="#FEFEFE"></path>
                <path d="M265.6516,60.4633 C261.1496,60.4633 253.8596,58.5333 253.8596,53.6023 L253.8596,37.3073 L253.8596,36.0203 L252.5736,36.0203 L251.7146,36.0203 C250.8576,36.0203 250.2146,35.3773 250.2146,34.5203 C250.2146,33.6623 250.8576,33.0193 251.7146,33.0193 L252.5736,33.0193 L253.8596,33.0193 L253.8596,31.7323 L253.8596,23.5853 C253.8596,22.7273 254.5036,22.0843 255.3606,22.0843 C256.2176,22.0843 256.8616,22.7273 256.8616,23.5853 L256.8616,31.7323 L256.8616,33.0193 L258.1476,33.0193 L267.3676,33.0193 L267.3676,35.8063 L258.1476,35.8063 L256.8616,35.8063 L256.8616,37.0923 L256.8616,53.3873 L256.8616,53.8163 L257.2906,54.2453 C258.7916,55.7463 261.3636,57.4613 265.8666,57.4613 C266.7236,57.4613 267.3676,58.1043 267.3676,58.9623 C266.9386,59.8193 266.2956,60.4633 265.6516,60.4633" id="Fill-24" fill="#FEFEFE"></path>
                <path d="M298.6711,60.892 C298.4561,60.892 297.8141,60.892 297.3841,60.034 L290.3091,40.952 L289.2361,37.736 L288.1651,40.952 L281.0891,60.034 C280.8751,60.892 280.0171,60.892 279.8031,60.892 C279.5881,60.892 278.7311,60.892 278.5171,59.82 L270.3691,34.305 C270.1541,33.876 270.3691,33.448 270.5831,33.233 C270.7981,32.805 271.2271,32.59 271.8691,32.59 C272.2981,32.59 272.7281,32.805 272.9421,33.448 L278.9451,52.101 L280.0171,55.532 L281.3041,52.101 L288.1651,33.662 C288.3791,33.233 288.8081,32.59 289.4511,32.59 C290.0951,32.59 290.5241,33.233 290.7371,33.662 L297.5991,52.101 L298.8851,55.532 L299.9571,52.101 L305.9611,33.448 C306.1751,32.59 306.8181,32.59 307.0321,32.59 C307.4611,32.59 307.8911,32.805 308.3191,33.233 C308.5331,33.448 308.5331,33.876 308.5331,34.305 L300.3861,59.82 C299.7421,60.678 298.8851,60.892 298.6711,60.892" id="Fill-26" fill="#FEFEFE"></path>
                <path d="M322.0412,60.892 C317.5382,60.892 310.2492,58.962 310.2492,54.031 L310.2492,39.451 C310.2492,34.305 317.5382,32.59 322.0412,32.59 C326.5442,32.59 333.8342,34.52 333.8342,39.451 L333.8342,53.816 C333.8342,58.962 326.5442,60.892 322.0412,60.892 M322.0412,35.377 C318.3962,35.377 315.3952,36.45 313.4652,38.594 L313.0362,39.022 L313.0362,39.451 L313.0362,53.816 L313.0362,54.246 L313.4652,54.674 C314.9662,56.175 317.5382,57.89 322.0412,57.89 C326.5442,57.89 329.1162,56.175 330.6172,54.674 L331.0462,54.246 L331.0462,53.816 L331.0462,39.451 L331.0462,39.022 L330.8322,38.594 C329.3312,37.307 326.7582,35.377 322.0412,35.377" id="Fill-28" fill="#FEFEFE"></path>
                <path d="M341.3381,60.4633 L338.3361,60.4633 L338.3361,38.8083 C338.3361,33.8763 346.0551,32.5903 350.1291,32.5903 C353.5601,32.5903 356.3471,33.2333 356.9891,34.3053 C357.2041,34.5203 357.2041,34.7343 356.9891,35.3773 C356.7761,36.0203 356.3471,36.4493 355.7031,36.4493 L355.2751,36.4493 C353.5601,35.8063 351.8441,35.5913 350.1291,35.5913 C346.0551,35.5913 343.6961,36.8783 341.7671,37.9503 L341.1231,38.3793 L341.1231,39.0223 L341.1231,60.4633 L341.3381,60.4633 Z" id="Fill-30" fill="#FEFEFE"></path>
                <path d="M385.7209,60.4633 L381.6469,60.4633 L369.8549,47.1703 L368.9959,46.3123 L368.1389,47.1703 L363.8509,50.8153 L363.4219,51.2433 L363.4219,51.8863 L363.4219,60.8923 L360.4199,60.8923 L360.4199,23.7993 C360.4199,22.9423 361.0639,22.2983 361.9209,22.2983 C362.7789,22.2983 363.4219,22.9423 363.4219,23.7993 L363.4219,44.8113 L363.4219,47.3843 L365.3519,45.6693 L380.3609,33.0193 C380.5749,32.8043 381.0039,32.5903 381.2179,32.5903 C381.8619,32.5903 382.2899,33.0193 382.5039,33.6623 C382.7189,34.0903 382.7189,34.5203 382.0749,35.1633 L372.2129,43.5253 L371.3559,44.3823 L372.2129,45.2403 L385.7209,60.4633 Z" id="Fill-32" fill="#FEFEFE"></path>
                <path d="M131.8616,42.2382 L122.6416,44.3832 C119.2116,45.2402 112.7786,45.8832 112.7786,50.6002 L112.7786,54.4602 C112.7786,59.3912 120.2836,60.8922 126.0726,60.8922 C129.9316,60.8922 136.7926,59.1762 136.7926,54.4602 L136.7926,40.3082 C136.7926,34.7342 129.5026,32.8042 124.7856,32.8042 C120.9256,32.8042 118.3536,33.2332 115.5656,34.3052 C112.5646,35.3772 114.0656,39.8802 117.0666,38.8082 C118.5676,38.3792 120.7126,37.5212 124.7856,37.5212 C128.0026,37.5212 130.3606,38.5932 131.8616,40.0942 L131.8616,42.2382 Z M131.8616,53.6022 C130.3606,55.1032 128.2156,55.9602 126.0726,55.9602 C121.5696,55.9602 119.2116,55.3172 117.7106,53.8162 L117.7106,50.6002 C118.3536,50.1712 123.2846,49.0992 123.9276,49.0992 L131.8616,47.3842 L131.8616,53.6022 Z" id="Fill-34" fill="#FEFEFE"></path>
                <g id="Group-38" transform="translate(386.000000, 31.000000)">
                    <mask id="mask-4" fill="white">
                        <use xlink:href="#path-3"></use>
                    </mask>
                    <g id="Clip-37"></g>
                    <path d="M1.8645,1.8046 L0.5785,1.8046 C0.3635,1.8046 0.1495,1.5906 0.1495,1.3756 C0.1495,1.1606 0.3635,0.9466 0.5785,0.9466 L4.2225,0.9466 C4.4375,0.9466 4.6515,1.1606 4.6515,1.3756 C4.6515,1.5906 4.4375,1.8046 4.2225,1.8046 L2.9365,1.8046 L2.9365,5.8786 C2.9365,6.0926 2.9365,6.0926 2.7215,6.3066 C2.7215,6.3066 2.5085,6.5216 2.2935,6.5216 C2.0795,6.5216 1.8645,6.5216 1.8645,6.3066 C1.8645,6.3066 1.6505,6.0926 1.6505,5.8786 L1.6505,1.8046 L1.8645,1.8046 Z M5.7235,1.8046 C5.7235,1.1606 5.9385,0.9466 6.5815,0.9466 L7.0105,0.9466 C7.2245,0.9466 7.2245,1.1606 7.4395,1.3756 L8.7255,4.8056 L10.0115,1.3756 C10.0115,1.1606 10.2265,0.9466 10.4405,0.9466 L10.8695,0.9466 C11.5125,0.9466 11.7275,1.1606 11.7275,1.8046 L11.7275,6.0926 C11.7275,6.3066 11.7275,6.3066 11.5125,6.5216 C11.5125,6.5216 11.2995,6.7356 11.0845,6.7356 C10.8695,6.7356 10.8695,6.7356 10.6555,6.5216 C10.6555,6.5216 10.4405,6.3066 10.4405,6.0926 L10.4405,2.2336 L8.9395,6.0926 C8.9395,6.3066 8.7255,6.3066 8.7255,6.5216 C8.7255,6.5216 8.5105,6.7356 8.2975,6.7356 C8.0825,6.7356 8.0825,6.7356 7.8685,6.5216 C7.8685,6.5216 7.6535,6.3066 7.6535,6.0926 L6.1525,2.2336 L6.1525,6.0926 C6.1525,6.3066 6.1525,6.3066 5.9385,6.5216 C5.9385,6.5216 5.7235,6.7356 5.5105,6.7356 C5.2955,6.7356 5.2955,6.7356 5.0805,6.5216 C5.0805,6.5216 4.8665,6.3066 4.8665,6.0926 L4.8665,1.8046 L5.7235,1.8046 Z" id="Fill-36" fill="#FEFEFE" mask="url(#mask-4)"></path>
                </g>
            </g>
        </g>
    </g>
</svg>