<?xml version="1.0" encoding="UTF-8"?>
<svg width="189px" height="25px" viewBox="0 0 189 25" version="1.1" xmlns="http://www.w3.org/2000/svg" xmlns:xlink="http://www.w3.org/1999/xlink">
    <!-- Generator: Sketch 52.4 (67378) - http://www.bohemiancoding.com/sketch -->
    <title>MicroVu</title>
    <desc>Created with Sketch.</desc>
    <defs>
        <polygon id="path-1" points="0 0.725 31.725 0.725 31.725 24.9956 0 24.9956"></polygon>
        <polygon id="path-3" points="0.3611 0.725 28.9891 0.725 28.9891 24.9956 0.3611 24.9956"></polygon>
    </defs>
    <g id="Live-Site" stroke="none" stroke-width="1" fill="none" fill-rule="evenodd">
        <g id="sponsors-live" transform="translate(-924.000000, -671.000000)">
            <g id="MicroVu" transform="translate(924.000000, 670.000000)">
                <g id="Group-3" transform="translate(0.000000, 0.275100)">
                    <mask id="mask-2" fill="white">
                        <use xlink:href="#path-1"></use>
                    </mask>
                    <g id="Clip-2"></g>
                    <path d="M0,24.9956 L0,0.7246 L4.577,0.7246 L16.006,15.3966 L27.2,0.7246 L31.725,0.7246 L31.725,24.9956 L26.494,24.9956 L26.494,10.0096 C26.494,9.7216 26.521,9.3556 26.546,8.9116 C26.599,8.4666 26.625,7.9696 26.678,7.4206 C26.39,8.0486 26.128,8.5706 25.893,8.9636 C25.657,9.3556 25.447,9.6426 25.265,9.9056 L16.163,22.0666 L15.039,22.0666 L5.885,9.9046 C5.545,9.4606 5.258,9.0166 5.021,8.6226 C4.786,8.2046 4.604,7.8116 4.446,7.4456 C4.499,7.9436 4.524,8.3886 4.551,8.8066 C4.577,9.2246 4.577,9.6166 4.577,10.0096 L4.577,24.9956 L0,24.9956 Z" id="Fill-1" fill="#FEFEFE" mask="url(#mask-2)"></path>
                </g>
                <polygon id="Fill-4" fill="#FEFEFE" points="37.9717 25.2707 37.9717 25.2707 42.8097 25.2707 42.8097 5.2677 37.9717 5.2677"></polygon>
                <path d="M65.4903,9.0276 L52.8003,9.0276 L52.8003,21.4536 L65.4903,21.4536 L65.4903,17.2676 L70.2363,18.2616 L70.2363,20.5636 C70.2363,22.3696 69.8813,23.6256 69.1953,24.2786 C68.4843,24.9596 67.1393,25.2726 65.1603,25.2726 L53.1043,25.2726 C51.1503,25.2726 49.8553,24.9596 49.1443,24.3046 C48.4603,23.6506 48.1043,22.3946 48.1043,20.5636 L48.1043,10.0486 C48.1043,8.2436 48.4603,6.9876 49.1443,6.3336 C49.8303,5.6796 51.1503,5.3396 53.1043,5.3396 L65.1603,5.3396 C67.1653,5.3396 68.5113,5.6796 69.1953,6.3336 C69.8813,6.9876 70.2363,8.2436 70.2363,10.0486 L70.2363,11.9846 L65.4903,12.6896 L65.4903,9.0276 Z" id="Fill-6" fill="#FEFEFE"></path>
                <path d="M75.6729,5.342 L75.6729,25.27 L80.2969,25.27 L80.2969,17.676 L84.6119,17.676 L92.5439,25.27 L99.1569,25.27 L90.1609,17.676 L92.7399,17.676 C94.3099,17.676 95.4339,17.391 96.1309,16.762 C96.8279,16.187 97.1679,15.238 97.1679,13.878 L97.1679,9.197 C97.1679,7.837 96.8279,6.856 96.1309,6.253 C95.4339,5.653 94.3099,5.341 92.7399,5.341 L75.6729,5.341 L75.6729,5.342 Z M80.2969,8.756 L90.8059,8.756 C91.6039,8.756 92.1329,8.901 92.4319,9.139 C92.7309,9.401 92.8799,9.773 92.8799,10.375 L92.8799,12.671 C92.8799,13.247 92.7309,13.672 92.4319,13.907 C92.1329,14.144 91.6039,14.261 90.8059,14.261 L80.2969,14.261 L80.2969,8.756 Z" id="Fill-8" fill="#FEFEFE"></path>
                <path d="M107.1534,5.3489 C106.2504,5.3489 104.3414,5.3729 103.4134,6.3489 C102.4234,7.3869 102.4384,10.0569 102.4384,10.0569 L102.4384,20.5629 C102.4384,22.3939 102.7684,23.6199 103.4144,24.3009 C104.0594,24.9539 105.2884,25.2709 107.1544,25.2709 L121.3084,25.2709 C123.1494,25.2709 124.3764,24.9539 125.0214,24.3009 C125.6684,23.6199 126.0174,22.3939 126.0174,20.5629 L126.0174,10.0569 C126.0174,8.2529 125.6704,7.0029 125.0494,6.3499 C124.4024,5.6959 123.1744,5.3499 121.3084,5.3499 L107.1544,5.3499 L107.1534,5.3489 Z M106.8844,21.4339 L121.5764,21.4339 L121.5764,9.0159 L106.8844,9.0159 L106.8844,21.4339 Z" id="Fill-10" fill="#FEFEFE"></path>
                <g id="Group-14" transform="translate(135.000000, 0.275100)">
                    <mask id="mask-4" fill="white">
                        <use xlink:href="#path-3"></use>
                    </mask>
                    <g id="Clip-13"></g>
                    <polygon id="Fill-12" fill="#FEFEFE" mask="url(#mask-4)" points="13.2041 24.9956 0.3611 0.7246 6.2681 0.7246 15.2621 18.2746 23.8481 0.7246 28.9891 0.7246 16.7681 24.9956"></polygon>
                </g>
                <path d="M170.6329,5.3371 L170.6329,21.5331 L183.6529,21.5331 L183.6529,5.3371 L188.2289,5.3371 L188.2289,20.5391 C188.2289,22.3701 187.8869,23.6001 187.2009,24.2801 C186.5169,24.9611 185.2189,25.2741 183.3109,25.2741 L170.9759,25.2741 C169.0669,25.2741 167.7939,24.9611 167.1329,24.3071 C166.4729,23.6271 166.1299,22.3701 166.1299,20.5391 L166.1299,5.3371 L170.6329,5.3371 Z" id="Fill-15" fill="#FEFEFE"></path>
                <path d="M133.5625,12.8508 C135.0415,12.8508 136.2405,14.0488 136.2405,15.5278 C136.2405,17.0068 135.0415,18.2048 133.5625,18.2048 C132.0835,18.2048 130.8855,17.0068 130.8855,15.5278 C130.8855,14.0488 132.0835,12.8508 133.5625,12.8508" id="Fill-17" fill="#FEFEFE"></path>
            </g>
        </g>
    </g>
</svg>