<?xml version="1.0" encoding="UTF-8"?>
<svg width="127px" height="35px" viewBox="0 0 127 35" version="1.1" xmlns="http://www.w3.org/2000/svg" xmlns:xlink="http://www.w3.org/1999/xlink">
    <!-- Generator: Sketch 52.4 (67378) - http://www.bohemiancoding.com/sketch -->
    <title>splunk</title>
    <desc>Created with Sketch.</desc>
    <defs>
        <polygon id="path-1" points="0.0930852271 0.08596 19.0219218 0.08596 19.0219218 20.2448831 0.0930852271 20.2448831"></polygon>
    </defs>
    <g id="Live-Site" stroke="none" stroke-width="1" fill="none" fill-rule="evenodd">
        <g id="sponsors-live" transform="translate(-810.000000, -748.000000)">
            <g id="splunk" transform="translate(810.000000, 748.000000)">
                <path d="M0,24.7835754 C0.374736395,24.2395138 0.74914881,23.6954523 1.12410119,23.1517138 C1.76968452,22.2155446 1.53857908,22.21716 2.4686165,22.8724677 C3.66129337,23.7128985 4.94943622,24.1402215 6.39902891,23.9981754 C7.30789966,23.9092215 8.01190731,23.4418369 8.3263835,22.5647908 C8.63081633,21.7157446 8.41396599,20.9236677 7.73047704,20.3433138 C6.77981293,19.5360523 5.78659949,18.77736 4.7926301,18.02276 C3.7846216,17.2572831 2.75544643,16.5119446 1.96558418,15.5126677 C0.532622449,13.69956 0.953903912,10.9545908 2.85372024,9.50688308 C4.10114966,8.55628308 5.49922959,8.08017538 7.07593027,8.05756 C8.94388861,8.03063692 10.7447832,8.28328308 12.4357406,9.11703692 C12.6139294,9.20502154 12.7857466,9.30560615 13.0387747,9.44280615 C12.5798036,10.18416 12.1434031,10.8970831 11.6922075,11.6005292 C11.6593776,11.6516831 11.5027874,11.6699908 11.42946,11.6402677 C11.1832355,11.5404369 10.9462985,11.4162677 10.7100094,11.2934985 C9.80513435,10.8235292 8.82315221,10.7484677 7.84117007,10.82536 C7.08424575,10.8845908 6.43995833,11.2527908 6.14816071,12.0007138 C5.87083418,12.7113754 6.12796599,13.3204831 6.68110714,13.8016523 C7.22798469,14.2775446 7.78641752,14.7416985 8.35856548,15.1867908 C9.36560204,15.9698215 10.4050366,16.71236 11.3971701,17.51316 C12.4079864,18.3290369 13.2446097,19.2886831 13.4352177,20.6394677 C13.7453741,22.8378985 12.8063733,24.7067908 10.8296658,25.8194677 C9.32586054,26.6659292 7.68738776,26.92816 5.97893537,26.9068369 C3.75621939,26.8789446 1.79819473,26.11196 0,24.8643446 L0,24.7835754 Z" id="Fill-1" fill="#FEFEFE"></path>
                <path d="M20.7003088,17.0583323 C20.7076524,18.9836554 21.062842,20.4963015 21.7346677,21.7270092 C22.7020707,23.4995169 24.4955138,24.1182092 26.2045061,23.79104 C27.6059338,23.5225631 28.5003335,22.5383631 29.0600622,21.2915015 C29.7954959,19.6531785 30.0491719,17.9079169 29.9646133,16.1194708 C29.9019772,14.7952862 29.6156872,13.5227938 28.9304704,12.3671477 C28.4263582,11.51724 27.7862825,10.7825631 26.809484,10.4916862 C24.8348284,9.90390154 22.9642782,10.5227015 21.8449287,12.3759785 C20.9489092,13.8595477 20.7342187,15.5083169 20.7003088,17.0583323 Z M16.2253947,8.07582462 L20.7644568,8.07582462 L20.7644568,10.3291785 C20.9733156,10.1269323 21.1129509,9.99630154 21.2475104,9.86060923 C22.1627527,8.93779385 23.143223,8.10393231 24.4037196,7.68565538 C25.6148633,7.28364 26.8590529,7.30097846 28.1166337,7.40134769 C29.8372893,7.53876308 31.2422808,8.32007077 32.4488888,9.47862462 C33.715757,10.6952246 34.4365036,12.2345785 34.8003327,13.9271785 C35.3097366,16.2964092 35.2137306,18.6464708 34.3295903,20.9230862 C33.3775223,23.3747015 31.8149687,25.3089631 29.2904117,26.2584862 C27.0121872,27.1152862 24.7372026,27.1557785 22.6456983,25.6851323 C22.0015189,25.2321785 21.4377944,24.6652862 20.7921031,24.1117477 L20.7921031,34.9704708 L16.2253947,34.9704708 L16.2253947,8.07582462 Z" id="Fill-3" fill="#FEFEFE"></path>
                <path d="M91.3449444,15.4906877 C92.145174,14.6251646 92.9451876,13.7595338 93.7456332,12.8943338 C95.1900422,11.3327954 96.6329393,9.76974923 98.0847998,8.21499538 C98.1583432,8.13627231 98.33664,8.06519538 98.4211986,8.09976462 C99.5450838,8.55939538 100.66087,9.03862615 101.863374,9.54898 C99.8068594,11.8652262 97.8099571,14.1141646 95.7833568,16.3967031 C98.1831816,19.46798 100.585706,22.54238 103.03024,25.6707338 C102.522024,25.8646877 102.046314,26.0542262 101.564989,26.2283646 C100.711086,26.5373338 99.8480048,26.8219646 99.0016621,27.1496723 C98.7505779,27.2469185 98.6342692,27.21978 98.4777871,27.0029954 C97.017827,24.9804262 95.5443679,22.9677646 94.0770643,20.9503646 C93.1909801,19.7321492 92.3092156,18.5105954 91.4253993,17.2905492 C91.3907335,17.2977646 91.3559597,17.3051954 91.3211859,17.3124108 L91.3211859,26.9150108 L86.4153789,26.9150108 L86.4153789,1.07692308e-05 L91.2567139,1.07692308e-05 L91.2567139,15.4512723 L91.3449444,15.4906877 Z" id="Fill-5" fill="#FEFEFE"></path>
                <path d="M70.2107621,26.9005046 L65.5312009,26.9005046 L65.5312009,8.07901231 L70.2080622,8.07901231 L70.2080622,10.7226431 C70.7589355,10.2401815 71.2332417,9.81124308 71.7220189,9.39932 C73.2455869,8.11541231 75.0402179,7.73127385 76.9851753,7.79976615 C78.0738548,7.83810462 79.1394236,7.96432 80.0805844,8.53735077 C81.689683,9.51713538 82.6996354,10.9372738 82.7614075,12.8424585 C82.8708046,16.2175354 82.8837638,19.5956277 82.9394883,22.97232 C82.958927,24.1426123 82.9862493,25.3126892 83.0092519,26.4828738 C83.0118437,26.6141508 83.0095759,26.7455354 83.0095759,26.8716431 L78.2840095,26.8716431 L78.2840095,26.3579508 C78.2840095,22.1046431 78.2842255,17.8513354 78.2839015,13.5980277 C78.2839015,12.1974892 77.2798888,11.1316585 75.8733854,11.0404431 C74.5028437,10.9514892 73.1712876,11.0935354 72.0304474,11.9283662 C70.9200614,12.7407969 70.2043905,13.8124431 70.2030946,15.2434585 C70.1995308,18.9713354 70.2074143,22.6992123 70.2106541,26.4270892 C70.2108701,26.5724738 70.2107621,26.7178585 70.2107621,26.9005046" id="Fill-7" fill="#FEFEFE"></path>
                <path d="M56.6964286,8.08032615 L61.3525553,8.08032615 L61.3525553,26.9037569 L56.7192151,26.9037569 L56.7192151,24.2259877 C56.2636998,24.6229415 55.8692007,24.9483877 55.4952202,25.2959108 C53.8033988,26.8684338 51.7640553,27.3105108 49.5285961,27.1635108 C48.3944515,27.08888 47.3099838,26.8643415 46.3885859,26.1687569 C44.9886701,25.1118646 44.1518308,23.7227415 44.084767,21.9446338 C44.0300145,20.4929415 44.0179192,19.0394185 43.9995604,17.5864338 C43.9615468,14.5724492 43.9320646,11.5584646 43.8993427,8.54458769 C43.8977228,8.39877231 43.8991267,8.25306462 43.8991267,8.10541846 L48.5970468,8.10541846 L48.5970468,8.57829538 C48.5970468,12.7506185 48.6345204,16.92348 48.57804,21.0952646 C48.5565493,22.6855569 49.8889694,23.8552031 51.05454,23.9424338 C52.3844762,24.0420492 53.7023172,23.87728 54.8222066,23.0727108 C56.006892,22.2216185 56.7076599,21.0797569 56.7038801,19.56808 C56.6949167,15.9072954 56.6981565,12.2464031 56.6964286,8.58540308 C56.6963206,8.42601846 56.6964286,8.26652615 56.6964286,8.08032615" id="Fill-9" fill="#FEFEFE"></path>
                <g id="Group-13" transform="translate(107.885204, 6.647415)">
                    <mask id="mask-2" fill="white">
                        <use xlink:href="#path-1"></use>
                    </mask>
                    <g id="Clip-12"></g>
                    <path d="M0.101556803,20.2448831 C0.101556803,19.0370062 0.0941052721,17.8806062 0.113112075,16.7246369 C0.115055952,16.6090831 0.253827211,16.4409754 0.369919898,16.3902523 C3.1670517,15.1693446 5.96969116,13.9611446 8.77125068,12.7506831 C11.1647039,11.7166215 13.5583731,10.6826677 15.9517184,9.64796 C16.0328213,9.61263692 16.1107923,9.56977538 16.2523714,9.49977538 C16.0720228,9.42826769 15.9550662,9.37506769 15.8338978,9.33479077 C10.7286274,7.63691385 5.62432891,5.93634462 0.514522789,4.25214462 C0.183847619,4.14305231 0.0873017007,3.99734462 0.0933493197,3.66220615 C0.114192007,2.49256 0.101340816,1.32237538 0.101340816,0.08596 C0.302316156,0.151867692 0.462038095,0.200544615 0.619168197,0.256544615 C6.63330935,2.39585231 12.6470185,4.53699077 18.6628876,6.67177538 C18.9079241,6.75868308 19.0250968,6.85808308 19.021857,7.14928308 C19.0040381,8.72406769 19.0096537,10.2991754 19.0177532,11.8740677 C19.0189412,12.0894523 18.9647286,12.2114677 18.7529539,12.3017138 C12.6039293,14.9215446 6.45749643,17.5480523 0.310631633,20.1729446 C0.263222619,20.1932985 0.213005782,20.20676 0.101556803,20.2448831" id="Fill-11" fill="#FEFEFE" mask="url(#mask-2)"></path>
                </g>
                <path d="M40.4750944,26.90324 L36.4421964,26.90324 C36.3825842,17.9355938 36.3229719,8.98044 36.2632517,0.00622461538 L40.4750944,0.00622461538 L40.4750944,26.90324 Z" id="Fill-14" fill="#FEFEFE"></path>
            </g>
        </g>
    </g>
</svg>