<?xml version="1.0" encoding="UTF-8"?>
<svg width="106px" height="35px" viewBox="0 0 106 35" version="1.1" xmlns="http://www.w3.org/2000/svg" xmlns:xlink="http://www.w3.org/1999/xlink">
    <!-- Generator: Sketch 52.4 (67378) - http://www.bohemiancoding.com/sketch -->
    <title>tech</title>
    <desc>Created with Sketch.</desc>
    <defs>
        <polygon id="path-1" points="1.240356e-05 0.0576684847 10.8673337 0.0576684847 10.8673337 10.9235669 1.240356e-05 10.9235669"></polygon>
    </defs>
    <g id="Live-Site" stroke="none" stroke-width="1" fill="none" fill-rule="evenodd">
        <g id="sponsors-live" transform="translate(-100.000000, -937.000000)">
            <g id="tech" transform="translate(100.000000, 937.000000)">
                <path d="M105.817139,12.1452675 C105.726346,12.6513185 105.627949,13.1560318 105.545877,13.6636433 C105.139768,16.1693758 104.736789,18.6757771 104.334481,21.1824013 C103.949168,23.582465 103.566316,25.9829745 103.181898,28.3828153 C102.856295,30.4145987 102.530244,32.4457134 102.203076,34.476828 C102.193459,34.5367962 102.171544,34.594758 102.154324,34.6576242 L95.5306662,34.6576242 C95.6601473,33.850172 95.7858266,33.0603312 95.9132949,32.2711592 C96.3538435,29.5456178 96.7941684,26.8202994 97.2362823,24.0952038 C97.622489,21.7129745 98.0142865,19.3316369 98.3902063,16.9478471 C98.4181599,16.7706178 98.378354,16.5577197 98.3012021,16.3936433 C98.062143,15.8862548 97.7861852,15.3962548 97.5328139,14.8955541 C97.4648308,14.7613503 97.3856662,14.7040573 97.226219,14.7047261 C95.8307759,14.7116369 94.4353329,14.7065096 93.0398899,14.7131975 C92.9329954,14.7136433 92.8104468,14.7533248 92.7214426,14.8137389 C92.0342316,15.2801083 91.3499278,15.7507134 90.6752401,16.2349172 C90.5750544,16.3067006 90.487392,16.4495987 90.4672654,16.5713185 C89.9115481,19.9547261 89.3645523,23.3392484 88.8171093,26.7239936 C88.4007127,29.2997261 87.9845397,31.8754586 87.5732865,34.4523057 C87.5504764,34.5943121 87.5278899,34.6763503 87.3536831,34.6759045 C85.1173962,34.6703312 82.8811093,34.6714459 80.645046,34.6703312 C80.6193287,34.6703312 80.5936114,34.6598535 80.5412823,34.6482611 C80.639008,34.0528153 80.7358392,33.4589299 80.8342359,32.8654904 C81.273219,30.2210955 81.7124257,27.5769236 82.1518561,24.9327516 C82.5360502,22.6225287 82.9206916,20.3120828 83.3042148,18.0016369 C83.7796494,15.1376561 84.2530713,12.2734522 84.7289532,9.40947134 C85.1493751,6.87943949 85.5731515,4.3498535 85.9931262,1.81982166 C86.0937591,1.21389809 86.1852232,0.606636943 86.2811599,4.45859873e-05 L93.1508097,4.45859873e-05 C92.6521177,3.07603185 92.1534257,6.15201911 91.6460122,9.28217834 C91.7605101,9.20638217 91.8215608,9.17138217 91.8765734,9.12835669 C92.6080629,8.55698726 93.3350797,7.98004459 94.0726072,7.41692357 C94.1833034,7.33243312 94.3414089,7.26622293 94.4778224,7.26555414 C96.9542865,7.25663694 99.4307506,7.26042675 101.907215,7.25596815 C102.076054,7.25552229 102.18362,7.30612739 102.286936,7.4432293 C103.187713,8.64058599 104.094751,9.83326115 105.004472,11.0239299 C105.267683,11.3679108 105.545877,11.7002994 105.817139,12.0382611 L105.817139,12.1452675 Z" id="Fill-1" fill="#FFFFFF"></path>
                <path d="M25.096238,4.45859873e-05 C24.9788329,0.71988535 24.8659004,1.44084076 24.7433519,2.16001274 C24.4546473,3.85338854 24.16147,5.54609554 23.8644911,7.27112739 L30.1055207,7.27112739 C29.7530819,9.45628662 29.4062338,11.6048854 29.0553603,13.7793439 L22.3243603,13.7793439 C22.2261873,14.3415732 22.1298034,14.8812866 22.0374447,15.4218917 C21.5620101,18.2040573 21.0841156,20.986 20.6149426,23.7692803 C20.4537063,24.7263185 20.3152802,25.6873694 20.1665671,26.646414 C20.1652253,26.6553312 20.1632127,26.6640255 20.1625418,26.6729427 C20.1433097,26.8960955 20.8428203,27.6946306 21.0677907,27.6955223 C21.8907443,27.6990892 22.7134743,27.6968599 23.5364278,27.6968599 C23.545373,27.6968599 23.5543181,27.6970828 23.5632633,27.6961911 C23.7844321,27.6785796 24.7004152,26.8633248 24.7370903,26.6430701 C24.7912084,26.3182611 24.8442084,25.9927834 24.8826726,25.6657452 C24.9005629,25.5145987 24.9513266,25.4477197 25.1143519,25.4479427 C27.2699089,25.4519554 29.4254658,25.4506178 31.5810228,25.4519554 C31.6322338,25.4519554 31.6834447,25.4682293 31.7505333,25.4798217 C31.615238,26.2892803 31.4819553,27.0871465 31.3482253,27.8852357 C31.2686135,28.3591847 31.2017485,28.8362548 31.1015629,29.3057452 C31.0606388,29.4963503 30.9819215,29.7007771 30.8595966,29.8492484 C29.62293,31.3509045 28.3757527,32.8440892 27.1223139,34.3323694 C27.0444911,34.4244395 26.8915291,34.5042484 26.7734532,34.5046943 C23.4731409,34.5138344 20.1726051,34.5136115 16.8722928,34.5051401 C16.7620439,34.5046943 16.6142253,34.4295669 16.5478076,34.3417325 C15.4090903,32.8313822 14.2768582,31.3163503 13.1560312,29.7928471 C13.068816,29.6740255 13.0240903,29.4778471 13.0477949,29.331828 C13.6068667,25.9042803 14.1775671,22.4787389 14.747373,19.0529745 C15.0246726,17.384121 15.3042084,15.7159363 15.5821789,14.0470828 C15.593584,13.9773057 15.597162,13.9061911 15.6076726,13.8027516 L12.0564489,13.8027516 C12.4109004,11.6093439 12.7590903,9.45428025 13.110411,7.27959873 L16.5482549,7.27959873 C16.7070312,6.35778344 16.8631241,5.45603185 17.0176515,4.55405732 C17.2779553,3.03612739 17.5371409,1.51797452 17.7969975,4.45859873e-05 L25.096238,4.45859873e-05 Z" id="Fill-3" fill="#FFFFFF"></path>
                <g id="Group-7" transform="translate(0.000000, 24.067516)">
                    <mask id="mask-2" fill="white">
                        <use xlink:href="#path-1"></use>
                    </mask>
                    <g id="Clip-6"></g>
                    <path d="M5.23794304,10.9236115 C4.88975316,10.8638662 4.53820886,10.8195032 4.1940443,10.7423694 C2.04653797,10.259949 0.366415612,8.43950318 0.05557173,6.26838854 C-0.359259494,3.37096815 1.59212447,0.660140127 4.46418776,0.143834395 C7.43487131,-0.390305732 10.298884,1.61606369 10.7928797,4.57746497 C11.2846392,7.52459873 9.28830591,10.3185796 6.34356329,10.8045669 C6.10025527,10.8446943 5.85694726,10.8839299 5.61363924,10.9236115 L5.23794304,10.9236115 Z" id="Fill-5" fill="#FFFFFF" mask="url(#mask-2)"></path>
                </g>
                <path d="M42.1617907,17.5002675 L42.5137823,17.5002675 C44.6856641,17.5002675 46.857546,17.4909045 49.0292042,17.508293 C49.4382211,17.5118599 49.7571156,17.4271465 50.0540945,17.1313185 C50.2593857,16.9271146 50.4020608,16.7342803 50.4503646,16.4426879 C50.5449595,15.8724331 50.6777949,15.3084204 50.7936346,14.7415096 C50.9890861,13.7849172 50.9919932,13.7820191 50.3389975,13.0619554 C50.2667654,12.9823694 50.1312464,12.9183885 50.0245755,12.9179427 C48.0494869,12.9094713 46.0741747,12.9112548 44.0990861,12.9123694 C43.853989,12.9125924 42.8977527,13.6959682 42.8490017,13.9440892 C42.6197823,15.1135796 42.3961536,16.2839618 42.1617907,17.5002675 Z M40.7844616,23.3760318 C40.6100312,24.4900127 40.4382844,25.5705541 40.2757063,26.6526561 C40.2645249,26.7273376 40.3195376,26.812051 40.3448076,26.8918599 C40.3472675,26.8994395 40.3580017,26.904121 40.3624743,26.9114777 C40.7410776,27.515172 41.256989,27.7133567 41.9916093,27.6863822 C43.679335,27.6246306 45.3713097,27.6765732 47.0614954,27.6696624 C47.2169173,27.6689936 47.3884405,27.6021146 47.5235122,27.5191847 C47.7737527,27.365586 47.9915671,27.1584841 48.2438203,27.0086752 C48.4949553,26.859535 48.5861958,26.6542166 48.6105713,26.3784522 C48.6387485,26.0616688 48.7013646,25.7480064 48.7494447,25.4289936 L55.8997485,25.4289936 C55.7657949,26.2395669 55.6347485,27.0365414 55.5023603,27.8335159 C55.4223013,28.316828 55.3561072,28.8030382 55.2516726,29.281 C55.2064996,29.4874331 55.1197316,29.7094713 54.9851072,29.8677516 C53.6661451,31.4171146 52.3322,32.9531019 51.0069764,34.4973376 C50.8985165,34.6237389 50.7900565,34.6767962 50.6200987,34.6765732 C46.10347,34.6716688 41.5868414,34.6716688 37.0702127,34.6761274 C36.8924278,34.6763503 36.7812844,34.6252994 36.6721536,34.4792803 C35.5054827,32.9230064 34.3274068,31.3749809 33.163643,29.8167006 C33.0800059,29.7047898 33.032373,29.5199809 33.0545122,29.382879 C33.391297,27.2906815 33.7432886,25.2007134 34.0903603,23.1100764 C34.5293435,20.4663503 34.9667612,17.8219554 35.405297,15.1780064 C35.5654152,14.212051 35.7244152,13.2456497 35.892584,12.280586 C35.9075671,12.1949809 35.9686177,12.1002357 36.0366008,12.0431656 C37.8799722,10.4893439 39.7255797,8.93842038 41.5770017,7.39418471 C41.669584,7.31682803 41.8149426,7.26466242 41.9357021,7.26466242 C45.978238,7.25797452 50.0209975,7.25775159 54.063757,7.26622293 C54.1833983,7.26644586 54.3417274,7.34112739 54.4168667,7.43364331 C55.6197654,8.91701911 56.8141662,10.4075287 58.0016346,11.9029427 C58.0725249,11.9925605 58.1161325,12.1459363 58.0980186,12.2576242 C57.7328329,14.5074331 57.3580312,16.7559045 56.9785333,19.0032611 C56.9626557,19.0977834 56.9036177,19.2052357 56.8309384,19.2667643 C55.2402675,20.6076879 53.6471367,21.9457134 52.0461789,23.2741529 C51.9509131,23.353293 51.7863224,23.3789299 51.6539342,23.3791529 C48.1478835,23.3822739 44.6420565,23.378707 41.1360059,23.3760318 L40.7844616,23.3760318 Z" id="Fill-8" fill="#FFFFFF"></path>
                <path d="M80.2297675,25.4186274 C80.146354,25.9092962 80.069873,26.3718758 79.9886958,26.8335637 C79.8339447,27.7105701 79.6794173,28.5875764 79.5170629,29.4630223 C79.4989489,29.5613344 79.451316,29.6670032 79.3857928,29.7421306 C77.9984004,31.3387548 76.6083245,32.9327038 75.211316,34.5208567 C75.140873,34.6008885 75.0049068,34.666207 74.899354,34.6664299 C70.3467211,34.6737866 65.7938646,34.6737866 61.2414553,34.6655382 C61.1316536,34.6655382 60.9867422,34.5879586 60.9178646,34.5001242 C59.6946156,32.9418439 58.4776283,31.3784363 57.2709278,29.807672 C57.1863962,29.6975446 57.1389869,29.5109522 57.1615734,29.3740732 C57.8608603,25.1216847 58.5719996,20.8710796 59.2791135,16.6195828 C59.5204089,15.1700924 59.7525354,13.7192643 59.9987506,12.2706656 C60.0191008,12.1511752 60.0935692,12.0167484 60.1848097,11.9367166 C61.9165903,10.417672 63.6532907,8.90375478 65.3960291,7.39719427 C65.4919658,7.31448726 65.6500713,7.26477389 65.7793287,7.26455096 C70.1262232,7.25786306 74.4733414,7.26009236 78.8202359,7.25541083 C78.9931008,7.2551879 79.0928392,7.31203503 79.1898941,7.45248089 C80.2031557,8.92069745 81.2271515,10.3813344 82.2361641,11.852449 C82.3209194,11.9761752 82.3714595,12.1670032 82.348873,12.3127994 C82.1505143,13.5888503 81.9295692,14.8611115 81.722489,16.1356019 C81.6996789,16.275379 81.6571895,16.3380223 81.5071346,16.3375764 C79.1011135,16.329328 76.695316,16.3248694 74.2897422,16.3188503 C74.255527,16.3186274 74.2215354,16.3056975 74.1736789,16.2956656 C74.2083414,15.9001879 74.2197464,15.5078312 74.2839278,15.1243917 C74.3333498,14.8294554 74.2414384,14.6074172 74.1110629,14.3506019 C73.8885523,13.9123217 73.5926916,13.7827994 73.1000376,13.7926083 C71.2940122,13.8276083 69.4868688,13.803086 67.6801726,13.812672 C67.5334722,13.8133408 67.3702232,13.876207 67.2443203,13.9562389 C66.9732823,14.1281178 66.7308688,14.3445828 66.4589363,14.5144554 C66.2545397,14.6424172 66.1865565,14.8138503 66.1509996,15.0367803 C65.7495861,17.5516529 65.3412401,20.0651879 64.9346831,22.5793917 C64.6989785,24.0386911 64.4634975,25.4977675 64.2280165,26.9572898 C64.2237675,26.9838185 64.2199658,27.0105701 64.2197422,27.0370987 C64.2177295,27.255793 64.9563751,28.0170987 65.1770966,28.0173217 C67.11797,28.0186592 69.0590671,28.0179904 70.9999405,28.0179904 C71.0178308,28.0179904 71.03997,28.0244554 71.0529405,28.0164299 C71.3297928,27.8449968 71.615143,27.6849331 71.8785776,27.4949968 C72.1359743,27.309742 72.4521852,27.182672 72.467392,26.7680223 C72.481257,26.3975127 72.5970966,26.0316847 72.636008,25.6605064 C72.6579236,25.4518439 72.7505059,25.4253153 72.9296325,25.4257611 C74.5129236,25.4279904 76.0959911,25.4217484 77.678835,25.4188503 C78.4212823,25.4175127 79.1635059,25.4186274 79.9061768,25.4186274 L80.2297675,25.4186274 Z" id="Fill-10" fill="#FFFFFF"></path>
            </g>
        </g>
    </g>
</svg>