<?xml version="1.0" encoding="UTF-8"?>
<svg width="2498px" height="2500px" viewBox="0 0 2498 2500" version="1.1" xmlns="http://www.w3.org/2000/svg" xmlns:xlink="http://www.w3.org/1999/xlink">
    <!-- Generator: Sketch 52.4 (67378) - http://www.bohemiancoding.com/sketch -->
    <title>wolfram-language-1-logo-svg-vector</title>
    <desc>Created with Sketch.</desc>
    <g id="Page-1" stroke="none" stroke-width="1" fill="none" fill-rule="evenodd">
        <g id="wolfram-language-1-logo-svg-vector" transform="translate(0.437514, 0.000000)" fill="#FFFFFF">
            <path d="M1170.90956,2499.22499 C1103.04723,2494.21876 1010.15371,2478.6438 940.622633,2461.40009 C443.892626,2335.6879 77.8810425,1921.83894 7.79371798,1406.75273 C-3.33125418,1328.32168 -1.66250835,1150.87837 10.574961,1073.00356 C74.5435509,655.817108 326.52417,310.386723 700.879483,126.824683 C1046.30987,-42.2748942 1451.25885,-42.2748942 1796.68924,126.824683 C2171.04455,310.386723 2423.02517,655.817108 2486.99376,1073.00356 C2499.23123,1150.87837 2500.89998,1328.32168 2489.77501,1406.75273 C2433.03765,1825.05168 2181.61328,2180.49454 1810.59546,2366.28158 C1640.93963,2451.38761 1473.5088,2493.10626 1282.15928,2498.66875 C1237.65939,2500.33749 1187.59701,2500.33749 1170.90956,2499.22499 Z M1370.04656,2368.50657 C1477.40254,2356.82535 1642.60838,2312.88171 1639.27088,2297.30675 C1638.15839,2292.85676 1557.50234,2156.0196 1460.15883,1993.03876 L1282.71553,1697.67075 L1228.20316,1693.77701 C1198.16574,1692.10826 1144.76587,1687.65828 1109.72221,1683.76454 C1031.8474,1676.5333 837.160392,1680.98329 734.2544,1693.22076 C632.460904,1704.90198 636.354645,1705.45823 640.248385,1683.76454 C654.1546,1603.10849 691.423257,1513.55246 732.029405,1462.37759 C749.829361,1439.5714 753.166852,1432.34016 747.604366,1428.44642 C737.035643,1421.77144 621.335932,1384.50278 611.323457,1384.50278 C601.310982,1384.50278 601.310982,1382.27779 611.879706,1362.80909 C628.010916,1331.10292 715.341947,1270.47182 797.666741,1233.20316 L833.266652,1217.6282 L813.797951,1240.99064 C788.210515,1272.69681 753.723101,1324.42793 753.723101,1331.65917 C753.723101,1334.99666 765.96057,1340.0029 780.423034,1343.89664 C806.01047,1350.01537 903.910225,1393.95901 903.910225,1399.5215 C903.910225,1401.19024 889.447761,1418.9902 871.091557,1439.01515 C822.14168,1494.64001 762.623079,1589.75852 771.523056,1598.6585 C773.191802,1600.32724 786.541769,1598.6585 801.560481,1595.87726 C816.579194,1592.53976 868.866563,1588.64602 917.81644,1586.97728 C1001.25373,1584.19603 1033.51615,1586.42103 1451.8151,1628.69592 C1696.56449,1653.17086 1906.27022,1674.86456 1917.39519,1676.5333 C1937.97639,1679.31455 1938.53264,1678.7583 1980.80753,1626.47093 C2029.20116,1565.83983 2029.75741,1563.05859 1998.05124,1504.09624 C1982.47628,1475.17131 1975.24504,1468.49632 1941.31388,1449.58387 C1789.45801,1365.03408 1566.40232,1197.047 1366.70907,1015.70996 C1240.44063,901.122744 1230.42816,888.885275 1210.40321,828.254177 C1195.3845,782.085542 1070.78481,352.105369 1070.78481,346.542883 C1070.78481,345.430385 1067.44732,344.317888 1063.55358,344.317888 C1051.31611,344.317888 985.67877,416.073959 956.753843,460.573847 C921.71018,514.529962 896.122744,570.154823 846.616618,700.316997 C784.873023,862.185342 772.079305,887.216529 734.810648,922.81644 C717.010693,939.503898 687.529517,975.660058 669.173313,1003.47249 C572.942303,1147.54088 500.629984,1347.79038 400.505235,1748.84562 L354.892849,1932.40766 L379.367788,1964.11383 C416.080196,2010.28247 521.767431,2111.51971 574.054801,2150.45712 C735.366897,2270.05057 925.603921,2345.70038 1120.84718,2368.50657 C1181.47828,2375.18155 1307.74671,2375.7378 1370.04656,2368.50657 Z M1906.82646,2162.13834 C1970.79505,2116.52595 2073.70105,2019.18245 2123.76342,1957.43885 C2431.3689,1576.40855 2456.40009,1034.06616 2186.06327,628.004678 C2045.88862,417.742704 1843.97037,263.105591 1603.67097,182.449543 C1338.89664,94.0060147 1032.40365,110.693473 779.866785,226.949432 C633.017153,294.255513 491.730007,401.611495 391.605257,521.204945 C216.386946,730.910671 125.718423,977.885052 125.162174,1246.55313 C125.162174,1408.42147 151.862107,1543.03364 214.161951,1692.10826 C224.174426,1716.02695 234.186901,1733.82691 236.411896,1731.04567 C239.193139,1728.82067 260.330586,1675.42081 283.693027,1613.12096 C414.967699,1264.35309 542.34863,1017.3787 673.623301,856.066607 C699.766986,823.804188 713.673201,800.441746 722.573179,773.741813 C782.648029,597.967253 884.441524,408.842727 982.897527,291.47427 C1018.49744,248.643128 1081.35353,186.343284 1085.24727,190.237024 C1085.80352,190.793272 1115.84094,281.461796 1151.9971,391.59902 C1188.15326,501.736244 1218.19069,592.961016 1218.74694,593.517264 C1222.08443,599.079751 1247.11562,576.829806 1361.70283,465.580085 L1486.30252,344.874137 L1490.19626,384.924037 C1504.10247,542.342393 1510.77746,686.967031 1510.77746,843.272889 L1511.3337,1022.38494 L1561.95233,1066.32858 C1672.08955,1160.89084 1813.3767,1264.35309 2027.53241,1406.19648 C2102.62597,1456.25885 2166.03832,1498.53375 2168.26331,1501.31499 C2172.7133,1505.20873 2042.55112,1682.65204 1998.60748,1731.60192 C1977.47004,1754.96436 1970.79505,1758.8581 1944.09512,1763.30809 C1906.27022,1769.42682 1810.03921,1762.75184 1615.90844,1741.05814 C1535.25239,1731.60192 1467.94631,1725.48318 1466.83382,1726.59568 C1464.60882,1728.26442 1548.60236,1833.95166 1777.22054,2117.63845 C1814.4892,2163.80708 1846.75162,2202.18824 1848.42036,2202.18824 C1849.53286,2202.18824 1876.23279,2184.38828 1906.82646,2162.13834 Z M1431.23391,663.04834 L1429.56516,523.42994 L1339.45288,610.204723 L1249.34061,697.535754 L1262.69058,761.504344 C1270.47806,796.548006 1277.70929,831.03542 1279.37804,837.710403 C1281.04678,844.385387 1299.95923,862.185342 1324.99042,879.985297 C1348.90911,896.672756 1381.17153,920.591446 1396.19024,933.385164 L1424.00267,956.191357 L1428.45266,879.985297 C1430.67766,837.710403 1431.79015,740.366897 1431.23391,663.04834 Z" id="Shape" fill-rule="nonzero"></path>
            <path d="M1346.12787,1317.1967 C1321.09668,1301.06549 1263.80307,1283.82179 1232.0969,1282.70929 L1204.28447,1281.59679 L1207.62196,1264.90933 C1209.84696,1256.00936 1215.40945,1237.0969 1220.97193,1223.19069 L1230.98441,1198.1595 L1271.59055,1198.71575 C1298.29049,1198.71575 1325.54667,1203.16574 1349.46536,1210.95322 C1390.07151,1224.85943 1492.42125,1288.27178 1484.63377,1294.94676 C1479.07129,1299.953 1376.72154,1328.87792 1368.37781,1328.32168 C1365.04032,1328.32168 1355.58409,1323.31544 1346.12787,1317.1967 Z" id="Path"></path>
        </g>
    </g>
</svg>