<?xml version="1.0" encoding="UTF-8"?>
<svg width="126px" height="72px" viewBox="0 0 126 72" version="1.1" xmlns="http://www.w3.org/2000/svg" xmlns:xlink="http://www.w3.org/1999/xlink">
    <!-- Generator: Sketch 52.4 (67378) - http://www.bohemiancoding.com/sketch -->
    <title>CPE</title>
    <desc>Created with Sketch.</desc>
    <defs>
        <polygon id="path-1" points="0.3202 0.0001 31.252 0.0001 31.252 19.2081 0.3202 19.2081"></polygon>
    </defs>
    <g id="Live-Site" stroke="none" stroke-width="1" fill="none" fill-rule="evenodd">
        <g id="sponsors-live" transform="translate(-269.000000, -1152.000000)">
            <g id="CPE" transform="translate(269.000000, 1152.000000)">
                <g id="Group-3" transform="translate(94.000000, 0.000000)">
                    <mask id="mask-2" fill="white">
                        <use xlink:href="#path-1"></use>
                    </mask>
                    <g id="Clip-2"></g>
                    <path d="M31.2522,2.9151 C31.0152,3.6531 30.7352,4.3701 30.3552,5.0501 C29.8432,5.9611 29.2692,6.8271 28.6052,7.6331 C27.8952,8.4931 27.1892,9.3581 26.4512,10.1951 C25.9752,10.7361 25.4442,11.2301 24.9402,11.7461 C24.7672,11.9231 24.6012,12.1061 24.4252,12.2791 C23.5902,13.1031 22.7572,13.9281 21.9132,14.7411 C21.4202,15.2171 20.9122,15.6771 20.4012,16.1331 C19.7202,16.7411 19.0312,17.3421 18.3402,17.9391 C18.0282,18.2081 17.7022,18.4601 17.3852,18.7221 C17.2722,18.8141 17.1632,18.9131 17.0522,19.0081 C16.9782,19.0701 16.9002,19.1301 16.8042,19.2081 C16.7252,19.0161 16.6992,18.8561 16.8242,18.7211 C17.1642,18.3541 17.3422,17.9041 17.5112,17.4471 C17.5902,17.2321 17.6712,17.0191 17.7562,16.8061 C17.8192,16.6451 17.8592,16.4581 18.0992,16.4921 C18.1102,16.3431 18.1192,16.2251 18.1292,16.0971 C18.1902,16.0611 18.2522,16.0251 18.3352,15.9781 L18.3352,15.4091 C18.4162,15.3711 18.4802,15.3411 18.5602,15.3031 C18.5732,15.1211 18.5892,14.9311 18.6052,14.7291 C18.6632,14.6931 18.7242,14.6551 18.8162,14.5981 L18.8162,13.8061 C18.9002,13.7681 18.9562,13.7421 19.0232,13.7111 L19.0232,10.8341 C18.9712,10.8051 18.9112,10.7711 18.8372,10.7301 C18.8252,10.6231 18.8132,10.5061 18.7992,10.3791 C18.7412,10.3441 18.6812,10.3081 18.6002,10.2581 C18.6642,9.8981 18.4202,9.6731 18.2142,9.4291 C18.0492,9.2321 17.8792,9.0391 17.7262,8.8341 C17.4892,8.5171 17.1752,8.3071 16.8272,8.1301 C15.8382,7.6281 14.7822,7.3271 13.7022,7.1101 C12.4412,6.8571 11.1652,6.7341 9.8782,6.7861 C9.1182,6.8171 8.3552,6.8381 7.6042,6.9421 C6.9012,7.0401 6.2012,7.0701 5.4972,7.0911 C5.4512,7.0931 5.3942,7.0811 5.3612,7.1031 C4.9882,7.3681 4.5522,7.2611 4.1442,7.3101 C3.9392,7.3341 3.7342,7.3031 3.5442,7.4461 C3.4462,7.5191 3.2822,7.5131 3.1472,7.5251 C2.9642,7.5421 2.7782,7.5301 2.5982,7.5531 C2.4762,7.5681 2.3602,7.6341 2.2382,7.6551 C1.6752,7.7571 1.1232,7.9451 0.5382,7.9071 C0.4872,7.9031 0.4392,7.8691 0.3202,7.8231 C0.5412,7.7391 0.7042,7.6701 0.8722,7.6161 C1.3352,7.4681 1.7992,7.3261 2.2632,7.1831 C2.4112,7.1371 2.5842,7.1251 2.5782,6.9051 C3.0182,6.8121 3.4302,6.7261 3.8622,6.6341 C3.8872,6.5861 3.9182,6.5231 3.9562,6.4481 C4.0662,6.4341 4.1842,6.4201 4.3212,6.4021 C4.3612,6.2401 4.4822,6.1831 4.6522,6.1571 C4.9952,6.1051 5.3352,6.0251 5.6902,5.9541 C5.7152,5.8931 5.7412,5.8281 5.7732,5.7471 C5.8942,5.7361 6.0202,5.7251 6.1462,5.7141 C6.1402,5.7011 6.1342,5.6881 6.1272,5.6771 C6.2432,5.6051 6.3512,5.5111 6.4772,5.4681 C8.2682,4.8501 10.0612,4.2331 11.8562,3.6291 C13.3752,3.1171 14.8982,2.6161 16.4202,2.1181 C16.9342,1.9501 17.4492,1.7871 17.9722,1.6551 C18.2252,1.5911 18.4972,1.6031 18.7772,1.5781 C18.8082,1.5301 18.8462,1.4711 18.8982,1.3901 L19.6532,1.3901 C19.7022,1.3091 19.7382,1.2491 19.7882,1.1651 L20.5752,1.1651 C20.6202,1.0831 20.6542,1.0221 20.7102,0.9231 C20.9032,0.9231 21.1122,0.9271 21.3222,0.9221 C21.5062,0.9181 21.5062,0.9131 21.6402,0.7301 C21.8802,0.7191 22.1352,0.7061 22.4082,0.6921 C22.5202,0.4641 22.7472,0.4701 22.9642,0.4471 C23.5192,0.3921 24.0742,0.3431 24.6272,0.2701 C24.8402,0.2431 25.0652,0.2041 25.2012,0.0001 L29.1622,0.0001 C29.2132,0.1911 29.3772,0.2271 29.5352,0.2741 C29.7872,0.3521 30.0672,0.3891 30.2832,0.5251 C30.7602,0.8271 31.1332,1.2321 31.2522,1.8151 L31.2522,2.9151 Z" id="Fill-1" fill="#FEFEFE" mask="url(#mask-2)"></path>
                </g>
                <path d="M15.1487,51.002 C15.0887,51.14 15.0427,51.285 14.9667,51.414 C14.7307,51.816 14.4867,52.215 14.2387,52.61 C14.1217,52.798 14.0027,52.976 14.0087,53.215 C14.0107,53.296 13.9147,53.379 13.8217,53.444 C13.8087,53.562 13.7957,53.679 13.7837,53.807 C13.7197,53.84 13.6577,53.874 13.5807,53.915 C13.5617,54.106 13.5427,54.305 13.5227,54.504 C13.4577,54.539 13.4027,54.568 13.3437,54.6 C13.3287,54.719 13.3137,54.835 13.2987,54.952 C13.2827,54.943 13.2657,54.935 13.2487,54.927 C13.1687,55.046 13.0567,55.154 13.0127,55.285 C12.7397,56.115 12.5817,56.972 12.5027,57.839 C12.4537,58.367 12.4437,58.899 12.4347,59.431 C12.4277,59.881 12.4717,60.332 12.6407,60.754 C12.7937,61.135 12.9587,61.514 13.1557,61.872 C13.5937,62.669 14.2817,63.214 15.0637,63.643 C15.2067,63.721 15.3997,63.703 15.5917,63.733 C15.6117,63.779 15.6387,63.844 15.6697,63.916 C15.7857,63.929 15.9027,63.942 16.0337,63.958 C16.0597,64.022 16.0867,64.086 16.1157,64.152 C16.1427,64.16 16.1697,64.177 16.1937,64.175 C16.7507,64.141 17.2797,64.267 17.8177,64.395 C18.7007,64.604 19.6027,64.698 20.5107,64.744 C21.6017,64.798 22.6917,64.781 23.7767,64.673 C24.5127,64.599 25.2477,64.479 25.9727,64.333 C26.4167,64.244 26.8537,64.157 27.3047,64.185 C27.7697,64.212 28.2107,64.114 28.6537,63.984 C29.3107,63.79 29.9737,63.608 30.6847,63.584 C30.6187,63.627 30.5567,63.68 30.4847,63.709 C29.7777,64.008 29.0697,64.309 28.3587,64.598 C27.6847,64.872 27.0027,65.129 26.3297,65.402 C25.5007,65.738 24.6777,66.092 23.8457,66.423 C23.2187,66.673 22.5817,66.897 21.9507,67.135 C21.3607,67.357 20.7727,67.589 20.1817,67.81 C19.6957,67.991 19.2057,68.167 18.7147,68.339 C18.0257,68.58 17.3357,68.816 16.6437,69.051 C16.1867,69.206 15.7297,69.358 15.2697,69.504 C14.5227,69.741 13.7747,69.975 13.0247,70.204 C12.4317,70.387 11.8387,70.571 11.2417,70.735 C10.7747,70.864 10.2997,70.96 9.8307,71.077 C9.3527,71.196 8.8777,71.331 8.3987,71.443 C8.1687,71.498 7.9197,71.487 7.6967,71.56 C7.1177,71.749 6.5067,71.745 5.9187,71.872 C5.5187,71.959 5.1007,71.976 4.6897,71.987 C4.1037,72.006 3.5167,72.002 2.9307,71.988 C2.1267,71.969 1.3767,71.747 0.7157,71.282 C0.5027,71.133 0.3567,70.907 0.2047,70.685 C-0.0293,70.34 0.0017,69.981 0.0017,69.61 C0.0027,69.409 0.0017,69.207 0.0047,69.006 C0.0087,68.788 -0.0063,68.566 0.1567,68.383 C0.1957,68.339 0.1987,68.264 0.2187,68.203 C0.3047,67.953 0.3767,67.698 0.4807,67.457 C0.6237,67.131 0.7547,66.791 0.9567,66.502 C1.2067,66.141 1.3657,65.735 1.5977,65.369 C1.6467,65.293 1.7147,65.23 1.7727,65.159 C1.8077,65.118 1.8627,65.08 1.8717,65.034 C1.9257,64.732 2.1507,64.548 2.3457,64.348 C2.4497,64.242 2.5397,64.15 2.5887,64 C2.6747,63.743 2.8537,63.541 3.0757,63.384 C3.1757,63.313 3.2237,63.22 3.2777,63.107 C3.3687,62.914 3.4997,62.729 3.6517,62.579 C3.8087,62.424 3.9517,62.275 4.0587,62.075 C4.1737,61.861 4.3357,61.664 4.5057,61.488 C4.8687,61.113 5.2517,60.759 5.6237,60.394 C5.6797,60.338 5.7477,60.272 5.7627,60.201 C5.8087,59.981 5.9507,59.825 6.0967,59.676 C6.4947,59.272 6.9037,58.88 7.3027,58.477 C7.8177,57.956 8.3287,57.431 8.8387,56.905 C9.5287,56.197 10.2127,55.483 10.9067,54.778 C11.2647,54.414 11.6287,54.056 12.0027,53.709 C12.2577,53.473 12.5287,53.252 12.8017,53.037 C13.5537,52.447 14.2607,51.813 14.8687,51.07 C14.9177,51.011 14.9957,50.975 15.0597,50.928 C15.0887,50.953 15.1197,50.978 15.1487,51.002" id="Fill-4" fill="#FEFEFE"></path>
                <path d="M52.9914,28.8613 L53.1674,28.8613 C53.1824,28.8343 53.1974,28.8193 53.1994,28.8023 C53.2214,28.5903 53.2684,28.3923 53.4104,28.2183 C53.4764,28.1373 53.4954,28.0183 53.5364,27.9173 C53.6114,27.7333 53.6664,27.5333 53.8954,27.4683 C53.9084,27.3533 53.9214,27.2453 53.9344,27.1243 C53.9944,27.0803 54.0574,27.0323 54.1174,26.9873 C54.1324,26.8783 54.1444,26.7783 54.1584,26.6673 C54.2204,26.6233 54.2834,26.5753 54.3454,26.5303 C54.3584,26.4163 54.3714,26.3073 54.3854,26.1843 C54.5504,26.1413 54.6324,26.0313 54.6574,25.8593 C54.6784,25.7253 54.7414,25.5983 54.7754,25.4653 C54.8134,25.3243 54.8754,25.2093 55.0324,25.1763 C55.0534,25.0503 55.0724,24.9333 55.0944,24.8093 C55.1544,24.7753 55.2154,24.7413 55.2714,24.7103 C55.2854,24.5883 55.2984,24.4793 55.3114,24.3623 C55.3704,24.3223 55.4294,24.2823 55.4824,24.2463 C55.5524,24.0833 55.4344,23.8383 55.7144,23.8063 C55.7324,23.6733 55.7494,23.5553 55.7664,23.4243 C55.9444,23.3953 56.0134,23.2703 56.0684,23.1153 C56.1904,22.7703 56.3304,22.4303 56.4594,22.0883 C56.5424,21.8653 56.6834,21.7653 56.9364,21.7693 C57.7244,21.7833 58.5124,21.7743 59.3014,21.7753 C59.3914,21.7753 59.4824,21.7843 59.6004,21.7903 C59.6094,21.8893 59.6224,21.9773 59.6254,22.0653 C59.6514,22.7703 59.6754,23.4753 59.7004,24.1803 C59.7534,25.6543 59.8054,27.1293 59.8614,28.6023 C59.9194,30.1403 59.9794,31.6773 60.0384,33.2153 C60.0504,33.5173 60.0604,33.8203 60.0684,34.1223 C60.0704,34.2203 60.0584,34.3203 60.0524,34.4443 C59.9484,34.4583 59.8604,34.4793 59.7734,34.4793 C59.0764,34.4833 58.3804,34.4853 57.6834,34.4833 C57.4044,34.4823 57.3484,34.4273 57.3314,34.1453 C57.2734,33.1943 57.2144,32.2443 57.1654,31.2933 C57.1184,30.3603 57.0874,29.4263 57.0444,28.4933 C57.0314,28.2103 57.0124,27.9263 56.9814,27.6443 C56.9694,27.5293 56.9214,27.4173 56.8864,27.2933 L56.6824,27.2933 C56.6724,27.3493 56.6544,27.4023 56.6554,27.4553 C56.6574,27.6103 56.5924,27.7293 56.5044,27.8553 C56.3584,28.0643 56.2244,28.2863 56.1124,28.5153 C55.9074,28.9343 55.7254,29.3643 55.5254,29.7863 C55.4734,29.8943 55.3914,29.9883 55.3264,30.0863 C55.0924,30.5503 54.8584,31.0143 54.6254,31.4783 C54.6244,31.4773 54.6234,31.4773 54.6224,31.4763 C54.5464,31.6263 54.4704,31.7753 54.3954,31.9243 C54.2934,32.3753 54.0164,32.7513 53.8204,33.1623 C53.6674,33.4833 53.4774,33.7893 53.3324,34.1143 C53.2144,34.3783 53.0264,34.4863 52.7514,34.4823 C52.4854,34.4783 52.2194,34.4893 51.9544,34.4743 C51.6604,34.4593 51.5674,34.3783 51.5004,34.0903 C51.3824,33.5833 51.2764,33.0733 51.1564,32.5653 C51.0424,32.0863 50.9144,31.6083 50.7954,31.1303 C50.7104,30.7933 50.6264,30.4563 50.5484,30.1173 C50.3594,29.2973 50.1814,28.4733 49.9864,27.6553 C49.9314,27.4273 49.8334,27.2123 49.7534,26.9863 C49.5994,26.9973 49.5434,27.0693 49.5114,27.1893 C49.3094,27.9233 49.1044,28.6543 48.8984,29.3863 C48.6524,30.2583 48.4034,31.1303 48.1544,32.0073 C48.0864,32.0503 48.0184,32.0933 47.9434,32.1403 C47.9354,32.2993 47.9254,32.4553 47.9224,32.6103 C47.9184,32.7603 47.8974,32.8963 47.7684,33.0043 C47.7204,33.0443 47.7044,33.1303 47.6904,33.1983 C47.6264,33.5033 47.5694,33.8093 47.5074,34.1143 C47.4924,34.1853 47.4674,34.2553 47.4484,34.3173 C47.1634,34.4613 46.8704,34.4903 46.5634,34.4843 C46.0054,34.4723 45.4454,34.4843 44.8864,34.4793 C44.7734,34.4793 44.6604,34.4523 44.5334,34.4353 C44.5304,34.0753 44.6024,33.7653 44.6804,33.4563 C44.9064,32.5753 45.2704,31.7433 45.5694,30.8873 C45.6514,30.6503 45.6514,30.3853 45.7054,30.1363 C45.7314,30.0183 45.7984,29.9103 45.8424,29.7953 C45.8644,29.7373 45.8834,29.6753 45.8924,29.6143 C45.9204,29.4253 45.9134,29.2313 46.0784,29.0853 C46.1204,29.0483 46.1044,28.9473 46.1174,28.8763 C46.1454,28.7093 46.1194,28.5233 46.2974,28.4093 C46.3254,28.3903 46.3334,28.3283 46.3394,28.2843 C46.3844,27.9413 46.4484,27.6103 46.5714,27.2773 C46.8004,26.6623 46.9474,26.0163 47.1374,25.3863 C47.4684,24.2913 47.8044,23.1963 48.1374,22.1013 C48.1674,22.0073 48.2034,21.9133 48.2424,21.7993 L51.3324,21.7993 C51.3474,21.8493 51.3714,21.8993 51.3774,21.9503 C51.5184,23.1203 51.8364,24.2483 52.1844,25.3693 C52.2794,25.6743 52.3954,25.9763 52.4604,26.2893 C52.5224,26.5903 52.5304,26.9043 52.5644,27.2423 C52.7354,27.3093 52.7604,27.4913 52.7894,27.6743 C52.8524,28.0613 52.9214,28.4483 52.9914,28.8613" id="Fill-6" fill="#FEFEFE"></path>
                <path d="M36.7737,31.8565 C37.3267,31.8565 37.8667,31.8535 38.4057,31.8585 C38.6117,31.8605 38.8017,31.8545 38.9607,31.6885 C39.0177,31.6275 39.1187,31.5925 39.2057,31.5785 C39.4687,31.5315 39.6997,31.4475 39.8247,31.1825 C39.8497,31.1285 39.9127,31.0905 39.9607,31.0485 C40.6607,30.4325 41.2097,29.7215 41.4017,28.7825 C41.4167,28.7115 41.4557,28.6455 41.4697,28.5745 C41.5117,28.3785 41.5647,28.1835 41.5817,27.9855 C41.5997,27.7575 41.5727,27.5275 41.5887,27.2985 C41.6207,26.8525 41.4467,26.4625 41.2787,26.0715 C41.2107,25.9135 41.1547,25.7405 41.0487,25.6085 C40.8617,25.3735 40.6527,25.1515 40.4307,24.9475 C40.1447,24.6845 39.8007,24.5175 39.4197,24.4335 C39.2587,24.3975 39.1007,24.3465 38.9387,24.3285 C38.6867,24.2975 38.4007,24.2075 38.1867,24.2905 C37.8997,24.4015 37.6027,24.4235 37.3187,24.5155 C37.2847,24.5275 37.2427,24.5235 37.2127,24.5425 C37.0007,24.6785 36.7667,24.7945 36.5827,24.9615 C36.2857,25.2325 35.9987,25.5185 35.7497,25.8325 C35.5117,26.1305 35.3557,26.4945 35.1137,26.7885 C34.9367,27.0025 34.8707,27.2125 34.8737,27.4805 C34.8837,28.3125 34.8777,29.1455 34.8777,29.9755 C34.9617,30.0155 35.0247,30.0455 35.0867,30.0765 C35.1007,30.2045 35.1127,30.3215 35.1257,30.4385 C35.1407,30.4295 35.1567,30.4205 35.1717,30.4115 C35.2537,30.5175 35.3517,30.6165 35.4147,30.7335 C35.4867,30.8685 35.5287,31.0205 35.5837,31.1625 C35.7307,31.2175 35.8647,31.2835 36.0057,31.3165 C36.1767,31.3565 36.2577,31.4705 36.2947,31.6165 C36.4247,31.6265 36.5347,31.6345 36.6527,31.6435 C36.6877,31.7065 36.7237,31.7685 36.7737,31.8565 Z M33.2527,24.2845 C33.2897,23.9855 33.4947,23.7985 33.6937,23.6075 C33.8047,23.5015 33.9037,23.3775 34.0267,23.2865 C34.1317,23.2095 34.2637,23.1685 34.3927,23.1275 C34.6517,22.8455 34.8277,22.4525 35.2357,22.4545 C35.3787,22.3405 35.4647,22.2335 35.5767,22.1925 C36.0757,22.0115 36.5787,21.8435 37.0847,21.6825 C37.6467,21.5035 38.2287,21.5415 38.8037,21.5745 C39.5067,21.6145 40.2047,21.7105 40.8827,21.9295 C41.9627,22.2795 42.8327,22.9065 43.4207,23.8765 C43.7187,24.3665 43.9327,24.9075 44.1927,25.4205 C44.2527,25.5405 44.3477,25.6425 44.4667,25.7255 C44.4737,25.7435 44.4847,25.7595 44.4857,25.7775 C44.5557,27.1635 44.4857,28.5425 44.2787,29.9145 C44.2607,30.0295 44.1717,30.1355 44.1127,30.2445 C44.0747,30.3135 44.0167,30.3755 43.9887,30.4495 C43.8917,30.6965 43.8107,30.9495 43.7117,31.1955 C43.6447,31.3635 43.5797,31.5275 43.4137,31.6435 C43.3287,31.7015 43.3217,31.8605 43.2467,31.9445 C42.9667,32.2575 42.6737,32.5585 42.3857,32.8645 C42.2977,32.9565 42.2167,33.0555 42.1187,33.1355 C41.9217,33.2945 41.7197,33.4505 41.5117,33.5945 C40.9177,34.0075 40.2467,34.2575 39.5537,34.4325 C39.1947,34.5235 38.8097,34.5435 38.4357,34.5445 C37.7677,34.5465 37.0997,34.5115 36.4317,34.4885 C36.3407,34.4855 36.2487,34.4705 36.1627,34.4435 C35.4907,34.2295 34.8187,34.0065 34.2577,33.5625 C33.9017,33.2805 33.5567,32.9775 33.2397,32.6525 C32.3867,31.7755 31.9807,30.6695 31.8307,29.4965 C31.6957,28.4525 31.7517,27.3925 32.1577,26.3845 C32.2517,26.1505 32.2917,25.8945 32.3717,25.6545 C32.4257,25.4905 32.4787,25.3105 32.5867,25.1835 C32.7237,25.0205 32.8177,24.8475 32.9017,24.6545 C32.9627,24.5125 33.0977,24.4025 33.1997,24.2785 L33.2527,24.2845 Z" id="Fill-8" fill="#FEFEFE"></path>
                <path d="M112.1038,25.251 C111.8308,25.19 111.8078,24.947 111.7418,24.748 C111.6798,24.564 111.5768,24.45 111.3908,24.4 C110.8208,24.246 110.2418,24.186 109.6518,24.24 C109.5968,24.245 109.5418,24.259 109.4908,24.274 C109.3738,24.312 109.3098,24.392 109.2978,24.516 C109.2798,24.716 109.2498,24.915 109.2378,25.115 C109.2108,25.526 109.2048,25.938 109.0658,26.334 C109.0218,26.46 109.0228,26.605 109.0238,26.742 C109.0258,26.994 109.1018,27.073 109.3548,27.07 C109.9228,27.064 110.4908,27.049 111.0588,27.036 C111.1038,27.035 111.1488,27.022 111.1868,27.016 C111.3728,26.802 111.5498,26.592 111.7318,26.387 C112.0168,26.065 112.0838,25.675 112.1038,25.251 M110.2868,29.853 C110.0228,29.739 109.8048,29.615 109.5698,29.554 C109.3528,29.498 109.1178,29.489 108.8908,29.498 C108.7018,29.505 108.6218,29.625 108.5958,29.866 C108.5678,30.131 108.5568,30.397 108.5268,30.66 C108.4928,30.969 108.4428,31.276 108.4028,31.584 C108.3548,31.956 108.3108,32.329 108.2648,32.701 C108.2498,32.819 108.2298,32.937 108.2148,33.055 C108.1718,33.398 108.1258,33.743 108.0888,34.088 C108.0628,34.339 107.9858,34.463 107.7438,34.467 C106.9558,34.48 106.1678,34.47 105.3798,34.467 C105.3638,34.466 105.3478,34.451 105.2938,34.425 C105.2938,34.338 105.2838,34.23 105.2958,34.127 C105.4678,32.755 105.6438,31.383 105.8158,30.011 C106.0078,28.476 106.1968,26.938 106.3878,25.402 C106.5298,24.267 106.6738,23.131 106.8188,21.995 C106.8268,21.934 106.8408,21.872 106.8558,21.796 C106.9458,21.788 107.0258,21.775 107.1058,21.775 C108.6358,21.775 110.1668,21.776 111.6978,21.778 C111.8268,21.778 111.9548,21.783 112.0828,21.796 C112.1438,21.802 112.2348,21.811 112.2588,21.851 C112.3718,22.035 112.5598,22.051 112.7358,22.077 C113.1808,22.145 113.4968,22.428 113.7878,22.727 C114.0328,22.98 114.2238,23.286 114.4388,23.564 C114.6788,23.875 114.7138,24.232 114.8588,24.56 C114.9368,24.736 114.9468,24.954 114.9478,25.153 C114.9498,25.583 114.9758,26.022 114.9028,26.44 C114.7668,27.207 114.4068,27.871 113.7778,28.356 C113.5198,28.556 113.2368,28.723 112.9368,28.923 C112.9628,28.994 112.9778,29.086 113.0248,29.155 C113.3888,29.684 113.6788,30.246 113.9178,30.842 C114.1018,31.3 114.3338,31.737 114.5388,32.188 C114.7898,32.744 115.0328,33.305 115.2808,33.863 C115.5138,34.391 115.4578,34.48 114.8838,34.483 C114.1318,34.485 113.3798,34.482 112.6288,34.484 C112.4618,34.484 112.3248,34.462 112.2698,34.266 C112.0388,33.428 111.6088,32.679 111.2048,31.919 C110.8468,31.247 110.4918,30.575 110.2868,29.853" id="Fill-10" fill="#FEFEFE"></path>
                <path d="M48.8157,53.502 C48.5987,53.703 48.4377,53.86 48.1987,53.903 C48.1377,53.914 48.0847,53.956 48.0277,53.985 C47.7787,54.117 47.5297,54.248 47.2817,54.381 C47.1697,54.441 47.0387,54.485 46.9557,54.572 C46.8297,54.705 46.6877,54.771 46.5167,54.822 C46.3007,54.887 46.0967,54.992 45.8947,55.094 C45.4097,55.341 44.9267,55.593 44.4467,55.848 C44.2457,55.954 44.0567,56.084 43.8527,56.185 C43.5197,56.348 43.1777,56.491 42.8427,56.65 C42.2987,56.908 41.7587,57.175 41.2137,57.43 C40.9587,57.55 40.6917,57.645 40.4347,57.763 C40.1797,57.881 39.9347,58.021 39.6797,58.138 C39.4247,58.255 39.1647,58.359 38.9047,58.466 C38.4557,58.649 38.0067,58.832 37.5567,59.011 C37.0677,59.204 36.5567,59.356 36.0897,59.594 C35.6947,59.796 35.2367,59.823 34.8727,60.05 C34.6237,60.205 34.3767,60.243 34.1147,60.306 C33.8947,60.357 33.6897,60.47 33.4747,60.546 C33.2527,60.623 33.0297,60.712 32.7987,60.755 C32.3837,60.832 31.9877,60.955 31.5957,61.114 C31.3727,61.205 31.1177,61.221 30.8767,61.271 C30.6787,61.312 30.4827,61.353 30.2867,61.395 C30.2687,61.398 30.2497,61.398 30.2327,61.406 C29.6167,61.686 28.9337,61.679 28.2937,61.85 C28.0197,61.922 27.7507,62.014 27.4727,62.062 C26.9787,62.146 26.4777,62.195 25.9827,62.273 C25.6047,62.332 25.2337,62.427 24.8557,62.481 C24.5037,62.532 24.1467,62.557 23.7917,62.585 C22.7507,62.668 21.7107,62.751 20.6657,62.702 C20.4397,62.691 20.2167,62.639 19.9927,62.614 C19.7107,62.584 19.4277,62.559 19.1447,62.54 C18.8297,62.521 18.5267,62.536 18.2207,62.357 C17.9567,62.203 17.6167,62.172 17.3067,62.1 C17.1587,62.065 17.0367,62.016 16.9297,61.898 C16.8547,61.815 16.7407,61.766 16.6417,61.703 C16.1547,61.396 15.6707,61.083 15.3977,60.546 C15.3807,60.514 15.3717,60.477 15.3487,60.448 C15.2837,60.362 15.1667,60.287 15.1527,60.195 C15.0577,59.535 14.6227,58.959 14.6927,58.258 C14.7207,57.976 14.7057,57.689 14.8407,57.428 C14.8577,57.397 14.8567,57.356 14.8647,57.32 C14.9647,56.857 15.0567,56.392 15.1697,55.932 C15.2157,55.747 15.3097,55.576 15.3807,55.398 C15.4957,55.113 15.6097,54.829 15.7307,54.527 C15.8297,54.556 15.9047,54.577 15.9617,54.593 C16.1387,54.87 16.1497,55.164 16.1687,55.456 C16.1757,55.574 16.1817,55.694 16.2017,55.811 C16.2497,56.088 16.2527,56.088 16.4877,56.252 C16.4967,56.315 16.4927,56.392 16.5187,56.457 C16.5487,56.537 16.5867,56.639 16.6527,56.675 C16.8967,56.809 17.0157,57.002 16.9917,57.311 C17.3247,57.549 17.6657,57.794 18.0067,58.038 C18.0737,58.086 18.1457,58.127 18.2107,58.178 C18.4337,58.358 18.6547,58.542 18.9867,58.471 C19.0257,58.708 19.2057,58.757 19.3797,58.819 C20.1697,59.106 20.9887,59.255 21.8227,59.305 C22.8647,59.366 23.9067,59.428 24.9497,59.447 C25.8097,59.463 26.6707,59.419 27.5327,59.4 C27.5947,59.398 27.6727,59.401 27.7177,59.367 C27.9827,59.164 28.2997,59.184 28.6027,59.151 C28.8027,59.131 29.0057,59.147 29.2077,59.144 C29.3787,59.142 29.5307,59.113 29.6987,59.041 C29.9247,58.944 30.1987,58.95 30.4527,58.928 C30.6947,58.907 30.9417,58.948 31.1527,58.766 C31.2167,58.71 31.3417,58.711 31.4407,58.709 C31.7237,58.701 32.0077,58.706 32.2927,58.706 C32.2877,58.687 32.2827,58.666 32.2777,58.647 C32.4037,58.591 32.5237,58.507 32.6557,58.484 C33.1777,58.398 33.7047,58.333 34.2297,58.259 C34.2747,58.253 34.3387,58.262 34.3617,58.235 C34.5867,57.976 34.8937,58.045 35.1787,58.024 C35.2147,58.023 35.2517,58.014 35.3017,58.006 C35.3987,57.797 35.5867,57.764 35.7997,57.769 C35.9967,57.774 36.1777,57.752 36.3727,57.657 C36.5927,57.551 36.8657,57.552 37.1537,57.5 C37.1697,57.476 37.2087,57.417 37.2597,57.341 C37.4307,57.332 37.6127,57.323 37.7917,57.315 C38.0437,56.977 38.4227,57.167 38.7527,57.07 C38.8127,56.895 38.9647,56.865 39.1407,56.873 C39.2887,56.88 39.4107,56.835 39.5457,56.756 C39.7027,56.663 39.9127,56.66 40.1277,56.612 C40.2167,56.446 40.3997,56.386 40.5977,56.404 C40.7757,56.422 40.8787,56.287 41.0247,56.248 C41.3417,56.164 41.6627,56.086 41.9827,56.012 C42.1157,55.981 42.2537,55.969 42.3957,55.946 C42.4457,55.882 42.4947,55.817 42.5457,55.75 C42.6467,55.736 42.7467,55.723 42.8627,55.708 C42.9447,55.527 43.1177,55.509 43.2947,55.505 C43.4347,55.502 43.5477,55.466 43.6697,55.374 C43.8077,55.27 43.9957,55.222 44.1687,55.175 C44.3627,55.122 44.5647,55.101 44.7617,55.062 C44.8237,55.049 44.9117,55.04 44.9377,54.998 C45.0327,54.844 45.2237,54.871 45.3277,54.785 C45.6167,54.548 46.0097,54.628 46.3037,54.409 C46.4147,54.327 46.6007,54.349 46.7717,54.319 C46.8127,54.129 46.9747,54.059 47.1497,54.032 C47.5107,53.979 47.8017,53.77 48.1207,53.621 C48.3207,53.527 48.5247,53.472 48.8157,53.502" id="Fill-12" fill="#FEFEFE"></path>
                <path d="M84.3899,21.7969 C84.3039,22.3789 84.2169,22.9099 84.1479,23.4439 C84.0499,24.1879 83.9649,24.9329 83.8739,25.6769 C83.8579,25.8129 83.8519,25.9539 83.8129,26.0839 C83.6409,26.6519 83.6389,27.2399 83.5989,27.8229 C83.5929,27.9149 83.5779,28.0049 83.5669,28.0959 C83.5089,28.5489 83.4529,29.0019 83.3919,29.4549 C83.3669,29.6459 83.3339,29.8349 83.2969,30.0229 C83.2639,30.1929 83.2029,30.3599 83.1839,30.5319 C83.1399,30.9109 82.9899,31.2499 82.8229,31.5849 C82.6629,31.9029 82.5189,32.2309 82.3379,32.5359 C82.0249,33.0669 81.5709,33.4629 81.0539,33.7869 C80.8229,33.9339 80.5899,34.0899 80.3379,34.1909 C80.0259,34.3149 79.6979,34.4159 79.3679,34.4719 C78.5589,34.6079 77.7399,34.5529 76.9249,34.5429 C76.2019,34.5339 75.5089,34.3339 74.8689,34.0149 C73.6899,33.4269 72.9659,32.4669 72.6869,31.1779 C72.4349,30.0159 72.5359,28.8629 72.8089,27.7209 C72.8889,27.3879 72.9419,27.0589 72.9349,26.7179 C72.9279,26.3979 72.9329,26.0769 72.9329,25.7769 C73.0279,25.7059 73.0839,25.6629 73.1679,25.5999 L73.1679,24.1699 C73.2489,24.1139 73.3079,24.0739 73.3749,24.0279 C73.4549,23.2979 73.5369,22.5619 73.6219,21.7889 C74.5779,21.7619 75.5239,21.7759 76.5199,21.7799 C76.4909,22.0019 76.4669,22.1779 76.4449,22.3539 C76.3949,22.7259 76.3459,23.0969 76.2969,23.4689 C76.2729,23.6589 76.2539,23.8509 76.2259,24.0399 C76.1909,24.2749 76.1409,24.5079 76.1089,24.7419 C75.9579,25.8489 75.7989,26.9539 75.6679,28.0629 C75.5839,28.7799 75.5009,29.5049 75.6299,30.2259 C75.6839,30.5259 75.8059,30.8169 75.9039,31.1099 C75.9189,31.1549 75.9699,31.1939 76.0119,31.2269 C76.3579,31.4889 76.7539,31.6589 77.1559,31.8129 C77.5739,31.9729 78.0059,31.8969 78.4319,31.8269 C79.3309,31.6789 79.3309,31.6769 79.8529,30.9279 C80.0099,30.7019 80.1519,30.4659 80.3239,30.2509 C80.4569,30.0829 80.5019,29.8979 80.5249,29.6949 C80.6509,28.5759 80.7809,27.4569 80.9079,26.3379 C81.0259,25.3009 81.1419,24.2639 81.2569,23.2269 C81.2999,22.8439 81.3389,22.4619 81.3829,22.0799 C81.3939,21.9909 81.4189,21.9029 81.4419,21.7969 L84.3899,21.7969 Z" id="Fill-14" fill="#FEFEFE"></path>
                <path d="M102.9514,26.7705 C102.9574,26.8675 102.9734,26.9395 102.9654,27.0085 C102.9024,27.5075 102.8384,28.0065 102.7674,28.5035 C102.7454,28.6575 102.7064,28.8085 102.6664,28.9585 C102.6014,29.2005 102.5824,29.2125 102.3234,29.2125 C101.2234,29.2125 100.1234,29.2105 99.0234,29.2115 C98.5254,29.2115 98.5144,29.2395 98.4654,29.7315 C98.4184,30.1865 98.3344,30.6375 98.2714,31.0905 C98.2534,31.2265 98.2454,31.3645 98.2454,31.5005 C98.2454,31.8095 98.3294,31.8915 98.6354,31.8915 C100.2944,31.8925 101.9524,31.8925 103.6114,31.8945 C103.7454,31.8945 103.8794,31.9095 104.0274,31.9175 C104.0424,32.0185 104.0664,32.0895 104.0594,32.1575 C104.0094,32.6855 103.9564,33.2135 103.8934,33.7415 C103.8744,33.9035 103.8284,34.0645 103.7844,34.2225 C103.7334,34.4035 103.6144,34.4865 103.4174,34.4825 C103.0324,34.4735 102.6474,34.4815 102.2634,34.4815 C99.9904,34.4825 97.7174,34.4835 95.4444,34.4805 C95.2944,34.4805 95.1434,34.4515 94.9794,34.4335 C94.9794,34.2965 94.9714,34.1985 94.9804,34.1015 C95.2124,31.8225 95.6234,29.5705 95.9734,27.3085 C96.2174,25.7425 96.4314,24.1725 96.4994,22.5865 C96.5104,22.3325 96.5374,22.0795 96.5564,21.8345 C96.8104,21.7595 103.8794,21.7495 104.1894,21.8285 C104.1654,22.6035 103.9154,23.3575 103.9144,24.1445 C103.5584,24.2425 103.2404,24.2365 102.9224,24.2345 C102.4204,24.2325 101.9174,24.2315 101.4144,24.2305 C101.1394,24.2295 100.8644,24.2235 100.5904,24.2255 C100.1974,24.2285 99.8044,24.2375 99.4114,24.2415 C99.2554,24.2425 99.1754,24.3245 99.1544,24.4715 C99.0734,25.0685 98.9864,25.6645 98.9164,26.2615 C98.8874,26.5185 99.0354,26.6255 99.3444,26.6185 C99.9114,26.6045 100.4774,26.5785 101.0454,26.5875 C101.5654,26.5965 102.0864,26.6425 102.6054,26.6815 C102.7204,26.6905 102.8304,26.7385 102.9514,26.7705" id="Fill-16" fill="#FEFEFE"></path>
                <path d="M78.1682,16.0361 C78.2002,15.9801 78.2182,15.8971 78.2662,15.8751 C78.4942,15.7661 78.7312,15.6781 78.9632,15.5751 C79.0952,15.5161 79.2212,15.4421 79.3532,15.3821 C79.6482,15.2451 79.9472,15.1151 80.2422,14.9761 C80.3222,14.9391 80.3912,14.8771 80.4672,14.8291 C80.5352,14.7871 80.6072,14.7161 80.6782,14.7161 C81.0502,14.7201 81.3242,14.4811 81.6422,14.3511 C81.9102,14.2421 82.1812,14.1391 82.4482,14.0291 C82.5472,13.9881 82.6422,13.9371 82.7372,13.8901 C82.8022,13.8581 82.8662,13.7961 82.9302,13.7961 C83.1262,13.7951 83.2682,13.6801 83.4292,13.6001 C83.8692,13.3871 84.3022,13.1491 84.8192,13.0801 C84.9012,12.9401 85.0362,12.8661 85.2172,12.8691 C85.2782,12.8691 85.3452,12.8451 85.3992,12.8141 C85.9622,12.5061 86.5962,12.3901 87.1792,12.1401 C87.5662,11.9741 87.9612,11.8401 88.3692,11.7391 C88.4272,11.7251 88.4792,11.6821 88.5282,11.6451 C88.5642,11.6191 88.5902,11.5621 88.6272,11.5561 C88.8812,11.5121 89.0992,11.3711 89.3352,11.2911 C89.9652,11.0771 90.6182,10.9321 91.2422,10.7041 C91.6632,10.5511 92.1092,10.5251 92.5232,10.3651 C92.6762,10.3071 92.8342,10.2621 92.9922,10.2211 C93.2132,10.1641 93.4362,10.1171 93.6572,10.0671 C94.2282,9.9391 94.7972,9.8121 95.3662,9.6851 C95.3842,9.6821 95.4052,9.6841 95.4212,9.6771 C95.7892,9.4961 96.2132,9.5211 96.5812,9.3881 C96.9362,9.2591 97.2952,9.2651 97.6412,9.1791 C98.1312,9.0571 98.6322,9.0271 99.1232,8.9301 C99.5712,8.8421 100.0162,8.7561 100.4792,8.7401 C100.9602,8.7241 101.4392,8.6211 101.9182,8.5571 C102.0002,8.5471 102.0822,8.5321 102.1642,8.5321 C103.1532,8.5321 104.1442,8.5231 105.1332,8.5411 C105.4672,8.5471 105.8042,8.5571 106.1342,8.6711 C106.3352,8.7401 106.5672,8.7211 106.7862,8.7411 C106.8412,8.7461 106.9062,8.7311 106.9482,8.7581 C107.2602,8.9511 107.6312,8.9761 107.9662,9.1091 C108.2962,9.2391 108.5562,9.4701 108.8662,9.6021 C109.4362,9.8471 109.8202,10.2541 110.1092,10.7781 C110.1412,10.8341 110.1692,10.9051 110.2192,10.9331 C110.4332,11.0561 110.4622,11.2631 110.4872,11.4731 C110.5552,12.0261 110.6652,12.5771 110.6192,13.1391 C110.5852,13.5671 110.5532,13.9971 110.4902,14.4221 C110.4692,14.5651 110.3472,14.6921 110.2882,14.8341 C110.1532,15.1631 110.0282,15.4961 109.8992,15.8281 C109.8832,15.8701 109.8712,15.9211 109.8402,15.9501 C109.7972,15.9911 109.7282,16.0491 109.6892,16.0371 C109.6322,16.0201 109.5702,15.9541 109.5512,15.8961 C109.4492,15.5941 109.3512,15.2901 109.2702,14.9821 C109.1472,14.5151 108.8562,14.1541 108.5532,13.8011 C108.4632,13.6961 108.3842,13.5821 108.2832,13.4911 C108.1502,13.3701 108.0082,13.2551 107.8562,13.1571 C107.6052,12.9961 107.4032,12.7591 107.0962,12.6831 C107.0232,12.6671 106.9702,12.5831 106.9032,12.5351 C106.8152,12.4731 106.7302,12.3911 106.6312,12.3611 C106.0482,12.1871 105.4652,12.0101 104.8742,11.8641 C104.3972,11.7471 103.9102,11.6701 103.4272,11.5821 C103.2922,11.5571 103.1532,11.5561 103.0172,11.5511 C102.7622,11.5411 102.5032,11.5751 102.2612,11.4571 C102.2302,11.4421 102.1892,11.4431 102.1522,11.4431 C101.4112,11.4241 100.6702,11.3821 99.9292,11.3951 C99.3642,11.4051 98.8012,11.4871 98.2362,11.5331 C97.8902,11.5611 97.5412,11.5701 97.1952,11.6061 C96.9072,11.6381 96.6242,11.7061 96.3362,11.7411 C96.0362,11.7781 95.7352,11.8101 95.4352,11.8181 C95.0592,11.8281 94.6902,11.8491 94.3252,11.9681 C94.0952,12.0431 93.8362,12.0271 93.5942,12.0691 C92.8752,12.1931 92.1572,12.3251 91.4392,12.4531 C91.1542,12.5041 90.8672,12.5111 90.5992,12.6701 C90.4562,12.7551 90.2402,12.7101 90.0622,12.7441 C89.7592,12.8021 89.4582,12.8701 89.1592,12.9431 C88.6382,13.0701 88.1182,13.2081 87.5982,13.3371 C87.4652,13.3701 87.3272,13.3831 87.1942,13.4171 C87.0632,13.4511 86.9362,13.5021 86.8062,13.5451 C86.7202,13.5741 86.6312,13.6281 86.5462,13.6241 C86.1962,13.6071 85.8862,13.7581 85.5572,13.8281 C85.4682,13.8481 85.3772,13.8791 85.3022,13.9271 C85.1272,14.0401 84.9372,14.0821 84.7332,14.1071 C84.2892,14.1631 83.8622,14.2831 83.4642,14.4951 C83.4092,14.5241 83.3412,14.5461 83.2792,14.5451 C82.8272,14.5361 82.4162,14.7231 82.0142,14.8721 C81.5582,15.0411 81.0702,15.0991 80.6322,15.2991 C80.1972,15.4961 79.7372,15.6031 79.2912,15.7581 C79.0252,15.8491 78.7712,15.9721 78.5072,16.0681 C78.4192,16.1001 78.3182,16.0961 78.2242,16.1071 C78.2052,16.0841 78.1872,16.0591 78.1682,16.0361" id="Fill-18" fill="#FEFEFE"></path>
                <path d="M26.8254,21.7627 C26.8694,21.5877 27.0124,21.5667 27.1664,21.5667 C27.9724,21.5677 28.7804,21.5547 29.5864,21.5767 C29.8654,21.5847 30.1454,21.6697 30.4224,21.7337 C30.8304,21.8277 31.2364,21.9357 31.6794,22.0467 C31.5844,22.9507 31.5334,23.8687 31.1474,24.7457 C30.9784,24.7157 30.8274,24.7147 30.6964,24.6607 C30.1844,24.4547 29.6344,24.4737 29.1094,24.3607 C28.4784,24.2247 27.8784,24.3377 27.2604,24.4277 C26.5794,24.5267 25.9754,24.7767 25.4174,25.1567 C24.9694,25.4607 24.6134,25.8477 24.3964,26.3527 C24.3524,26.4527 24.3044,26.5547 24.2394,26.6427 C23.6704,27.4227 23.5974,28.3207 23.6374,29.2387 C23.6594,29.7347 23.7464,30.2217 23.9624,30.6767 C24.0374,30.8347 24.1184,30.9727 24.3304,30.9447 C24.4144,31.0937 24.4944,31.2357 24.5764,31.3797 C24.7114,31.3927 24.8374,31.4057 24.9734,31.4177 C25.0044,31.4827 25.0344,31.5457 25.0664,31.6147 C25.1874,31.6237 25.3044,31.6327 25.4344,31.6437 C25.4644,31.7057 25.4934,31.7697 25.5274,31.8447 C26.4844,31.8747 27.4304,31.8447 28.3564,31.5607 C29.2734,31.2797 30.0844,30.7797 30.9554,30.2957 C31.0184,30.8957 30.9674,31.4477 30.9584,32.0017 C30.8914,32.0487 30.8334,32.0897 30.7684,32.1337 C30.7644,32.1857 30.7594,32.2407 30.7584,32.2947 C30.7534,32.6337 30.7434,32.9727 30.7494,33.3127 C30.7514,33.4677 30.7014,33.5847 30.5604,33.6457 C30.2264,33.7907 29.8934,33.9457 29.5504,34.0657 C29.1734,34.1967 28.7884,34.3177 28.3974,34.3957 C27.9954,34.4767 27.5824,34.5357 27.1734,34.5417 C26.5064,34.5517 25.8354,34.5407 25.1714,34.4797 C24.8134,34.4467 24.4624,34.3077 24.1194,34.1827 C23.3014,33.8857 22.6294,33.3647 22.0524,32.7267 C21.5434,32.1637 21.2254,31.4967 20.9794,30.7727 C20.7804,30.1877 20.8034,29.5807 20.6604,28.9947 C20.6064,28.7747 20.6774,28.5237 20.6954,28.2857 C20.7164,28.0217 20.7344,27.7567 20.7684,27.4927 C20.8344,26.9847 21.0184,26.5077 21.1664,26.0197 C21.2824,25.6357 21.4994,25.3147 21.6654,24.9617 C21.7704,24.7377 21.9164,24.5397 22.1274,24.3937 C22.1954,24.3457 22.2324,24.2537 22.2824,24.1807 C22.3734,24.0487 22.4574,23.9107 22.5554,23.7847 C22.6174,23.7067 22.7004,23.6457 22.7724,23.5757 C22.8054,23.5437 22.8344,23.4877 22.8704,23.4827 C23.2594,23.4237 23.3854,23.0467 23.6514,22.8407 C23.9054,22.6437 24.1904,22.5357 24.4784,22.4227 C24.7054,22.3337 24.9484,22.2927 25.1234,22.0857 C25.1894,22.0077 25.3364,21.9837 25.4504,21.9647 C25.8934,21.8927 26.3384,21.8327 26.8254,21.7627" id="Fill-20" fill="#FEFEFE"></path>
                <path d="M68.2893,26.7627 C68.3123,26.7627 68.3373,26.7637 68.3613,26.7647 C68.4083,26.3667 68.4833,25.9687 68.4953,25.5697 C68.5113,25.0797 68.0493,24.4197 67.5893,24.2917 C67.2583,24.1997 66.9033,24.1807 66.5583,24.1527 C66.3273,24.1327 66.2253,24.2167 66.1633,24.4477 C66.1163,24.6227 66.0953,24.8067 66.0693,24.9877 C65.9993,25.4767 66.0253,25.9697 65.8313,26.4527 C65.7103,26.7547 65.7693,27.1357 65.8233,27.4897 C66.6323,27.5377 67.3453,27.2657 68.0023,27.0627 C68.1273,26.9317 68.2083,26.8467 68.2893,26.7627 M62.0063,34.4217 C62.0063,34.2517 61.9893,34.0807 62.0093,33.9137 C62.0963,33.1777 62.1923,32.4427 62.2873,31.7067 C62.4063,30.7817 62.5273,29.8557 62.6453,28.9287 C62.7683,27.9657 62.8873,27.0027 63.0073,26.0397 C63.1313,25.0497 63.2533,24.0597 63.3793,23.0707 C63.4333,22.6537 63.4963,22.2387 63.5603,21.7797 C65.2883,21.7737 67.0063,21.7687 68.7173,21.7837 C68.7683,21.8687 68.8063,21.9297 68.8463,21.9957 C69.1123,22.0597 69.3823,22.1117 69.6443,22.1907 C69.7793,22.2317 69.9213,22.2987 70.0233,22.3927 C70.2443,22.5977 70.4573,22.8167 70.6443,23.0517 C70.7973,23.2417 70.9083,23.4657 71.0353,23.6757 C71.0773,23.7447 71.1013,23.8297 71.1533,23.8897 C71.2433,23.9927 71.2823,24.0947 71.2663,24.2387 C71.2543,24.3397 71.2973,24.4527 71.3333,24.5557 C71.5993,25.2987 71.5883,26.0467 71.3713,26.7957 C71.2873,27.0857 71.1803,27.3677 71.0823,27.6537 C70.8903,28.2157 70.4873,28.6247 70.0333,28.9637 C69.6513,29.2487 69.2303,29.4977 68.7613,29.6307 C68.6033,29.6747 68.4343,29.6747 68.2743,29.7127 C67.4813,29.9047 66.6763,29.8607 65.8713,29.8637 C65.6013,29.8647 65.5863,29.8707 65.3603,30.0547 C65.3023,30.5777 65.2423,31.1147 65.1803,31.6507 C65.1043,32.2857 65.0253,32.9217 64.9513,33.5577 C64.9293,33.7487 64.9243,33.9417 64.9033,34.1327 C64.8773,34.3817 64.8053,34.4697 64.5603,34.4727 C63.7713,34.4827 62.9833,34.4777 62.1953,34.4747 C62.1443,34.4747 62.0933,34.4477 62.0063,34.4217" id="Fill-22" fill="#FEFEFE"></path>
                <path d="M95.4749,21.7959 C95.5369,22.2009 95.4759,22.5779 95.4099,22.9549 C95.3599,23.2429 95.3139,23.5329 95.2869,23.8239 C95.2559,24.1449 95.2059,24.2109 94.8859,24.2119 C93.9599,24.2159 93.0349,24.2089 92.1089,24.2169 C91.9119,24.2179 91.7169,24.2609 91.5189,24.2849 C91.4819,24.5009 91.4469,24.6709 91.4249,24.8419 C91.3429,25.4859 91.2629,26.1319 91.1859,26.7759 C91.0939,27.5489 91.0119,28.3219 90.9149,29.0939 C90.8699,29.4569 90.7889,29.8159 90.7429,30.1789 C90.6339,31.0209 90.5369,31.8649 90.4329,32.7079 C90.3729,33.1899 90.3159,33.6709 90.2499,34.1499 C90.2209,34.3689 90.1529,34.4319 89.9369,34.4689 C89.8829,34.4789 89.8279,34.4819 89.7729,34.4819 C89.0669,34.4819 88.3609,34.4809 87.6549,34.4769 C87.5839,34.4769 87.5139,34.4589 87.3989,34.4439 C87.4899,33.3009 87.6399,32.1789 87.7629,31.0549 C87.8859,29.9349 88.0149,28.8159 88.1429,27.6959 C88.2719,26.5709 88.4029,25.4459 88.5369,24.2899 C87.3799,24.1289 86.2549,24.2839 85.0989,24.1949 C85.1259,23.3789 85.2449,22.5989 85.3149,21.7959 L95.4749,21.7959 Z" id="Fill-24" fill="#FEFEFE"></path>
                <path d="M58.1233,39.5508 C57.8903,39.6678 57.7513,39.8248 57.7593,40.1068 C57.7733,40.6378 57.7503,41.1698 57.7703,41.6998 C57.7833,42.0468 57.8443,42.3918 57.7633,42.7368 C57.7503,42.7878 57.7363,42.8408 57.7183,42.9148 C57.3943,42.9798 57.0673,42.9818 56.7443,42.9308 C56.5783,42.9048 56.5083,42.7638 56.5063,42.6028 C56.5043,42.2728 56.5103,41.9438 56.5113,41.6138 C56.5133,40.9188 56.5133,40.2248 56.5133,39.5308 C56.5133,39.4578 56.5043,39.3848 56.5043,39.3118 C56.5023,38.6908 56.4993,38.0698 56.5023,37.4488 C56.5023,37.3308 56.5103,37.2088 56.5413,37.0968 C56.6043,36.8618 56.7303,36.7838 56.9683,36.8098 C57.0313,36.8168 57.1003,36.8448 57.1573,36.8298 C57.5673,36.7278 57.7483,37.0308 57.9603,37.2768 C58.0013,37.3238 58.0133,37.4108 58.0613,37.4368 C58.4173,37.6238 58.5393,37.9888 58.7343,38.2998 C58.7683,38.3528 58.8233,38.3908 58.8683,38.4368 C59.1763,38.7478 59.4923,39.0518 59.7883,39.3738 C59.9023,39.4988 59.9613,39.6728 60.0603,39.8148 C60.2303,40.0598 60.4483,40.2448 60.7963,40.3108 C60.8143,40.1118 60.8463,39.9238 60.8473,39.7368 C60.8523,38.8938 60.8483,38.0508 60.8523,37.2078 C60.8523,37.0838 60.8773,36.9608 60.8943,36.8038 C61.2883,36.8038 61.6503,36.7958 62.0133,36.8088 C62.1603,36.8138 62.2263,36.9438 62.2533,37.0738 C62.2723,37.1718 62.2733,37.2748 62.2733,37.3748 C62.2743,39.0778 62.2753,40.7818 62.2723,42.4868 C62.2723,42.8728 62.1893,42.9508 61.8033,42.9548 C61.6843,42.9568 61.5643,42.9588 61.4453,42.9528 C61.2443,42.9428 61.0893,42.8598 60.9553,42.6958 C60.7663,42.4628 60.5413,42.2598 60.3373,42.0388 C60.1773,41.8668 60.0193,41.6938 59.8723,41.5108 C59.6783,41.2698 59.5103,41.0068 59.3073,40.7738 C59.0943,40.5298 58.8533,40.3098 58.5713,40.0258 C58.5593,39.8228 58.3643,39.6718 58.1233,39.5508" id="Fill-26" fill="#FEFEFE"></path>
                <path d="M35.2981,36.8779 C35.3041,37.0049 35.3121,37.0959 35.3121,37.1859 C35.3121,38.9629 35.3111,40.7399 35.3091,42.5179 C35.3091,42.9099 35.2651,42.9509 34.8621,42.9589 C34.7621,42.9599 34.6611,42.9519 34.5611,42.9599 C34.3591,42.9759 34.2361,42.8769 34.0961,42.7319 C33.8391,42.4659 33.6631,42.1249 33.3401,41.9139 C33.2271,41.8399 33.1721,41.6809 33.0781,41.5699 C32.8611,41.3119 32.6401,41.0569 32.4151,40.8049 C32.0651,40.4099 31.7111,40.0199 31.3581,39.6289 C31.3161,39.5829 31.2631,39.5469 31.2161,39.5059 C31.0061,39.5749 30.9601,39.7219 30.9611,39.9139 C30.9661,40.8129 30.9621,41.7099 30.9621,42.6069 L30.9621,42.9369 C30.5801,42.9369 30.2271,42.9579 29.8781,42.9239 C29.7801,42.9139 29.6611,42.7549 29.6181,42.6409 C29.5621,42.4909 29.5551,42.3159 29.5561,42.1539 C29.5641,41.5599 29.5881,40.9649 29.5971,40.3709 C29.6041,39.8569 29.6051,39.3449 29.5971,38.8319 C29.5931,38.5399 29.5551,38.2479 29.5551,37.9559 C29.5561,37.6639 29.5811,37.3719 29.6051,37.0799 C29.6171,36.9089 29.7311,36.8189 29.8951,36.8179 C30.0211,36.8169 30.1481,36.8149 30.2731,36.8019 C30.4791,36.7809 30.6411,36.8289 30.7801,37.0009 C31.0861,37.3769 31.4091,37.7389 31.7291,38.1049 C31.7941,38.1799 31.8671,38.2499 31.9471,38.3089 C32.0491,38.3839 32.1051,38.4679 32.1211,38.6009 C32.1341,38.6959 32.1941,38.8039 32.2671,38.8719 C32.5461,39.1359 32.8441,39.3799 33.1231,39.6439 C33.2761,39.7869 33.4041,39.9549 33.5441,40.1119 C33.6411,40.2229 33.7551,40.2959 33.9061,40.2369 C34.0551,40.1789 34.0511,40.0429 34.0561,39.9129 C34.0721,39.4919 34.1001,39.0719 34.1071,38.6509 C34.1101,38.4339 34.0691,38.2149 34.0631,37.9959 C34.0551,37.7149 34.0551,37.4329 34.0651,37.1499 C34.0711,36.9499 34.1471,36.8989 34.3471,36.8489 C34.6601,36.7689 34.9601,36.8559 35.2981,36.8779" id="Fill-28" fill="#FEFEFE"></path>
                <path d="M98.7629,36.9082 C99.2609,36.6842 99.6559,36.7302 99.9429,37.0392 C99.9969,37.0972 100.0299,37.1772 100.0749,37.2442 C100.1109,37.2972 100.1409,37.3622 100.1919,37.3942 C100.5539,37.6252 100.7569,38.0032 101.0349,38.3092 C101.3789,38.6872 101.6639,39.1222 102.0309,39.4742 C102.2169,39.6542 102.3609,39.8502 102.4999,40.0552 C102.5989,40.2002 102.7119,40.2712 102.8869,40.2632 C102.9749,40.2602 103.0659,40.2822 103.1939,40.2982 L103.1939,36.8932 C103.5119,36.8442 103.7939,36.7682 104.0859,36.8092 C104.2599,36.8332 104.3459,36.9712 104.3889,37.1302 C104.4079,37.1992 104.4059,37.2752 104.4059,37.3482 C104.4049,39.0772 104.4029,40.8052 104.4009,42.5352 C104.4009,42.8922 104.3459,42.9472 103.9889,42.9562 C103.8789,42.9582 103.7689,42.9522 103.6589,42.9592 C103.4439,42.9722 103.2619,42.9282 103.1429,42.7222 C103.1089,42.6632 103.0379,42.6232 102.9839,42.5752 C102.9419,42.5392 102.8739,42.5132 102.8599,42.4702 C102.7629,42.1912 102.5379,42.0132 102.3419,41.8202 C102.0699,41.5532 101.9459,41.1682 101.6139,40.9482 C101.5219,40.8872 101.4869,40.7472 101.4059,40.6642 C101.0499,40.2982 100.6879,39.9392 100.3249,39.5812 C100.2959,39.5522 100.2449,39.5442 100.1939,39.5202 C100.0619,39.7042 100.0089,39.9012 100.0089,40.1142 C100.0089,40.5252 100.0109,40.9362 100.0109,41.3462 C100.0109,41.7662 100.0119,42.1862 100.0089,42.6062 C100.0079,42.7052 99.9969,42.8042 99.9879,42.9462 C99.5929,42.9602 99.2159,42.9732 98.8389,42.9862 C98.7149,42.8442 98.6889,42.6832 98.6889,42.5162 C98.6879,40.8862 98.6849,39.2562 98.6919,37.6252 C98.6929,37.3882 98.7379,37.1532 98.7629,36.9082" id="Fill-30" fill="#FEFEFE"></path>
                <path d="M43.2541,39.6895 L45.5921,39.6895 C45.6251,40.6085 45.6801,41.5075 45.5891,42.3915 C45.4251,42.4975 45.2821,42.5935 45.1351,42.6815 C44.8961,42.8215 44.6411,42.9045 44.3591,42.9295 C44.0901,42.9555 43.8241,43.0555 43.5561,43.0595 C42.7591,43.0715 41.9941,42.9135 41.2921,42.5135 C41.2141,42.4685 41.1431,42.4115 41.0741,42.3505 C40.9921,42.2785 40.9271,42.1825 40.8361,42.1245 C40.4901,41.8985 40.3061,41.5745 40.2091,41.1815 C40.1471,40.9255 40.0821,40.6655 39.9761,40.4255 C39.8171,40.0675 39.9091,39.7185 39.9831,39.3755 C40.0611,39.0095 40.1911,38.6565 40.3001,38.2975 C40.3131,38.2535 40.3231,38.1925 40.3561,38.1745 C40.5771,38.0565 40.6691,37.8365 40.8101,37.6495 C40.9231,37.5005 41.1351,37.4285 41.2921,37.3085 C41.7421,36.9625 42.2551,36.7935 42.8141,36.7515 C43.1141,36.7295 43.4161,36.7175 43.7181,36.7055 C43.8411,36.6995 43.9411,36.7335 44.0341,36.8335 C44.1021,36.9045 44.2171,36.9465 44.3171,36.9685 C44.5501,37.0205 44.7861,37.0525 45.0201,37.0945 C45.2481,37.1355 45.3551,37.2375 45.3861,37.4715 C45.4131,37.6795 45.4241,37.8895 45.4411,38.0985 C45.4571,38.3215 45.3451,38.4595 45.1981,38.5245 C44.9281,38.4305 44.6981,38.3555 44.4731,38.2705 C44.4071,38.2465 44.3551,38.1865 44.2911,38.1535 C44.2201,38.1175 44.1441,38.0735 44.0661,38.0675 C43.7121,38.0405 43.3561,38.0215 42.9991,38.0055 C42.7541,37.9955 42.5261,38.0485 42.3371,38.2195 C42.2971,38.2545 42.2471,38.2905 42.1961,38.3015 C41.8211,38.3935 41.6671,38.6885 41.5241,39.0025 C41.3851,39.3055 41.2871,39.6055 41.3071,39.9505 C41.3331,40.4045 41.5031,40.8095 41.7151,41.1895 C41.8071,41.3525 42.0271,41.4705 42.2151,41.5475 C42.4221,41.6335 42.6571,41.6515 42.8801,41.6965 C42.9151,41.7045 42.9591,41.6925 42.9881,41.7085 C43.2881,41.8725 43.6001,41.7395 43.9051,41.7505 C44.0691,41.7555 44.1661,41.6585 44.1741,41.4995 C44.1811,41.3645 44.1761,41.2225 44.1471,41.0905 C44.0951,40.8575 44.0281,40.8295 43.7791,40.8385 C43.3411,40.8555 43.1171,40.6965 43.1311,40.2385 C43.1411,39.9035 43.1321,39.9035 43.2541,39.6895" id="Fill-32" fill="#FEFEFE"></path>
                <path d="M114.3792,38.6211 C114.2552,38.5731 114.1532,38.5361 114.0542,38.4951 C113.8782,38.4231 113.7042,38.3491 113.5282,38.2751 C113.5122,38.2681 113.4872,38.2701 113.4772,38.2601 C113.2552,38.0171 112.9402,38.0541 112.6602,38.0031 C112.4522,37.9651 112.2302,38.0001 112.0142,38.0111 C111.9322,38.0151 111.8502,38.0331 111.7732,38.0601 C111.6652,38.0981 111.5622,38.1471 111.4592,38.1961 C111.4282,38.2111 111.4052,38.2511 111.3732,38.2611 C110.8972,38.4111 110.6612,38.7701 110.5022,39.2181 C110.4332,39.4141 110.3212,39.5941 110.3202,39.8101 C110.3202,39.8191 110.3142,39.8291 110.3162,39.8371 C110.4162,40.2921 110.4112,40.7871 110.8042,41.1331 C110.8452,41.1691 110.9002,41.1931 110.9312,41.2351 C111.2482,41.6601 111.6992,41.7501 112.1892,41.7521 C112.4272,41.7521 112.6652,41.7581 112.9032,41.7521 C113.0192,41.7491 113.1332,41.7251 113.2292,41.7141 C113.4202,41.3241 113.2462,41.0711 112.9882,40.8361 L112.3092,40.8361 C112.2682,40.5041 112.2202,40.1991 112.1962,39.8921 C112.1862,39.7461 112.2902,39.6771 112.4842,39.6761 C113.0072,39.6731 113.5282,39.6761 114.0512,39.6761 L114.5922,39.6761 C114.6082,39.7601 114.6342,39.8281 114.6342,39.8961 C114.6372,40.6291 114.6212,41.3621 114.6402,42.0951 C114.6502,42.4851 114.4172,42.6461 114.1652,42.7071 C113.6082,42.8421 113.0442,42.9561 112.4782,43.0511 C112.2942,43.0821 112.0972,43.0291 111.9052,43.0101 C111.3262,42.9501 110.7522,42.8341 110.2822,42.4821 C110.0182,42.2851 109.7112,42.0971 109.5742,41.7511 C109.5022,41.5671 109.3522,41.4151 109.2802,41.2311 C109.2112,41.0561 109.2292,40.8451 109.1532,40.6731 C109.0122,40.3491 109.0352,40.0151 109.0242,39.6781 C109.0082,39.2451 109.2192,38.8831 109.3672,38.5021 C109.4372,38.3241 109.5282,38.1531 109.6292,37.9921 C109.9132,37.5381 110.4132,37.3801 110.8522,37.1491 C111.3932,36.8651 111.9922,36.7471 112.6002,36.7261 C112.8222,36.7191 113.0512,36.8301 113.2762,36.8911 C113.4792,36.9451 113.6802,37.0051 113.8812,37.0621 C113.9862,37.0941 114.1002,37.1111 114.1942,37.1621 C114.2872,37.2131 114.4072,37.2831 114.4372,37.3701 C114.5452,37.7001 114.6202,38.0421 114.5292,38.3901 C114.5092,38.4701 114.4372,38.5351 114.3792,38.6211" id="Fill-34" fill="#FEFEFE"></path>
                <path d="M84.8098,38.2666 C84.8348,38.4676 84.8658,38.6266 84.8748,38.7876 C84.9018,39.2056 85.0438,39.3276 85.4498,39.2566 C85.5458,39.2406 85.6418,39.2156 85.7318,39.1966 C85.7778,39.0156 85.8388,38.8526 85.8548,38.6846 C85.8658,38.5766 85.8398,38.4396 85.7788,38.3516 C85.5308,37.9936 85.1418,37.8416 84.8098,38.2666 M83.5318,42.8436 L83.5318,36.9056 C83.7098,36.8026 83.8928,36.7846 84.0898,36.8176 C84.2238,36.8396 84.3658,36.8636 84.4978,36.8436 C85.0468,36.7626 85.5818,36.8366 86.0938,37.0156 C86.4958,37.1566 86.8178,37.3876 87.0458,37.8066 C87.3078,38.2866 87.2428,38.7436 87.1728,39.2156 C87.1508,39.3736 87.0358,39.5406 86.9168,39.6596 C86.6218,39.9536 86.7818,40.3696 86.9908,40.6576 C87.0798,40.7806 87.1578,40.9126 87.2388,41.0406 C87.3068,41.1486 87.3718,41.2586 87.4408,41.3656 C87.4958,41.4496 87.5548,41.5306 87.6128,41.6126 C87.7328,41.7826 87.8518,41.9536 87.9728,42.1226 C87.9938,42.1526 88.0258,42.1756 88.0418,42.2076 C88.0988,42.3216 88.1428,42.4426 88.2088,42.5496 C88.2748,42.6556 88.3618,42.7456 88.4748,42.8866 C88.3498,42.9186 88.2698,42.9556 88.1888,42.9566 C87.8768,42.9616 87.5658,42.9566 87.2538,42.9526 C87.0388,42.9496 86.8688,42.8716 86.7578,42.6706 C86.6218,42.4226 86.4858,42.1736 86.3208,41.9456 C86.0338,41.5476 85.7288,41.1626 85.4198,40.7816 C85.3498,40.6946 85.2348,40.6456 85.1568,40.5896 C84.9368,40.6656 84.8768,40.8036 84.8748,40.9866 C84.8708,41.3326 84.9198,41.6836 84.7888,42.0196 C84.7728,42.0576 84.7748,42.1206 84.7968,42.1526 C84.9358,42.3456 84.8368,42.5446 84.8098,42.7376 C84.7988,42.8106 84.7108,42.9256 84.6518,42.9296 C84.2828,42.9586 83.9068,43.0266 83.5318,42.8436" id="Fill-36" fill="#FEFEFE"></path>
                <path d="M75.2034,36.8936 C75.5834,36.7476 77.4414,36.7346 78.9324,36.8496 C79.0124,37.0716 79.0154,37.7056 78.9374,37.9526 C78.5354,38.1446 78.1064,38.1186 77.6774,38.1026 C77.4234,38.0926 77.1674,38.1066 76.9124,38.1206 C76.7754,38.1276 76.6924,38.2166 76.6884,38.3536 C76.6824,38.5646 76.6754,38.7766 76.6924,38.9856 C76.7094,39.1816 76.8274,39.2676 77.0594,39.2706 C77.5004,39.2766 77.9394,39.2646 78.3794,39.2786 C78.5564,39.2836 78.7294,39.3366 78.9224,39.3726 C78.9144,39.7286 79.0134,40.0416 78.8214,40.3446 C78.7374,40.4776 78.6454,40.5376 78.4914,40.5356 C78.0694,40.5306 77.6484,40.5346 77.2264,40.5356 C76.7354,40.5356 76.5114,40.8016 76.6274,41.2846 C76.7214,41.6746 76.7654,41.7556 77.2014,41.7476 C77.7324,41.7386 78.2654,41.7486 78.7964,41.7526 C78.8414,41.7536 78.8854,41.7666 78.9714,41.7806 C79.0264,42.1346 78.9834,42.4946 78.9854,42.8956 C78.7194,42.9276 78.4784,42.9736 78.2374,42.9826 C77.7264,42.9996 77.2164,42.9996 76.7044,43.0016 C76.4324,43.0026 76.1584,42.9946 75.8854,42.9916 C75.8044,42.9906 75.7224,42.9916 75.6404,42.9966 C75.3964,43.0096 75.2634,42.8926 75.2574,42.6446 C75.2464,42.1886 75.2414,41.7326 75.2354,41.2766 C75.2244,40.2606 75.2104,39.2446 75.2044,38.2276 C75.2034,37.9626 75.2364,37.6986 75.2384,37.4336 C75.2404,37.2546 75.2164,37.0766 75.2034,36.8936" id="Fill-38" fill="#FEFEFE"></path>
                <path d="M24.9739,36.8506 C25.1159,37.1086 25.1369,37.6986 25.0229,38.0406 C24.7869,38.0556 24.5349,38.0826 24.2829,38.0836 C23.9529,38.0856 23.6229,38.0766 23.2939,38.0556 C23.0529,38.0406 22.8629,38.1066 22.7269,38.3256 L22.7269,39.1536 C22.8879,39.2876 23.0439,39.3356 23.2449,39.2926 C23.4029,39.2586 23.5739,39.2786 23.7379,39.2776 C24.0479,39.2746 24.3589,39.2736 24.6689,39.2756 C24.7579,39.2756 24.8469,39.2886 24.9709,39.2996 C24.9709,39.6376 24.9789,39.9546 24.9639,40.2716 C24.9609,40.3326 24.8769,40.4246 24.8149,40.4426 C24.5959,40.5036 24.3719,40.5636 24.1469,40.5796 C23.8189,40.6026 23.4879,40.5856 23.1579,40.5886 C22.8369,40.5906 22.7189,40.7096 22.7139,41.0386 C22.7109,41.2136 22.7139,41.3876 22.7159,41.5616 C22.7169,41.5966 22.7299,41.6326 22.7449,41.7076 C22.8609,41.7196 22.9829,41.7426 23.1049,41.7436 C23.6829,41.7466 24.2599,41.7446 24.8369,41.7466 C24.9369,41.7466 25.0359,41.7556 25.1629,41.7626 C25.2119,42.1186 25.2339,42.4586 25.1499,42.7996 C25.1179,42.9286 25.0119,42.9566 24.8929,42.9566 C24.4179,42.9566 23.9449,42.9546 23.4709,42.9616 C23.2249,42.9646 22.9779,42.9956 22.7319,42.9926 C22.3669,42.9866 22.0009,42.9726 21.6379,42.9386 C21.4389,42.9196 21.3589,42.8006 21.3569,42.5676 C21.3509,41.8336 21.3519,41.1016 21.3519,40.3686 C21.3509,39.3236 21.3519,38.2796 21.3509,37.2346 C21.3509,36.8656 21.4109,36.7956 21.7799,36.8016 C22.1629,36.8086 22.5469,36.8336 22.9309,36.8466 C23.0589,36.8516 23.1869,36.8416 23.3149,36.8406 C23.4679,36.8386 23.6209,36.8396 23.7749,36.8386 C23.8479,36.8386 23.9199,36.8366 23.9939,36.8376 C24.3279,36.8416 24.6619,36.8466 24.9739,36.8506" id="Fill-40" fill="#FEFEFE"></path>
                <path d="M67.0627,36.8926 C67.7197,36.7816 68.3197,36.8036 68.9237,36.8426 C69.5107,36.8806 70.1057,36.6936 70.7197,36.8816 L70.7197,38.0276 C70.6207,38.0386 70.5247,38.0576 70.4287,38.0586 C69.9527,38.0626 69.4757,38.0606 68.9997,38.0616 C68.9077,38.0626 68.8147,38.0596 68.7247,38.0766 C68.5167,38.1156 68.3877,38.2646 68.3797,38.4756 C68.3747,38.6386 68.3787,38.8026 68.3787,39.0146 C68.4177,39.0576 68.4807,39.1566 68.5687,39.2136 C68.6537,39.2696 68.7637,39.3006 68.8667,39.3096 C69.0457,39.3256 69.2287,39.3186 69.4097,39.3176 C69.5377,39.3166 69.6657,39.3116 69.7917,39.3036 C69.8927,39.2966 69.9977,39.2596 70.0907,39.2786 C70.2647,39.3136 70.4317,39.3786 70.6017,39.4326 C70.6497,39.7056 70.8037,39.9676 70.6627,40.2576 C70.5787,40.4316 70.4487,40.5286 70.2547,40.5316 C69.7987,40.5386 69.3427,40.5396 68.8867,40.5486 C68.6667,40.5536 68.4747,40.6246 68.3497,40.8146 C68.3597,40.9756 68.3697,41.1296 68.3787,41.2846 C68.3977,41.5836 68.5677,41.7466 68.8677,41.7466 C69.3797,41.7486 69.8937,41.7466 70.4067,41.7486 C70.5147,41.7496 70.6227,41.7626 70.7507,41.7716 C70.8237,42.1216 70.8317,42.4546 70.7487,42.7856 C70.7067,42.9536 70.5497,42.9496 70.4107,42.9566 C69.9467,42.9816 69.4827,43.0106 69.0167,42.9616 C68.8197,42.9416 68.6167,43.0006 68.4167,42.9956 C68.0417,42.9846 67.6677,42.9596 67.2957,42.9286 C67.1217,42.9136 67.0567,42.7986 67.0547,42.6226 C67.0467,42.0556 67.0177,41.4896 67.0147,40.9216 C67.0077,39.7206 67.0117,38.5206 67.0167,37.3206 C67.0167,37.1786 67.0457,37.0376 67.0627,36.8926" id="Fill-42" fill="#FEFEFE"></path>
                <path d="M69.0579,49.75 C69.0249,48.438 69.0489,47.152 69.0399,45.831 C69.2539,45.831 69.4349,45.821 69.6129,45.837 C69.6729,45.842 69.7399,45.902 69.7849,45.953 C70.1359,46.35 70.4889,46.746 70.8299,47.151 C71.0529,47.416 71.2649,47.692 71.4689,47.973 C71.5449,48.078 71.6039,48.171 71.7649,48.097 C71.9189,47.376 71.7899,46.631 71.8619,45.868 C72.1759,45.804 72.4759,45.803 72.8019,45.874 C72.8109,45.977 72.8269,46.065 72.8269,46.153 C72.8289,47.17 72.8299,48.187 72.8279,49.203 C72.8259,49.716 72.7139,49.812 72.2009,49.77 C72.0179,49.754 71.8819,49.685 71.7659,49.527 C71.5659,49.256 71.3289,49.012 71.1149,48.751 C71.0179,48.634 70.9529,48.488 70.8489,48.38 C70.5859,48.107 70.3089,47.849 69.9859,47.533 C69.9499,47.687 69.9109,47.784 69.9089,47.881 C69.9009,48.247 69.9059,48.614 69.9059,48.98 C69.9049,49.108 69.9079,49.236 69.9009,49.364 C69.8809,49.718 69.8229,49.775 69.4679,49.776 C69.3439,49.776 69.2189,49.761 69.0579,49.75" id="Fill-44" fill="#FEFEFE"></path>
                <path d="M95.3616,47.4795 C95.2446,47.3575 95.1166,47.2605 95.0346,47.1335 C94.6886,46.5915 94.0526,46.4875 93.5646,46.6745 C93.1546,46.8325 92.9046,47.1345 92.8586,47.5735 C92.8316,47.8335 92.8536,48.0985 92.8536,48.2945 C93.3866,48.8755 93.9916,49.0695 94.6796,49.0235 C95.0766,48.5725 95.4236,48.1055 95.3616,47.4795 M94.8676,45.8325 C94.9116,45.9235 94.9426,45.9875 94.9696,46.0445 C94.9966,46.0545 95.0126,46.0675 95.0296,46.0665 C95.2856,46.0545 95.4656,46.1535 95.5646,46.4015 C95.5916,46.4715 95.6596,46.5425 95.7266,46.5775 C95.9826,46.7085 96.0816,46.9435 96.1396,47.1955 C96.2706,47.7505 96.2276,48.2925 95.9326,48.7905 C95.6416,49.2825 95.2156,49.6225 94.6506,49.7495 C94.1066,49.8705 93.5586,49.8845 93.0386,49.6395 C92.2936,49.2885 91.7036,48.3885 91.8986,47.4395 C91.9446,47.2165 92.0606,46.9755 92.2176,46.8155 C92.5496,46.4785 92.9306,46.1875 93.2946,45.8805 C93.3266,45.8535 93.3776,45.8335 93.4196,45.8335 C93.9036,45.8315 94.3866,45.8325 94.8676,45.8325" id="Fill-46" fill="#FEFEFE"></path>
                <path d="M42.8801,48.7813 C42.9411,48.6123 42.9901,48.4353 43.0661,48.2703 C43.3561,47.6353 43.1461,46.9453 42.5011,46.6793 C41.9101,46.4363 41.2281,46.5983 40.9211,47.2573 C40.7231,47.6833 40.8661,48.1363 40.8491,48.5743 C40.9781,48.6563 41.0891,48.7193 41.1921,48.7943 C41.5421,49.0513 41.9491,49.0323 42.3511,49.0433 C42.3851,49.0443 42.4211,49.0263 42.4521,49.0103 C42.5891,48.9383 42.7231,48.8653 42.8801,48.7813 M43.8251,46.9523 C43.8961,46.9813 43.9531,47.0063 44.0061,47.0283 C44.0201,47.0643 44.0381,47.0903 44.0381,47.1153 C44.0411,47.5453 44.0621,47.9753 44.0361,48.4033 C44.0201,48.6913 43.8761,48.9313 43.6491,49.1323 C43.2721,49.4653 42.8781,49.7433 42.3591,49.8073 C41.7991,49.8773 41.2481,49.8313 40.7751,49.5203 C40.4051,49.2783 40.0651,48.9713 39.9721,48.4943 C39.9611,48.4403 39.9531,48.3843 39.9301,48.3353 C39.7111,47.8743 39.7961,47.4163 39.9831,46.9803 C40.0651,46.7883 40.2351,46.6283 40.3851,46.4713 C40.5171,46.3333 40.6911,46.2343 40.8171,46.0923 C41.0061,45.8803 41.2331,45.8033 41.5041,45.8293 C41.8941,45.8653 42.2911,45.8733 42.6731,45.9533 C43.2971,46.0843 43.5781,46.3523 43.8251,46.9523" id="Fill-48" fill="#FEFEFE"></path>
                <path d="M98.1741,46.7285 C98.1601,46.9985 98.1981,47.2325 98.4351,47.4155 C98.6161,47.3535 98.8131,47.2865 99.0491,47.2055 C99.0121,47.1205 98.9931,47.0485 98.9531,46.9935 C98.9131,46.9365 98.8401,46.9035 98.8021,46.8455 C98.6371,46.5925 98.4851,46.5595 98.1741,46.7285 M98.4141,49.0375 L99.0321,49.0375 C99.0061,48.7895 99.3181,48.6665 99.2201,48.3965 C98.9951,48.2505 98.7541,48.1595 98.4761,48.1905 C98.2691,48.2135 98.2161,48.2795 98.1851,48.4795 C98.1471,48.7185 98.2901,48.8695 98.4141,49.0375 M97.4321,49.7595 C97.2061,49.2795 97.1121,46.5595 97.2861,45.8745 C97.3021,45.8645 97.3171,45.8465 97.3321,45.8465 C97.9181,45.8455 98.5031,45.8435 99.0881,45.8475 C99.1491,45.8485 99.2161,45.8745 99.2701,45.9065 C99.7141,46.1675 99.9451,46.8595 99.7431,47.3275 C99.6761,47.4835 99.6871,47.5965 99.7911,47.7515 C100.0351,48.1135 100.2801,48.4995 100.0671,48.9655 C99.9881,49.1345 99.8841,49.3105 99.7451,49.4265 C99.4581,49.6665 99.1111,49.7855 98.7301,49.7835 C98.3811,49.7815 98.0331,49.7845 97.6861,49.7815 C97.5961,49.7815 97.5071,49.7665 97.4321,49.7595" id="Fill-50" fill="#FEFEFE"></path>
                <path d="M112.7678,49.0654 C113.1628,48.4714 113.3298,47.8804 113.2478,47.2294 C113.0608,47.0914 112.8628,46.9834 112.7118,46.8284 C112.2928,46.3934 111.2308,46.5744 110.9488,47.2074 C110.7918,47.5544 110.7758,47.9194 110.9238,48.2694 C111.0028,48.4574 111.1438,48.6184 111.2998,48.8564 C111.7448,48.9194 112.2558,48.9924 112.7678,49.0654 M110.3158,46.5234 C110.5028,46.4554 110.7138,46.4194 110.8728,46.3084 C111.0208,46.2064 111.1128,46.0234 111.2448,45.8564 L112.9658,45.8564 C112.9608,45.8724 112.9568,45.8874 112.9538,45.9034 C113.0388,45.9724 113.1148,46.0744 113.2118,46.1044 C113.6088,46.2264 113.8368,46.5284 113.9978,46.8684 C114.2978,47.5034 114.3028,48.1694 113.9338,48.7664 C113.7048,49.1354 113.4088,49.4724 112.9538,49.6424 C112.2418,49.9074 111.5638,49.9054 110.8868,49.5554 C110.6408,49.4284 110.4498,49.2574 110.3438,48.9974 C110.3208,48.9404 110.2888,48.8654 110.2418,48.8434 C110.0788,48.7704 110.0728,48.6364 110.0848,48.4974 C110.1408,47.9054 110.2018,47.3124 110.2628,46.7204 C110.2688,46.6584 110.2948,46.5984 110.3158,46.5234" id="Fill-52" fill="#FEFEFE"></path>
                <path d="M93.843,39.9043 C93.843,40.7653 93.845,41.6273 93.841,42.4893 C93.84,42.8413 93.758,42.9313 93.413,42.9523 C93.203,42.9653 92.991,42.9643 92.782,42.9463 C92.703,42.9393 92.586,42.8833 92.563,42.8203 C92.5,42.6523 92.458,42.4693 92.447,42.2913 C92.434,42.0733 92.468,41.8523 92.469,41.6333 C92.473,40.6803 92.47,39.7283 92.473,38.7753 C92.473,38.6483 92.521,38.5133 92.492,38.3943 C92.404,38.0123 92.544,37.6383 92.507,37.2603 C92.499,37.1753 92.5,37.0623 92.548,37.0053 C92.617,36.9213 92.731,36.8273 92.829,36.8233 C93.102,36.8133 93.376,36.8383 93.649,36.8683 C93.805,36.8843 93.843,37.0143 93.843,37.1553 C93.844,37.4213 93.846,37.6863 93.846,37.9523 C93.847,38.6033 93.847,39.2543 93.847,39.9043 L93.843,39.9043 Z" id="Fill-54" fill="#FEFEFE"></path>
                <path d="M50.3586,36.7852 C50.4626,36.7682 50.5326,36.7442 50.6016,36.7472 C50.8846,36.7622 51.1686,36.7782 51.4496,36.8072 C51.6276,36.8272 51.7076,36.9552 51.7036,37.1702 C51.6876,38.0352 51.6686,38.9012 51.6616,39.7662 C51.6596,40.0212 51.7086,40.2772 51.7066,40.5322 C51.7046,40.8792 51.6696,41.2252 51.6616,41.5722 C51.6526,41.9362 51.6616,42.3012 51.6556,42.6652 C51.6516,42.9152 51.6126,42.9532 51.3686,42.9562 C51.1386,42.9592 50.9106,42.9582 50.6806,42.9552 C50.4066,42.9512 50.3496,42.8962 50.3426,42.6102 C50.3366,42.2902 50.3366,41.9692 50.3366,41.6482 C50.3366,40.1462 50.3366,38.6442 50.3376,37.1422 C50.3376,37.0342 50.3506,36.9262 50.3586,36.7852" id="Fill-56" fill="#FEFEFE"></path>
                <path d="M79.6213,45.8526 L80.5573,45.8526 C80.6803,46.8526 80.4433,47.8516 80.7273,48.8076 C81.1643,49.0176 81.6093,49.0316 82.0753,49.0416 C82.3503,47.9956 82.2643,46.9266 82.3363,45.8506 L83.1423,45.8506 C83.1553,45.9206 83.1793,45.9826 83.1773,46.0416 C83.1573,46.8656 83.1483,47.6896 83.1063,48.5116 C83.0703,49.2296 82.5903,49.6006 81.9493,49.7576 C81.6213,49.8376 81.2593,49.8086 80.9143,49.7876 C80.3303,49.7506 79.9953,49.3566 79.7933,48.8646 C79.6793,48.5836 79.6343,48.2616 79.6193,47.9566 C79.5913,47.3616 79.6063,46.7656 79.6053,46.1706 C79.6053,46.0806 79.6143,45.9906 79.6213,45.8526" id="Fill-58" fill="#FEFEFE"></path>
                <path d="M64.2737,49.7588 C64.5737,48.8918 64.8537,48.0818 65.1337,47.2718 C65.2167,47.2328 65.2897,47.1978 65.3937,47.1488 C65.4867,46.7228 65.5517,46.2588 65.9227,45.8518 L66.4867,45.8518 C66.6067,46.1078 66.7377,46.3768 66.8597,46.6508 C67.2387,47.5008 67.7007,48.3178 67.9597,49.2188 C68.0057,49.3808 68.0287,49.5498 68.0627,49.7248 C67.8047,49.8098 67.5887,49.7858 67.3777,49.7258 C67.3157,49.7078 67.2477,49.6508 67.2167,49.5918 C67.1117,49.3918 67.0107,49.1868 66.9297,48.9748 C66.8447,48.7508 66.7807,48.6858 66.5297,48.6788 C66.3007,48.6728 66.0727,48.6758 65.8437,48.6808 C65.5587,48.6868 65.4467,48.7888 65.3657,49.0758 C65.3267,49.2138 65.2547,49.3418 65.2077,49.4778 C65.1177,49.7258 64.9357,49.8038 64.6887,49.7798 C64.5737,49.7698 64.4567,49.7688 64.2737,49.7588" id="Fill-60" fill="#FEFEFE"></path>
                <path d="M26.008,49.7188 C25.928,49.4958 26.001,49.3158 26.077,49.1398 C26.207,48.8398 26.354,48.5468 26.48,48.2458 C26.653,47.8318 26.809,47.4118 26.98,46.9978 C27.114,46.6688 27.266,46.3458 27.399,46.0158 C27.45,45.8848 27.529,45.8268 27.666,45.8288 C27.838,45.8328 28.011,45.8298 28.185,45.8298 C28.213,45.8898 28.241,45.9278 28.25,45.9698 C28.419,46.7188 28.758,47.3988 29.093,48.0808 C29.302,48.5078 29.486,48.9478 29.673,49.3848 C29.718,49.4898 29.733,49.6088 29.761,49.7188 C29.269,49.8838 29.021,49.7818 28.827,49.3578 C28.756,49.1988 28.677,49.0438 28.606,48.8848 C28.542,48.7408 28.432,48.6778 28.28,48.6788 C28.005,48.6798 27.729,48.6668 27.456,48.6918 C27.329,48.7028 27.209,48.7878 27.096,48.8358 C27.052,48.9938 27.019,49.1268 26.978,49.2578 C26.835,49.7208 26.733,49.7938 26.25,49.7798 C26.205,49.7778 26.158,49.7768 26.114,49.7658 C26.08,49.7588 26.049,49.7378 26.008,49.7188" id="Fill-62" fill="#FEFEFE"></path>
                <path d="M22.5227,48.7969 C23.3617,49.0639 24.1797,49.0629 24.9837,48.5929 C25.0547,48.8999 25.0407,49.1599 25.0017,49.4169 C24.9927,49.4819 24.9137,49.5629 24.8467,49.5879 C24.0567,49.8899 23.2527,49.9759 22.4837,49.5599 C21.8747,49.2309 21.5427,48.6759 21.4787,47.9839 C21.4457,47.6189 21.4397,47.2459 21.6567,46.9189 C21.7317,46.8059 21.8077,46.6889 21.9037,46.5939 C22.0657,46.4329 22.2587,46.3019 22.4127,46.1339 C22.6327,45.8899 22.8957,45.8379 23.2057,45.8749 C23.7507,45.9399 24.2967,45.9889 24.8427,46.0479 C24.8947,46.0539 24.9447,46.0779 25.0047,46.0979 L25.0047,47.0059 C24.7807,46.9049 24.5947,46.8139 24.4037,46.7379 C24.0107,46.5829 23.6057,46.5219 23.1987,46.6639 C22.7387,46.8249 22.5297,47.2109 22.3877,47.6389 C22.3317,47.8099 22.3087,47.9959 22.2967,48.1779 C22.2917,48.2669 22.3417,48.3609 22.3767,48.4499 C22.4207,48.5679 22.4737,48.6829 22.5227,48.7969" id="Fill-64" fill="#FEFEFE"></path>
                <path d="M37.3977,47.4268 L38.0857,47.4268 C38.1007,47.2258 38.1287,47.0438 38.1217,46.8648 C38.1187,46.7918 38.0437,46.6768 37.9847,46.6628 C37.8457,46.6318 37.6927,46.6338 37.5517,46.6568 C37.4937,46.6658 37.4117,46.7608 37.4057,46.8228 C37.3857,47.0188 37.3977,47.2178 37.3977,47.4268 M36.4427,45.8488 C37.2357,45.8068 37.9877,45.9138 38.7507,46.0728 C38.9227,46.6358 39.0017,47.1978 38.8177,47.7508 C38.7277,48.0218 38.4467,48.1378 38.1667,48.1828 C38.0037,48.2088 37.8377,48.2108 37.6737,48.2288 C37.4337,48.2538 37.3707,48.3138 37.3677,48.5578 C37.3647,48.8048 37.3867,49.0518 37.3887,49.2978 C37.3907,49.7298 37.3347,49.7808 36.8937,49.7818 C36.8577,49.7818 36.8207,49.7828 36.7847,49.7808 C36.5747,49.7708 36.4667,49.6798 36.4297,49.4728 C36.4177,49.4018 36.4197,49.3258 36.4197,49.2528 C36.4197,48.2378 36.4197,47.2208 36.4207,46.2048 C36.4207,46.0978 36.4337,45.9908 36.4427,45.8488" id="Fill-66" fill="#FEFEFE"></path>
                <path d="M86.2532,48.4102 C86.6152,48.3512 86.6182,48.3542 86.7152,48.8222 C87.0622,48.8922 87.4232,48.9662 87.7792,49.0382 C87.9072,48.6732 87.7832,48.5072 87.5662,48.3432 C87.2542,48.1062 86.8802,47.9522 86.6262,47.6392 C86.5232,47.5132 86.4122,47.3842 86.3472,47.2362 C86.3032,47.1392 86.3072,47.0032 86.3362,46.8972 C86.3782,46.7422 86.4712,46.6012 86.5282,46.4492 C86.6562,46.1092 86.8912,45.8942 87.2532,45.8622 C87.5532,45.8352 87.8572,45.8212 88.1552,45.8512 C88.3042,45.8662 88.4412,45.9932 88.5972,46.0752 C88.6242,46.3862 88.6732,46.6882 88.5882,46.9762 C88.3842,47.0692 88.2822,46.9632 88.1842,46.8482 C88.0082,46.6432 87.7762,46.5732 87.5182,46.5982 C87.2782,46.6212 87.2142,46.7272 87.2902,46.9512 C87.3192,47.0372 87.3552,47.1212 87.3862,47.2032 C87.5902,47.3152 87.7932,47.4212 87.9892,47.5372 C88.5792,47.8852 88.7682,48.5392 88.6482,49.1552 C88.6342,49.2232 88.6002,49.2972 88.5552,49.3492 C88.1612,49.7992 87.3622,49.9672 86.8082,49.7212 C86.7072,49.6762 86.6112,49.6222 86.5142,49.5712 C86.3442,49.4842 86.2532,49.3472 86.2532,49.1532 C86.2542,48.9082 86.2532,48.6642 86.2532,48.4102" id="Fill-68" fill="#FEFEFE"></path>
                <path d="M63.4494,46.0996 C63.5344,46.4456 63.5284,46.7976 63.4274,47.0336 C63.2684,47.0426 63.1624,46.9466 63.0534,46.8476 C62.8624,46.6736 62.6334,46.5906 62.3774,46.5916 C62.1874,46.5926 62.1284,46.6606 62.1374,46.8426 C62.1434,46.9606 62.1604,47.0786 62.1734,47.1956 C62.3934,47.3196 62.6154,47.4286 62.8214,47.5616 C63.3804,47.9186 63.5454,48.4766 63.4934,49.0856 C63.4624,49.4506 63.1654,49.6706 62.8164,49.7616 C62.3304,49.8876 61.8514,49.8666 61.4224,49.5666 C61.3474,49.5146 61.2594,49.4216 61.2534,49.3426 C61.2334,49.0356 61.2454,48.7256 61.2454,48.4236 C61.4014,48.3396 61.4794,48.4196 61.5364,48.5176 C61.7644,48.9176 62.1354,49.0236 62.5574,49.0256 C62.7414,48.6396 62.6224,48.4276 62.2984,48.2206 C62.0154,48.0396 61.6884,47.9176 61.4824,47.6336 C61.4094,47.5336 61.3244,47.4196 61.3064,47.3026 C61.2634,47.0336 61.2594,46.7566 61.2394,46.4836 C61.2304,46.3616 61.2884,46.2836 61.3924,46.2166 C61.8594,45.9216 62.3784,45.8406 62.9164,45.8336 C62.9754,45.8326 63.0404,45.8586 63.0954,45.8876 C63.2134,45.9526 63.3264,46.0266 63.4494,46.0996" id="Fill-70" fill="#FEFEFE"></path>
                <path d="M108.2004,46.7988 C107.9284,46.6048 107.7444,46.5808 107.4434,46.7008 C107.4004,46.9628 107.3254,47.2328 107.6184,47.4548 C107.7944,47.4448 107.9894,47.4328 108.2004,47.4198 L108.2004,46.7988 Z M107.4224,48.2688 C107.4154,48.5848 107.3974,48.8758 107.4054,49.1668 C107.4114,49.3608 107.4194,49.5488 107.3134,49.7508 L106.6824,49.7508 C106.6024,49.5448 106.5774,46.2058 106.6554,45.8428 C107.0054,45.8738 107.3584,45.9028 107.7124,45.9388 C108.0034,45.9678 108.2934,46.0108 108.5844,46.0378 C108.7754,46.0558 108.9014,46.1438 108.9934,46.3138 C109.4284,47.1178 109.0904,47.7908 108.3524,48.1108 C108.1504,48.1988 107.9054,48.1878 107.6794,48.2218 C107.6094,48.2328 107.5394,48.2468 107.4224,48.2688 Z" id="Fill-72" fill="#FEFEFE"></path>
                <path d="M104.7844,48.6084 C104.4404,48.3974 104.1264,48.1934 103.8004,48.0104 C103.5374,47.8634 103.3554,47.6744 103.3034,47.3644 C103.2424,47.0134 103.1564,46.6674 103.2114,46.2964 C103.7784,45.9374 104.3904,45.8004 105.0494,45.8794 C105.1384,45.8894 105.2804,45.9884 105.2874,46.0574 C105.3174,46.3544 105.3094,46.6554 105.3064,46.9544 C105.3064,46.9864 105.2524,47.0184 105.2194,47.0534 C105.0364,46.9274 104.8674,46.8054 104.6924,46.6914 C104.4614,46.5384 104.2314,46.5734 103.9684,46.7064 C104.0244,46.8864 104.0754,47.0484 104.1254,47.2074 C104.3444,47.2944 104.5474,47.3754 104.7604,47.4614 C104.7584,47.6974 104.9254,47.7724 105.1064,47.8244 C105.2344,47.8594 105.2944,47.9414 105.3474,48.0594 C105.4964,48.3894 105.5614,48.7124 105.4094,49.0644 C105.2874,49.3464 105.1204,49.5844 104.8374,49.6974 C104.3144,49.9074 103.7974,49.8834 103.3104,49.5794 C103.2564,49.5454 103.1994,49.4664 103.1964,49.4074 C103.1804,49.0874 103.1804,48.7674 103.1794,48.4484 C103.1794,48.4264 103.2084,48.4054 103.2444,48.3574 C103.3234,48.4194 103.4204,48.4634 103.4714,48.5404 C103.7794,49.0014 104.2374,49.0564 104.7644,49.0324 C104.7714,48.8964 104.7774,48.7644 104.7844,48.6084" id="Fill-74" fill="#FEFEFE"></path>
                <path d="M49.716,49.7783 C49.616,49.7783 49.517,49.7803 49.416,49.7773 C49.089,49.7683 48.985,49.6783 48.973,49.3523 C48.959,48.9403 48.964,48.5273 48.962,48.1153 C48.96,47.8343 48.904,47.5893 48.699,47.3633 C48.431,47.0673 48.21,46.7273 47.966,46.4093 C47.834,46.2373 47.697,46.0703 47.527,45.8543 L48.627,45.8543 C48.841,46.1953 49.073,46.5653 49.317,46.9523 C49.374,46.9163 49.435,46.8933 49.474,46.8513 C49.665,46.6423 49.858,46.4323 50.037,46.2143 C50.159,46.0673 50.299,45.9593 50.485,45.9153 C50.77,45.8463 51.057,45.8383 51.397,45.8433 C51.341,45.9443 51.316,46.0093 51.274,46.0613 C50.957,46.4533 50.657,46.8603 50.315,47.2273 C49.95,47.6183 49.86,48.0633 49.91,48.5693 C49.934,48.7963 49.937,49.0253 49.94,49.2553 C49.942,49.4443 49.881,49.6143 49.716,49.7783" id="Fill-76" fill="#FEFEFE"></path>
                <path d="M56.3078,46.542 C56.5108,46.513 56.6568,46.599 56.7918,46.742 C57.0398,47.005 57.2398,47.269 57.2978,47.653 C57.3788,48.175 57.1778,48.521 56.7958,48.835 C56.4498,49.121 56.0618,49.172 55.6738,49.033 C55.4088,48.939 55.1128,48.774 54.9638,48.552 C54.7728,48.265 54.6138,47.901 54.8078,47.521 C54.8248,47.489 54.8398,47.454 54.8458,47.419 C54.9508,46.847 55.3548,46.649 55.8728,46.591 C56.0178,46.574 56.1628,46.559 56.3078,46.542" id="Fill-78" fill="#FEFEFE"></path>
                <path d="M30.72,45.8526 L31.617,45.8526 C31.626,45.9576 31.642,46.0536 31.642,46.1506 C31.644,46.9476 31.64,47.7446 31.644,48.5406 C31.645,48.7026 31.672,48.8636 31.69,49.0536 L33.225,49.0536 C33.289,49.2986 33.288,49.5096 33.19,49.7396 C33.105,49.7516 33.017,49.7766 32.928,49.7766 C32.333,49.7796 31.738,49.7776 31.143,49.7766 C31.124,49.7766 31.106,49.7756 31.087,49.7746 C30.798,49.7486 30.699,49.6426 30.699,49.3546 C30.698,48.5766 30.699,47.7976 30.7,47.0196 C30.7,46.7366 30.699,46.4526 30.702,46.1676 C30.702,46.0786 30.712,45.9886 30.72,45.8526" id="Fill-80" fill="#FEFEFE"></path>
                <path d="M77.2864,49.0625 L78.8054,49.0625 C78.8184,49.1645 78.8374,49.2425 78.8384,49.3205 C78.8474,49.7285 78.7974,49.7795 78.3914,49.7795 C77.8244,49.7815 77.2574,49.7815 76.6894,49.7805 C76.5994,49.7805 76.5094,49.7725 76.4274,49.7685 C76.3484,49.5545 76.3184,46.3235 76.3884,45.8485 L77.1904,45.8485 C77.2024,45.9665 77.2234,46.0715 77.2234,46.1765 C77.2254,46.9275 77.2204,47.6775 77.2264,48.4285 C77.2284,48.6265 77.2634,48.8255 77.2864,49.0625" id="Fill-82" fill="#FEFEFE"></path>
                <path d="M45.2698,45.8447 L46.0978,45.8447 C46.1208,46.8987 46.0888,47.9537 46.1138,49.0457 L47.6808,49.0457 L47.6808,49.7687 C46.8958,49.7917 46.1238,49.7807 45.3168,49.7727 C45.2878,49.6227 45.2418,49.4927 45.2408,49.3637 C45.2348,48.2557 45.2378,47.1497 45.2388,46.0417 C45.2388,45.9897 45.2548,45.9367 45.2698,45.8447" id="Fill-84" fill="#FEFEFE"></path>
                <path d="M101.1096,45.8506 L101.9516,45.8506 C101.9626,45.9716 101.9776,46.0696 101.9776,46.1656 C101.9796,47.2006 101.9786,48.2356 101.9786,49.2696 C101.9786,49.3326 101.9786,49.3986 101.9706,49.4606 C101.9386,49.7176 101.8776,49.7736 101.6216,49.7786 C101.4676,49.7816 101.3156,49.7796 101.1196,49.7796 C101.1006,48.4506 101.1156,47.1636 101.1096,45.8506" id="Fill-86" fill="#FEFEFE"></path>
                <path d="M85.1467,49.7539 L84.4447,49.7539 C84.3757,49.5439 84.3537,46.2209 84.4207,45.8459 L85.1887,45.8459 C85.2957,46.1519 85.2677,49.4309 85.1467,49.7539" id="Fill-88" fill="#FEFEFE"></path>
            </g>
        </g>
    </g>
</svg>