<?xml version="1.0" encoding="UTF-8"?>
<svg width="108px" height="35px" viewBox="0 0 108 35" version="1.1" xmlns="http://www.w3.org/2000/svg" xmlns:xlink="http://www.w3.org/1999/xlink">
    <!-- Generator: Sketch 52.4 (67378) - http://www.bohemiancoding.com/sketch -->
    <title>CP CS</title>
    <desc>Created with Sketch.</desc>
    <defs>
        <polygon id="path-1" points="0.122617204 0.697 16.378 0.697 16.378 18.970489 0.122617204 18.970489"></polygon>
        <polygon id="path-3" points="0.3541 0.143817651 5.42140234 0.143817651 5.42140234 7 0.3541 7"></polygon>
    </defs>
    <g id="Live-Site" stroke="none" stroke-width="1" fill="none" fill-rule="evenodd">
        <g id="sponsors-live" transform="translate(-107.000000, -1176.000000)">
            <g id="CP-CS" transform="translate(107.000000, 1175.000000)">
                <path d="M108,23.4766 C107.751,23.5376 107.541,23.6346 107.33,23.6346 C71.649,23.6226 35.97,23.6046 0.29,23.5786 C0.188,23.5786 0.087,23.4466 0,23.3856 C0.011,22.7906 0.433,22.8626 0.769,22.8596 C1.675,22.8506 2.583,22.8716 3.49,22.8726 C6.731,22.8736 9.972,22.8726 13.213,22.8726 C43.482,22.8726 73.752,22.8726 104.021,22.8726 C105.092,22.8726 106.161,22.8516 107.23,22.8596 C107.563,22.8626 107.99,22.7826 108,23.4766" id="Fill-1" fill="#FEFEFE"></path>
                <path d="M50.2989,1.8477 C50.5649,1.7307 50.8289,1.5157 51.0969,1.5117 C54.0339,1.4647 56.9859,1.1237 59.8929,1.8527 C61.1839,2.1757 62.2799,2.8277 63.1659,3.8287 C64.9809,5.8767 64.6739,8.9627 62.4869,10.6107 C61.4769,11.3717 60.3419,11.7867 59.0719,11.8437 C58.1499,11.8857 57.2179,12.1007 56.1709,11.6337 C56.4029,11.4537 56.5369,11.2827 56.7069,11.2337 C56.9509,11.1637 57.2209,11.1857 57.4789,11.1687 C60.7799,10.9497 61.8839,8.6477 61.5029,5.9717 C61.1919,3.7857 59.7429,2.5807 57.5169,2.4737 C57.0319,2.4507 56.5409,2.4317 56.0629,2.4877 C55.7369,2.5257 55.4289,2.6967 55.0649,2.8257 L55.0649,3.9847 L55.0649,15.3497 C55.0649,15.6087 55.0599,15.8687 55.0759,16.1257 C55.1589,17.4757 55.5719,17.8867 56.9089,17.9987 C57.2889,18.0307 57.6639,18.1187 58.0729,18.1857 L58.0729,18.9637 C57.4939,18.9637 56.9849,18.9627 56.4759,18.9637 C54.7319,18.9637 52.9869,18.9747 51.2429,18.9587 C50.7819,18.9547 50.1799,19.2057 49.9459,18.2947 C50.3599,18.1827 50.7329,18.0457 51.1169,17.9847 C52.1129,17.8267 52.4169,17.5577 52.4629,16.5467 C52.5139,15.4157 52.5039,14.2817 52.5049,13.1487 C52.5069,10.1697 52.5139,7.1917 52.4929,4.2127 C52.4839,2.7797 52.4179,2.7347 51.0519,2.4057 C50.8149,2.3487 50.5889,2.2417 50.3579,2.1577 C50.3379,2.0537 50.3189,1.9517 50.2989,1.8477" id="Fill-3" fill="#FEFEFE"></path>
                <g id="Group-7" transform="translate(0.000000, 0.302800)">
                    <mask id="mask-2" fill="white">
                        <use xlink:href="#path-1"></use>
                    </mask>
                    <g id="Clip-6"></g>
                    <path d="M16.378,14.582 C16.272,15.921 15.766,17.085 15.081,18.318 C14.236,18.484 13.361,18.73 12.471,18.814 C10.472,19.005 8.459,19.119 6.493,18.557 C3.135,17.595 1.044,15.387 0.351,11.972 C-0.383,8.362 0.643,5.305 3.563,2.982 C6.373,0.747 9.566,0.252 13.003,1.061 C13.848,1.261 14.671,1.549 15.457,1.782 C15.813,3.085 15.932,5.126 15.703,5.753 C15.248,5.946 15.063,5.686 14.94,5.299 C14.802,4.869 14.697,4.421 14.5,4.019 C13.82,2.636 12.599,2.029 11.148,1.842 C7.336,1.35 4.105,3.728 3.387,7.563 C2.846,10.451 3.357,13.124 5.294,15.393 C7.053,17.453 9.291,18.289 11.991,17.661 C13.508,17.309 14.587,16.406 15.301,15.037 C15.489,14.676 15.645,14.221 16.378,14.582" id="Fill-5" fill="#FEFEFE" mask="url(#mask-2)"></path>
                </g>
                <path d="M77.7334,12.7422 C77.7274,10.7652 77.3284,9.0882 76.2544,7.6192 C74.4864,5.2032 70.8444,5.1752 69.0564,7.5682 C67.8484,9.1842 67.7584,11.0612 67.9554,12.9562 C68.0964,14.3252 68.5854,15.5952 69.4634,16.6912 C71.2564,18.9282 74.8574,18.8862 76.5714,16.5962 C77.4674,15.3982 77.6824,14.0032 77.7334,12.7422 M73.1784,4.7642 C74.8734,4.8552 76.7394,5.2332 78.2024,6.6402 C80.3684,8.7252 80.9414,11.2882 80.1534,14.1272 C79.3534,17.0042 77.3254,18.6022 74.4594,19.2062 C72.9314,19.5272 71.4304,19.3642 69.9564,18.9002 C64.7284,17.2592 63.7514,10.8022 67.0054,7.2422 C68.4804,5.6302 70.6044,4.7572 73.1784,4.7642" id="Fill-8" fill="#FEFEFE"></path>
                <path d="M23.793,8.1407 C22.976,9.2207 22.019,12.0317 22.162,12.7727 C23.092,13.0247 24.641,12.9977 25.457,12.6697 C24.913,11.1897 24.368,9.7067 23.793,8.1407 M16.698,18.3637 C16.958,18.2377 17.216,18.0437 17.502,17.9877 C18.348,17.8197 18.884,17.3227 19.189,16.5437 C19.72,15.1887 20.25,13.8327 20.772,12.4747 C21.354,10.9647 21.93,9.4527 22.501,7.9397 C22.647,7.5507 22.771,7.1527 22.938,6.6607 C22.444,6.4107 21.999,6.1837 21.467,5.9127 C21.48,5.7227 21.494,5.4937 21.513,5.2027 L25.199,5.2027 C25.352,5.5617 25.539,5.9577 25.689,6.3697 C26.937,9.8057 28.175,13.2447 29.422,16.6807 C29.67,17.3647 30.13,17.8217 30.868,17.9817 C31.141,18.0397 31.398,18.1727 31.866,18.3477 C31.583,18.6327 31.436,18.8377 31.237,18.9617 C31.119,19.0367 30.922,18.9927 30.761,18.9927 C29.405,18.9947 28.051,18.9947 26.695,18.9947 C26.273,18.9947 25.814,19.0447 25.856,18.2887 C26.238,18.1407 26.647,17.9827 27.038,17.8297 C27.14,17.1307 26.603,15.4147 25.891,14.1967 L21.578,14.1967 C21.025,15.3397 20.487,16.4537 20.451,17.7637 C20.94,17.9367 21.355,18.0827 21.736,18.2177 C21.916,18.6657 21.79,18.9137 21.38,18.9787 C21.158,19.0127 20.928,18.9857 20.701,18.9857 C19.703,18.9867 18.704,18.9897 17.705,18.9877 C17.3,18.9877 16.837,19.0837 16.698,18.3637" id="Fill-10" fill="#FEFEFE"></path>
                <path d="M99.2823,5.1514 C99.3673,5.3864 99.4283,5.5554 99.5023,5.7584 C99.3013,5.8804 99.1443,5.9834 98.9803,6.0714 C98.8123,6.1624 98.6373,6.2394 98.4853,6.3124 C98.4373,7.1464 100.1393,10.6984 101.2263,11.9744 C102.2453,10.1254 103.2333,8.3324 104.2803,6.4304 C103.7363,6.2094 103.3333,6.0444 102.9073,5.8714 C102.7503,5.4164 102.9243,5.1674 103.3793,5.1614 C104.7993,5.1454 106.2193,5.1564 107.5893,5.1564 C107.9973,5.6894 107.7973,6.0384 107.3423,6.0824 C106.0533,6.2084 105.4813,7.1324 104.9003,8.0834 C104.1063,9.3824 103.3063,10.6774 102.5093,11.9744 C101.4003,13.7744 101.6823,15.6834 101.9743,17.7014 C102.7033,17.8944 103.3723,18.0724 104.0973,18.2644 C104.0603,18.5234 104.0313,18.7244 103.9973,18.9644 L97.1923,18.9644 C97.1283,18.7764 97.0623,18.5834 96.9643,18.2914 C97.3653,18.1824 97.6953,18.0704 98.0343,18.0054 C99.0743,17.8084 99.2313,17.5864 99.3183,16.5414 C99.4743,14.6384 99.1303,12.8994 98.0533,11.2764 C97.3403,10.2014 96.8033,9.0084 96.2043,7.8604 C95.7403,6.9714 95.2303,6.1704 94.0823,6.0944 C93.8893,6.0824 93.7083,5.8924 93.5553,5.8034 C93.4933,5.2864 93.7533,5.1534 94.1253,5.1524 C95.8393,5.1484 97.5533,5.1514 99.2823,5.1514" id="Fill-12" fill="#FEFEFE"></path>
                <path d="M32.7139,5.8887 L32.7139,5.2287 L39.2919,5.2287 C39.1149,5.5737 39.0459,5.8217 38.8879,5.9817 C38.7669,6.1047 38.5319,6.1177 38.3479,6.1787 C37.5309,6.4497 37.3669,6.6277 37.3349,7.4937 C37.2989,8.4647 37.3059,9.4367 37.3079,10.4087 C37.3109,12.3837 37.2999,14.3597 37.3399,16.3327 C37.3629,17.4667 37.6799,17.7547 38.8079,17.8117 C39.3889,17.8407 39.9729,17.8157 40.5559,17.8267 C41.8319,17.8487 42.7129,17.2627 43.2339,16.1087 C43.3259,15.9027 43.3899,15.6537 43.5459,15.5117 C43.7249,15.3507 43.9909,15.2867 44.4069,15.0947 C44.4239,16.5957 44.0899,17.7707 43.5209,18.9527 L40.2029,18.9527 C38.3289,18.9547 36.4549,18.9547 34.5809,18.9597 C34.1279,18.9607 33.6749,18.9967 33.2229,18.9817 C32.8529,18.9687 32.5999,18.8037 32.7029,18.2387 C32.9719,18.1587 33.2899,18.0407 33.6189,17.9687 C34.4519,17.7847 34.7349,17.5227 34.7419,16.6517 C34.7659,13.6077 34.7669,10.5637 34.7459,7.5197 C34.7399,6.5897 34.5089,6.3787 33.5769,6.1457 C33.2989,6.0757 33.0269,5.9827 32.7139,5.8887" id="Fill-14" fill="#FEFEFE"></path>
                <path d="M86.9151,17.3018 C87.9101,18.0188 90.9681,18.0888 91.9141,17.3598 C92.2851,17.0728 92.5611,16.6488 92.8351,16.2558 C93.0361,15.9688 93.1641,15.6298 93.3401,15.2838 L94.0921,15.2838 C94.1371,16.6208 93.7601,17.7808 93.2321,18.9428 C92.0791,18.9428 90.9851,18.9418 89.8931,18.9438 C87.8891,18.9458 85.8861,18.9478 83.8831,18.9528 C83.5271,18.9538 83.1631,19.0258 82.8181,18.9698 C82.5891,18.9328 82.3871,18.7278 82.1731,18.5978 C82.1821,18.5118 82.1911,18.4258 82.2001,18.3408 C82.4731,18.2228 82.7341,18.0618 83.0191,17.9948 C84.0111,17.7608 84.1321,17.6508 84.1371,16.6348 C84.1461,14.1428 84.1411,11.6498 84.1411,9.1568 C84.1411,8.6068 84.1491,8.0568 84.1361,7.5058 C84.1111,6.5208 83.9931,6.3848 83.0081,6.1228 C82.7601,6.0578 82.5161,5.9808 82.2241,5.8948 L82.2241,5.2038 L88.4281,5.2038 C88.4671,5.4078 88.5061,5.6088 88.5531,5.8558 C87.9701,6.0778 87.4381,6.2808 86.9691,6.4608 C86.4311,7.7118 86.4181,15.9678 86.9151,17.3018" id="Fill-16" fill="#FEFEFE"></path>
                <path d="M28.7618,32.2745 L28.7618,30.4205 L28.7618,29.4275 C28.5568,29.2725 28.3718,29.1315 28.0718,28.9035 C28.6108,28.7525 29.0328,28.6335 29.4818,28.5075 C29.5948,28.6765 29.6938,28.8255 29.7918,28.9735 C30.9198,28.2495 31.2838,28.2675 32.3448,29.1335 C32.5888,28.9785 32.8378,28.7855 33.1158,28.6485 C34.1148,28.1515 35.1438,28.7165 35.2128,29.8315 C35.2638,30.6345 35.2228,31.4435 35.2228,32.2315 C35.4348,32.4155 35.5968,32.5555 35.8438,32.7715 L34.3568,32.7715 C34.3568,31.9005 34.3548,31.1015 34.3568,30.3025 C34.3588,29.8605 34.2808,29.4405 33.8318,29.2435 C33.3658,29.0385 32.9488,29.1575 32.5348,29.6555 C32.6258,30.6205 32.0528,31.7515 33.0188,32.7755 L31.0898,32.7755 C31.8508,31.8485 31.7128,30.8105 31.4518,29.7975 C31.3848,29.5385 30.9968,29.2465 30.7128,29.1905 C30.4658,29.1425 30.0728,29.3355 29.8918,29.5465 C29.3798,30.1455 29.5598,32.0745 30.1938,32.7715 L28.1598,32.7715 C28.3758,32.5925 28.5228,32.4715 28.7618,32.2745" id="Fill-18" fill="#FEFEFE"></path>
                <g id="Group-22" transform="translate(36.000000, 28.302800)">
                    <mask id="mask-4" fill="white">
                        <use xlink:href="#path-3"></use>
                    </mask>
                    <g id="Clip-21"></g>
                    <path d="M1.9971,3.5664 C2.8861,4.2294 3.6531,4.2024 4.1481,3.5244 C4.6721,2.8064 4.5891,1.6254 3.9781,1.1244 C3.3691,0.6244 2.6441,0.7904 1.9971,1.5874 L1.9971,3.5664 Z M2.0181,4.6544 L2.0181,6.5774 C2.2071,6.6874 2.3931,6.7954 2.7421,7.0004 L0.4741,7.0004 C0.7091,6.8004 0.8701,6.6654 1.0441,6.5184 L1.0441,1.0894 C0.8421,0.9544 0.6591,0.8334 0.3541,0.6294 C0.8871,0.4744 1.3251,0.3454 1.7761,0.2144 C1.8931,0.4404 1.9761,0.6004 2.0651,0.7754 C2.3891,0.5894 2.6741,0.3634 2.9991,0.2494 C4.3451,-0.2226 5.6581,0.9594 5.3851,2.3744 C5.0931,3.8814 3.8691,4.7274 2.0181,4.6544 Z" id="Fill-20" fill="#FEFEFE" mask="url(#mask-4)"></path>
                </g>
                <path d="M22.3985,26.7081 C22.3165,27.1591 22.2435,27.5571 22.1705,27.9531 C22.1165,27.9661 22.0625,27.9791 22.0075,27.9911 C21.8655,27.7031 21.7225,27.4161 21.5805,27.1281 C20.6375,26.5771 19.1535,26.6051 18.3925,27.2421 C17.3905,28.0811 17.3865,29.2291 17.6075,30.3641 C17.8115,31.4171 18.8015,32.2891 19.8545,32.3471 C20.6395,32.3891 21.4355,32.2561 22.2845,32.1961 C22.2515,32.2721 22.2325,32.4411 22.1395,32.5101 C21.1205,33.2581 19.0285,33.1911 17.8085,32.3871 C16.7055,31.6591 16.1755,30.2931 16.4775,28.8961 C16.7395,27.6871 17.4885,26.8801 18.6515,26.5131 C19.8835,26.1221 21.1155,26.1751 22.3985,26.7081" id="Fill-23" fill="#FEFEFE"></path>
                <path d="M61.5977,32.5469 C61.6247,32.1709 61.6567,31.7529 61.6867,31.3359 C61.7557,31.3279 61.8257,31.3209 61.8947,31.3139 C62.0177,31.5859 62.1407,31.8579 62.2487,32.0979 C63.7367,32.9369 64.6667,32.5729 65.0317,31.0379 C64.9327,30.4589 64.6017,30.1369 63.9917,30.0889 C63.6697,30.0639 63.3507,29.9889 63.0347,29.9199 C62.1247,29.7219 61.6737,29.3019 61.5797,28.5809 C61.4617,27.6669 61.8647,26.8699 62.6977,26.5189 C63.6117,26.1329 64.5237,26.2139 65.5137,26.6869 C65.4837,27.0699 65.4527,27.4519 65.4197,27.8799 C65.0127,27.4689 64.7477,27.0359 64.3677,26.8659 C64.0237,26.7139 63.5267,26.7629 63.1427,26.8779 C62.5177,27.0649 62.3647,27.6119 62.5767,28.7859 C63.0777,28.9079 63.6497,29.0969 64.2357,29.1789 C65.0337,29.2899 65.6917,29.5449 65.9107,30.4019 C66.1027,31.1509 65.6687,32.0329 64.8887,32.5529 C63.9457,33.1819 62.7427,33.1979 61.5977,32.5469" id="Fill-25" fill="#FEFEFE"></path>
                <path d="M77.8545,28.9043 C78.4475,28.7393 78.8135,28.6373 79.2255,28.5223 C79.3715,28.6493 79.5305,28.7873 79.7055,28.9393 C79.8605,28.8453 79.9915,28.7513 80.1335,28.6813 C81.2935,28.1253 82.3315,28.6823 82.4285,29.9583 C82.4865,30.6973 82.4395,31.4443 82.4395,32.1963 C82.6465,32.3873 82.8245,32.5513 83.0845,32.7933 L81.5185,32.7933 C81.5055,32.1503 81.4925,31.5513 81.4815,30.9533 C81.4785,30.7583 81.4815,30.5643 81.4785,30.3703 C81.4715,29.9083 81.4675,29.4243 80.9445,29.2253 C80.4425,29.0353 79.9925,29.1663 79.5765,29.6653 C79.5695,30.6513 79.2085,31.7363 79.9215,32.7873 L78.1195,32.7873 C78.7205,32.2073 78.5605,31.4983 78.5415,30.8393 C78.5225,30.2063 78.8485,29.4473 77.8545,28.9043" id="Fill-27" fill="#FEFEFE"></path>
                <path d="M46.4698,32.2237 C46.7118,32.4237 46.8768,32.5597 47.1498,32.7847 L45.8308,32.7847 C45.7388,32.6727 45.6028,32.5097 45.4448,32.3207 C45.2708,32.4507 45.1228,32.5727 44.9648,32.6757 C44.4458,33.0187 43.8938,33.1477 43.3168,32.8397 C42.7158,32.5197 42.6188,31.9517 42.6428,31.3407 C42.6558,30.9867 42.7408,30.6197 42.6808,30.2797 C42.5988,29.8177 42.4078,29.3747 42.2388,28.8457 C42.5388,28.7667 42.9648,28.6547 43.5408,28.5037 L43.5408,31.7277 C43.9488,32.3497 44.3688,32.4947 44.7568,32.2277 C45.1008,31.9917 45.4778,31.6167 45.5658,31.2387 C45.6998,30.6587 45.6008,30.0237 45.6008,29.4097 C45.3878,29.2627 45.2058,29.1377 44.9058,28.9307 C45.4528,28.7817 45.9018,28.6597 46.4698,28.5047 L46.4698,32.2237 Z" id="Fill-29" fill="#FEFEFE"></path>
                <path d="M26.6866,30.876 C26.5286,30.394 26.4206,29.886 26.1976,29.436 C25.9826,28.999 25.5446,28.805 25.0526,28.863 C24.5586,28.921 24.1756,29.203 24.1066,29.702 C24.0366,30.2 23.9986,30.735 24.1056,31.22 C24.3326,32.259 24.8296,32.655 25.5816,32.558 C26.2426,32.472 26.5756,31.925 26.6866,30.876 M23.0706,30.796 C23.0696,29.394 23.9776,28.461 25.3456,28.459 C26.6376,28.457 27.6116,29.393 27.5866,30.613 C27.5596,31.989 26.4566,33.052 25.0756,33.031 C23.8436,33.013 23.0726,32.152 23.0706,30.796" id="Fill-31" fill="#FEFEFE"></path>
                <path d="M76.4415,30.1778 C76.3335,29.1738 75.9855,28.7758 75.3585,28.8648 C74.7425,28.9498 74.5085,29.3348 74.6155,30.1778 L76.4415,30.1778 Z M77.3155,30.6148 C76.3985,30.6648 75.5115,30.7138 74.6385,30.7618 C74.3825,32.1588 75.0965,32.5658 77.1575,32.1998 C77.0245,32.7258 76.5995,32.7938 76.2245,32.9048 C75.3365,33.1648 74.5195,32.9908 73.9375,32.2768 C73.2855,31.4788 73.2605,30.5278 73.6975,29.6228 C74.0795,28.8318 74.7925,28.4598 75.6735,28.4628 C76.8465,28.4668 77.4395,29.1738 77.3155,30.6148 Z" id="Fill-33" fill="#FEFEFE"></path>
                <path d="M52.8633,28.7979 C51.9323,29.2229 51.8803,29.2999 51.9013,30.1609 L53.7483,30.1609 C53.9143,29.3389 53.5503,28.9839 52.8633,28.7979 M54.6943,30.5699 C54.2663,30.6129 53.8063,30.6769 53.3443,30.6989 C52.8683,30.7229 52.3893,30.7039 51.9203,30.7039 C51.8193,32.1529 52.3943,32.4699 54.5203,32.2359 C53.7793,33.2279 52.1863,33.3009 51.3553,32.3349 C50.6783,31.5479 50.6753,30.6209 51.0323,29.6939 C51.3143,28.9579 52.1833,28.4549 53.0573,28.4609 C54.2173,28.4689 54.8243,29.1839 54.6943,30.5699" id="Fill-35" fill="#FEFEFE"></path>
                <path d="M88.8116,30.1758 L90.6526,30.1758 C90.5736,29.1628 90.2316,28.7708 89.5746,28.8598 C88.9496,28.9448 88.7136,29.3248 88.8116,30.1758 M91.3646,32.2168 C91.2146,32.7328 90.7876,32.8018 90.4076,32.9098 C89.5196,33.1628 88.7296,32.9628 88.1226,32.2678 C87.5336,31.5928 87.4806,30.3098 87.9476,29.5218 C88.3806,28.7888 89.3226,28.3498 90.1886,28.4768 C91.1746,28.6208 91.6476,29.3098 91.5076,30.5958 C90.6316,30.6538 89.7246,30.7138 88.8276,30.7738 C88.6156,32.1608 89.2616,32.5288 91.3646,32.2168" id="Fill-37" fill="#FEFEFE"></path>
                <path d="M48.3594,29.5362 C48.1254,29.3942 47.9704,29.3022 47.7794,29.1862 C47.9774,29.0042 48.1384,28.8552 48.3144,28.6942 C48.3454,28.3162 48.3774,27.9332 48.4154,27.4722 C48.6384,27.3662 48.8824,27.2512 49.2374,27.0832 L49.2374,28.5482 C49.6714,28.6802 50.0454,28.7932 50.4184,28.9052 C50.4214,28.9912 50.4244,29.0772 50.4274,29.1632 C50.0874,29.2512 49.7464,29.3392 49.3134,29.4512 L49.3134,32.1462 C49.6294,32.2422 49.9514,32.3402 50.3454,32.4592 C49.9694,32.9562 49.5174,33.0632 48.9834,32.8832 C48.4694,32.7102 48.3524,32.2922 48.3574,31.8022 C48.3654,31.0592 48.3594,30.3182 48.3594,29.5362" id="Fill-39" fill="#FEFEFE"></path>
                <path d="M87.0303,29.9883 C86.7203,29.5893 86.5963,29.3493 86.4043,29.1963 C85.9103,28.8033 85.1203,28.9273 84.7643,29.4563 C84.2953,30.1533 84.4253,30.8763 84.7653,31.5803 C85.0723,32.2123 85.5953,32.4543 86.2843,32.3773 C86.5293,32.3493 86.7773,32.3393 87.0763,32.3163 C86.4783,33.1093 85.3683,33.2323 84.4753,32.6663 C83.6013,32.1113 83.2943,30.7403 83.8093,29.7003 C84.3233,28.6673 85.7983,28.2043 87.1193,28.7453 C87.0953,29.0693 87.0703,29.4313 87.0303,29.9883" id="Fill-41" fill="#FEFEFE"></path>
                <path d="M70.2207,28.8272 C70.1747,29.1602 70.1327,29.4642 70.0847,29.8062 C69.6687,29.5022 69.3667,29.1662 68.9927,29.0342 C68.3187,28.7952 67.6647,29.2142 67.5477,29.9212 C67.3377,31.1912 67.8207,32.7512 69.6867,32.3282 C69.8017,32.3022 69.9257,32.3112 70.0847,32.3032 C69.5807,33.0812 68.4347,33.2372 67.5307,32.7022 C66.6207,32.1642 66.2967,30.5812 66.8927,29.5882 C67.5057,28.5632 69.0107,28.1792 70.2207,28.8272" id="Fill-43" fill="#FEFEFE"></path>
                <path d="M58.5987,28.6211 C58.5797,28.9481 58.5647,29.2301 58.5437,29.5911 C58.2017,29.4981 57.9137,29.4201 57.5727,29.3281 C56.5777,30.1591 57.1627,31.2561 56.9927,32.2421 C57.2577,32.4101 57.4867,32.5551 57.8507,32.7851 L55.5757,32.7851 C56.6667,31.7761 55.8567,30.5361 56.1837,29.4621 C55.9177,29.2771 55.7397,29.1521 55.4257,28.9331 C55.9527,28.7791 56.3837,28.6531 56.8207,28.5251 C56.9427,28.7521 57.0277,28.9101 57.1297,29.1001 C57.5467,28.7871 57.8787,28.2941 58.5987,28.6211" id="Fill-45" fill="#FEFEFE"></path>
                <path d="M70.6875,32.7989 C70.9455,32.5769 71.1035,32.4429 71.2955,32.2779 L71.2955,29.4359 C71.1245,29.2959 70.9365,29.1449 70.6415,28.9059 C71.1915,28.7559 71.6385,28.6339 72.1315,28.4999 C72.6595,29.9269 71.8365,31.4619 72.7305,32.7989 L70.6875,32.7989 Z" id="Fill-47" fill="#FEFEFE"></path>
                <path d="M72.6495,27.0245 C72.3045,27.3585 72.1375,27.5195 71.8145,27.8335 C71.5415,27.3585 71.3635,27.1345 71.2925,26.8795 C71.2685,26.7985 71.5485,26.5185 71.6465,26.5385 C71.9015,26.5915 72.1325,26.7605 72.6495,27.0245" id="Fill-49" fill="#FEFEFE"></path>
            </g>
        </g>
    </g>
</svg>