<?xml version="1.0" encoding="UTF-8"?>
<svg width="72px" height="31px" viewBox="0 0 72 31" version="1.1" xmlns="http://www.w3.org/2000/svg" xmlns:xlink="http://www.w3.org/1999/xlink">
    <!-- Generator: Sketch 52.4 (67378) - http://www.bohemiancoding.com/sketch -->
    <title>MLH</title>
    <desc>Created with Sketch.</desc>
    <defs>
        <polygon id="path-1" points="0.0419 0.183591939 4.0189 0.183591939 4.0189 4 0.0419 4"></polygon>
        <polygon id="path-3" points="0 30.3191 72 30.3191 72 0.0001 0 0.0001"></polygon>
    </defs>
    <g id="Live-Site" stroke="none" stroke-width="1" fill="none" fill-rule="evenodd">
        <g id="sponsors-live" transform="translate(-648.000000, -1169.000000)">
            <g id="MLH" transform="translate(648.000000, 1169.000000)">
                <g id="Group-3" transform="translate(0.000000, 26.319100)">
                    <mask id="mask-2" fill="white">
                        <use xlink:href="#path-1"></use>
                    </mask>
                    <g id="Clip-2"></g>
                    <path d="M3.6399,0.2334 C3.7239,0.2754 3.7869,0.3184 3.8499,0.3604 C3.9129,0.4224 3.9549,0.4864 3.9769,0.5704 C3.9969,0.6544 4.0189,0.7384 4.0189,0.8234 L4.0189,3.8944 C4.0189,3.9164 4.0189,3.9584 3.9969,3.9584 C3.9769,3.9784 3.9549,3.9784 3.9349,3.9784 L3.1769,3.9784 C3.1559,3.9784 3.1349,3.9784 3.1139,3.9584 C3.0929,3.9364 3.0929,3.9164 3.0929,3.8944 L3.0929,1.1174 L2.4829,1.1174 L2.4829,3.8944 C2.4829,3.9164 2.4829,3.9584 2.4619,3.9584 C2.4409,3.9784 2.4189,3.9784 2.3989,3.9784 L1.7039,3.9784 C1.6829,3.9784 1.6409,3.9784 1.6409,3.9584 C1.6199,3.9364 1.6199,3.9164 1.6199,3.8944 L1.6199,1.1174 L1.0099,1.1174 L1.0099,3.8944 C1.0099,3.9584 0.9679,4.0004 0.9049,4.0004 L0.1479,4.0004 C0.0839,4.0004 0.0419,3.9584 0.0419,3.8944 L0.0419,0.2964 C0.0419,0.2334 0.0839,0.1914 0.1479,0.1914 L3.4299,0.1914 C3.4929,0.1714 3.5769,0.1914 3.6399,0.2334" id="Fill-1" fill="#FEFEFE" mask="url(#mask-2)"></path>
                </g>
                <mask id="mask-4" fill="white">
                    <use xlink:href="#path-3"></use>
                </mask>
                <g id="Clip-5"></g>
                <path d="M5.829,28.2991 L7.112,28.2991 L7.112,27.3521 L5.829,27.3521 L5.829,28.2991 Z M7.449,26.4901 C7.533,26.4901 7.617,26.5101 7.7,26.5321 C7.784,26.5741 7.848,26.6161 7.911,26.6581 C7.974,26.7211 8.016,26.7841 8.037,26.8691 C8.059,26.9531 8.079,27.0371 8.079,27.1211 L8.079,30.1931 C8.079,30.2141 8.079,30.2561 8.059,30.2561 C8.037,30.2771 8.016,30.2771 7.995,30.2771 L7.238,30.2771 C7.217,30.2771 7.175,30.2771 7.175,30.2561 C7.154,30.2351 7.154,30.2141 7.154,30.1931 L7.154,29.2251 C7.154,29.2041 7.154,29.1621 7.133,29.1621 C7.112,29.1401 7.09,29.1401 7.07,29.1401 L5.996,29.1401 C5.976,29.1401 5.933,29.1401 5.933,29.1621 C5.912,29.1831 5.912,29.2041 5.912,29.2251 L5.912,30.1931 C5.912,30.2561 5.87,30.2981 5.807,30.2981 L5.05,30.2981 C4.987,30.2981 4.945,30.2561 4.945,30.1931 L4.945,27.1211 C4.945,27.0371 4.965,26.9531 4.987,26.8691 C5.029,26.7841 5.071,26.7211 5.113,26.6581 C5.176,26.5941 5.239,26.5521 5.324,26.5321 C5.408,26.4901 5.492,26.4901 5.575,26.4901 L7.449,26.4901 Z" id="Fill-4" fill="#FEFEFE" mask="url(#mask-4)"></path>
                <path d="M11.5091,26.532 C11.5301,26.553 11.5301,26.574 11.5301,26.594 L11.5301,29.667 C11.5301,29.751 11.5091,29.835 11.4881,29.92 C11.4461,30.004 11.4041,30.066 11.3621,30.13 C11.2991,30.193 11.2361,30.235 11.1521,30.256 C11.0681,30.298 10.9831,30.298 10.8991,30.298 L9.2581,30.298 C9.1731,30.298 9.0891,30.277 9.0051,30.256 C8.9211,30.214 8.8581,30.172 8.7951,30.13 C8.7321,30.066 8.6901,30.004 8.6681,29.92 C8.6261,29.835 8.6261,29.751 8.6261,29.667 L8.6261,28.51 C8.6261,28.446 8.6681,28.404 8.7321,28.404 L9.4891,28.404 C9.5521,28.404 9.5941,28.446 9.5941,28.51 L9.5941,29.288 C9.5941,29.309 9.5941,29.33 9.6151,29.351 C9.6361,29.372 9.6571,29.372 9.6791,29.372 L10.4571,29.372 C10.4781,29.372 10.5201,29.372 10.5201,29.351 C10.5411,29.33 10.5411,29.309 10.5411,29.288 L10.5411,26.616 C10.5411,26.594 10.5411,26.553 10.5621,26.553 C10.5831,26.532 10.6051,26.532 10.6251,26.532 L11.3831,26.532 C11.4461,26.49 11.4881,26.511 11.5091,26.532" id="Fill-6" fill="#FEFEFE" mask="url(#mask-4)"></path>
                <path d="M13.319,29.3721 L14.602,29.3721 L14.602,27.4161 L13.319,27.4161 L13.319,29.3721 Z M14.939,26.4901 C15.023,26.4901 15.107,26.5101 15.191,26.5321 C15.276,26.5741 15.338,26.6161 15.402,26.6581 C15.464,26.7211 15.507,26.7841 15.528,26.8691 C15.549,26.9531 15.57,27.0371 15.57,27.1211 L15.57,29.6461 C15.57,29.7301 15.549,29.8141 15.528,29.8981 C15.486,29.9821 15.444,30.0461 15.402,30.1091 C15.338,30.1721 15.276,30.2141 15.191,30.2351 C15.107,30.2771 15.023,30.2771 14.939,30.2771 L13.024,30.2771 C12.94,30.2771 12.856,30.2561 12.772,30.2351 C12.688,30.1931 12.624,30.1511 12.561,30.1091 C12.498,30.0461 12.456,29.9821 12.435,29.8981 C12.393,29.8141 12.393,29.7301 12.393,29.6461 L12.393,27.1211 C12.393,27.0371 12.413,26.9531 12.435,26.8691 C12.456,26.7841 12.519,26.7211 12.561,26.6581 C12.624,26.5941 12.688,26.5521 12.772,26.5321 C12.856,26.4901 12.94,26.4901 13.024,26.4901 L14.939,26.4901 Z" id="Fill-7" fill="#FEFEFE" mask="url(#mask-4)"></path>
                <path d="M17.358,28.3001 L18.662,28.3001 L18.662,27.3741 L17.358,27.3741 L17.358,28.3001 Z M19.736,30.2141 C19.757,30.2351 19.757,30.2561 19.736,30.2771 C19.715,30.2981 19.715,30.2981 19.673,30.2981 L18.81,30.2981 C18.789,30.2981 18.747,30.2981 18.726,30.2771 L18.662,30.2141 L18.095,29.1831 C18.095,29.1621 18.074,29.1621 18.053,29.1621 L17.401,29.1621 C17.379,29.1621 17.379,29.1621 17.379,29.1831 L17.379,30.1931 C17.379,30.2561 17.337,30.2981 17.274,30.2981 L16.517,30.2981 C16.453,30.2981 16.411,30.2561 16.411,30.1931 L16.411,26.5941 C16.411,26.5321 16.453,26.4901 16.517,26.4901 L18.979,26.4901 C19.063,26.4901 19.147,26.5101 19.231,26.5321 C19.315,26.5741 19.378,26.6161 19.442,26.6581 C19.504,26.7211 19.546,26.7841 19.568,26.8691 C19.61,26.9531 19.61,27.0371 19.61,27.1211 L19.61,28.5511 C19.61,28.6991 19.568,28.8041 19.484,28.9301 C19.399,29.0361 19.294,29.1201 19.167,29.1621 L19.147,29.1621 C19.125,29.1621 19.125,29.1831 19.125,29.2041 L19.125,29.2251 L19.736,30.2141 Z" id="Fill-8" fill="#FEFEFE" mask="url(#mask-4)"></path>
                <path d="M24.8489,29.3718 C24.8699,29.3718 24.8909,29.3718 24.9109,29.3928 C24.9329,29.4148 24.9329,29.4348 24.9329,29.4568 L24.9329,30.1718 C24.9329,30.1928 24.9329,30.2348 24.9109,30.2348 C24.8909,30.2558 24.8699,30.2558 24.8489,30.2558 L22.5129,30.2558 C22.4509,30.2558 22.4079,30.2138 22.4079,30.1508 L22.4079,26.5528 C22.4079,26.4898 22.4509,26.4478 22.5129,26.4478 L23.2709,26.4478 C23.3329,26.4478 23.3759,26.4898 23.3759,26.5528 L23.3759,29.2258 C23.3759,29.2458 23.3759,29.2678 23.3969,29.2878 C23.4179,29.3098 23.4389,29.3098 23.4599,29.3098 L24.8489,29.3098 L24.8489,29.3718 Z" id="Fill-9" fill="#FEFEFE" mask="url(#mask-4)"></path>
                <path d="M28.3626,26.532 C28.3836,26.553 28.3836,26.574 28.3836,26.594 L28.3836,26.911 L28.3836,27.079 L28.3836,27.289 C28.3836,27.31 28.3836,27.332 28.3626,27.352 C28.3416,27.374 28.3206,27.374 28.2996,27.374 L27.9206,27.374 L26.7846,27.374 L26.4896,27.374 C26.4686,27.374 26.4686,27.374 26.4686,27.394 L26.4686,27.983 C26.4686,28.005 26.4686,28.005 26.4896,28.005 L28.0476,28.005 C28.0676,28.005 28.0896,28.005 28.1096,28.026 C28.1316,28.047 28.1316,28.068 28.1316,28.089 L28.1316,28.636 C28.1316,28.657 28.1316,28.699 28.1096,28.699 C28.0896,28.72 28.0676,28.72 28.0476,28.72 L26.4896,28.72 C26.4686,28.72 26.4686,28.72 26.4686,28.741 L26.4686,29.014 L26.4686,29.33 C26.4686,29.351 26.4686,29.351 26.4896,29.351 L26.7206,29.351 L27.9416,29.351 L28.2996,29.351 C28.3206,29.351 28.3626,29.351 28.3626,29.372 C28.3836,29.393 28.3836,29.415 28.3836,29.435 L28.3836,29.646 L28.3836,29.92 L28.3836,30.109 C28.3836,30.13 28.3836,30.172 28.3626,30.172 C28.3416,30.193 28.3206,30.193 28.2996,30.193 L27.9836,30.193 L25.9226,30.193 L25.6056,30.193 C25.5436,30.193 25.5016,30.151 25.5016,30.088 L25.5016,29.898 L25.5016,26.742 L25.5016,26.49 C25.5016,26.469 25.5016,26.427 25.5216,26.427 C25.5436,26.406 25.5636,26.406 25.5856,26.406 L25.9846,26.406 L28.1096,26.406 L28.2786,26.406 C28.3206,26.49 28.3416,26.511 28.3626,26.532" id="Fill-10" fill="#FEFEFE" mask="url(#mask-4)"></path>
                <path d="M30.193,28.2991 L31.476,28.2991 L31.476,27.3521 L30.193,27.3521 L30.193,28.2991 Z M31.813,26.4901 C31.897,26.4901 31.982,26.5101 32.066,26.5321 C32.15,26.5741 32.213,26.6161 32.276,26.6581 C32.339,26.7211 32.381,26.7841 32.402,26.8691 C32.423,26.9531 32.445,27.0371 32.445,27.1211 L32.445,30.1931 C32.445,30.2141 32.445,30.2561 32.423,30.2561 C32.402,30.2771 32.381,30.2771 32.36,30.2771 L31.581,30.2771 C31.561,30.2771 31.519,30.2771 31.519,30.2561 C31.497,30.2351 31.497,30.2141 31.497,30.1931 L31.497,29.2251 C31.497,29.2041 31.497,29.1621 31.476,29.1621 C31.455,29.1401 31.434,29.1401 31.413,29.1401 L30.319,29.1401 C30.298,29.1401 30.256,29.1401 30.256,29.1621 C30.235,29.1831 30.235,29.2041 30.235,29.2251 L30.235,30.1931 C30.235,30.2561 30.193,30.2981 30.13,30.2981 L29.372,30.2981 C29.309,30.2981 29.267,30.2561 29.267,30.1931 L29.267,27.1211 C29.267,27.0371 29.288,26.9531 29.309,26.8691 C29.351,26.7841 29.393,26.7211 29.436,26.6581 C29.498,26.5941 29.562,26.5521 29.646,26.5321 C29.73,26.4901 29.814,26.4901 29.899,26.4901 L31.813,26.4901 Z" id="Fill-11" fill="#FEFEFE" mask="url(#mask-4)"></path>
                <path d="M36.4632,28.2576 C36.4842,28.2786 36.4842,28.2996 36.4842,28.3196 L36.4842,29.6666 C36.4842,29.7506 36.4632,29.8346 36.4422,29.9196 C36.4002,30.0036 36.3582,30.0666 36.3162,30.1296 C36.2522,30.1936 36.1902,30.2356 36.1052,30.2556 C36.0212,30.2976 35.9372,30.2976 35.8532,30.2976 L33.9382,30.2976 C33.8542,30.2976 33.7702,30.2776 33.6862,30.2556 C33.6022,30.2136 33.5382,30.1716 33.4752,30.1296 C33.4122,30.0666 33.3702,30.0036 33.3492,29.9196 C33.3072,29.8346 33.3072,29.7506 33.3072,29.6666 L33.3072,27.1426 C33.3072,27.0576 33.3272,26.9736 33.3492,26.8896 C33.3702,26.8056 33.4332,26.7416 33.4752,26.6796 C33.5382,26.6156 33.6022,26.5736 33.6862,26.5526 C33.7702,26.5106 33.8542,26.5106 33.9382,26.5106 L36.1902,26.5106 C36.2102,26.5106 36.2522,26.5106 36.2522,26.5316 C36.2742,26.5526 36.2742,26.5736 36.2742,26.5946 L36.2742,27.3106 C36.2742,27.3316 36.2742,27.3736 36.2522,27.3736 C36.2322,27.3946 36.2102,27.3946 36.1902,27.3946 L34.3802,27.3946 C34.3592,27.3946 34.3172,27.3946 34.3172,27.4156 C34.2962,27.4366 34.2962,27.4576 34.2962,27.4786 L34.2962,29.2456 C34.2962,29.2676 34.2962,29.2876 34.3172,29.3096 C34.3382,29.3296 34.3592,29.3296 34.3802,29.3296 L35.4532,29.3296 C35.4742,29.3296 35.4952,29.3296 35.5162,29.3096 C35.5372,29.2876 35.5372,29.2676 35.5372,29.2456 L35.5372,28.2996 C35.5372,28.2786 35.5372,28.2366 35.5582,28.2366 C35.5792,28.2146 35.6002,28.2146 35.6212,28.2146 L36.3792,28.2146 C36.4002,28.2146 36.4422,28.2366 36.4632,28.2576" id="Fill-12" fill="#FEFEFE" mask="url(#mask-4)"></path>
                <path d="M40.4603,26.532 C40.4813,26.553 40.4813,26.574 40.4813,26.594 L40.4813,29.667 C40.4813,29.751 40.4603,29.835 40.4393,29.92 C40.3983,30.004 40.3563,30.066 40.3133,30.13 C40.2503,30.193 40.1873,30.235 40.1033,30.256 C40.0193,30.298 39.9353,30.298 39.8503,30.298 L37.9363,30.298 C37.8523,30.298 37.7683,30.277 37.6833,30.256 C37.5993,30.214 37.5363,30.172 37.4733,30.13 C37.4093,30.066 37.3673,30.004 37.3473,29.92 C37.3053,29.835 37.3053,29.751 37.3053,29.667 L37.3053,26.594 C37.3053,26.532 37.3473,26.49 37.4093,26.49 L38.1673,26.49 C38.2313,26.49 38.2723,26.532 38.2723,26.594 L38.2723,29.267 C38.2723,29.288 38.2723,29.309 38.2933,29.33 C38.3143,29.351 38.3353,29.351 38.3563,29.351 L39.4303,29.351 C39.4503,29.351 39.4723,29.351 39.4923,29.33 C39.5143,29.309 39.5143,29.288 39.5143,29.267 L39.5143,26.594 C39.5143,26.574 39.5143,26.532 39.5343,26.532 C39.5563,26.511 39.5763,26.511 39.5983,26.511 L40.3563,26.511 C40.4183,26.49 40.4393,26.511 40.4603,26.532" id="Fill-13" fill="#FEFEFE" mask="url(#mask-4)"></path>
                <path d="M44.2269,26.532 C44.2479,26.553 44.2479,26.574 44.2479,26.594 L44.2479,26.911 L44.2479,27.079 L44.2479,27.289 C44.2479,27.31 44.2479,27.332 44.2269,27.352 C44.2059,27.374 44.1849,27.374 44.1639,27.374 L43.7849,27.374 L42.6489,27.374 L42.3539,27.374 C42.3329,27.374 42.3329,27.374 42.3329,27.394 L42.3329,27.983 C42.3329,28.005 42.3329,28.005 42.3539,28.005 L43.9119,28.005 C43.9319,28.005 43.9539,28.005 43.9739,28.026 C43.9959,28.047 43.9959,28.068 43.9959,28.089 L43.9959,28.636 C43.9959,28.657 43.9959,28.699 43.9739,28.699 C43.9539,28.72 43.9319,28.72 43.9119,28.72 L42.3539,28.72 C42.3329,28.72 42.3329,28.72 42.3329,28.741 L42.3329,29.014 L42.3329,29.33 C42.3329,29.351 42.3329,29.351 42.3539,29.351 L42.5849,29.351 L43.8059,29.351 L44.1639,29.351 C44.1849,29.351 44.2269,29.351 44.2269,29.372 C44.2479,29.393 44.2479,29.415 44.2479,29.435 L44.2479,29.646 L44.2479,29.92 L44.2479,30.109 C44.2479,30.13 44.2479,30.172 44.2269,30.172 C44.2059,30.193 44.1849,30.193 44.1639,30.193 L43.8479,30.193 L41.7869,30.193 L41.4699,30.193 C41.4079,30.193 41.3659,30.151 41.3659,30.088 L41.3659,29.898 L41.3659,26.742 L41.3659,26.49 C41.3659,26.469 41.3659,26.427 41.3859,26.427 C41.4079,26.406 41.4279,26.406 41.4499,26.406 L41.8489,26.406 L43.9739,26.406 L44.1429,26.406 C44.1849,26.49 44.2059,26.511 44.2269,26.532" id="Fill-14" fill="#FEFEFE" mask="url(#mask-4)"></path>
                <path d="M50.055,26.49 C50.076,26.49 50.118,26.49 50.118,26.511 C50.139,26.532 50.139,26.552 50.139,26.574 L50.139,30.172 C50.139,30.193 50.139,30.235 50.118,30.235 C50.097,30.256 50.076,30.256 50.055,30.256 L49.297,30.256 C49.277,30.256 49.235,30.256 49.235,30.235 C49.213,30.214 49.213,30.193 49.213,30.172 L49.213,28.909 C49.213,28.888 49.213,28.867 49.193,28.846 C49.171,28.825 49.151,28.825 49.129,28.825 L48.056,28.825 C48.035,28.825 47.993,28.825 47.993,28.846 C47.972,28.867 47.972,28.888 47.972,28.909 L47.972,30.172 C47.972,30.235 47.93,30.277 47.867,30.277 L47.11,30.277 C47.046,30.277 47.004,30.235 47.004,30.172 L47.004,26.574 C47.004,26.511 47.046,26.469 47.11,26.469 L47.867,26.469 C47.93,26.469 47.972,26.511 47.972,26.574 L47.972,27.795 C47.972,27.857 48.014,27.899 48.077,27.899 L49.151,27.899 C49.171,27.899 49.193,27.899 49.213,27.879 C49.235,27.857 49.235,27.837 49.235,27.815 L49.235,26.594 C49.235,26.574 49.235,26.532 49.255,26.532 C49.277,26.511 49.297,26.511 49.319,26.511 L50.055,26.511 L50.055,26.49 Z" id="Fill-15" fill="#FEFEFE" mask="url(#mask-4)"></path>
                <path d="M51.97,28.2991 L53.253,28.2991 L53.253,27.3521 L51.97,27.3521 L51.97,28.2991 Z M53.569,26.4901 C53.653,26.4901 53.737,26.5101 53.822,26.5321 C53.906,26.5741 53.968,26.6161 54.032,26.6581 C54.095,26.7211 54.137,26.7841 54.158,26.8691 C54.179,26.9531 54.2,27.0371 54.2,27.1211 L54.2,30.1931 C54.2,30.2141 54.2,30.2561 54.179,30.2561 C54.158,30.2771 54.137,30.2771 54.116,30.2771 L53.359,30.2771 C53.337,30.2771 53.295,30.2771 53.295,30.2561 C53.274,30.2351 53.274,30.2141 53.274,30.1931 L53.274,29.2251 C53.274,29.2041 53.274,29.1621 53.253,29.1621 C53.232,29.1401 53.211,29.1401 53.19,29.1401 L52.117,29.1401 C52.096,29.1401 52.054,29.1401 52.054,29.1621 C52.033,29.1831 52.033,29.2041 52.033,29.2251 L52.033,30.1931 C52.033,30.2561 51.991,30.2981 51.927,30.2981 L51.17,30.2981 C51.107,30.2981 51.065,30.2561 51.065,30.1931 L51.065,27.1211 C51.065,27.0371 51.086,26.9531 51.107,26.8691 C51.149,26.7841 51.191,26.7211 51.233,26.6581 C51.296,26.5941 51.36,26.5521 51.444,26.5321 C51.528,26.4901 51.612,26.4901 51.696,26.4901 L53.569,26.4901 Z" id="Fill-16" fill="#FEFEFE" mask="url(#mask-4)"></path>
                <path d="M56.0306,27.4363 C56.0096,27.4573 56.0096,27.4783 56.0096,27.4993 L56.0096,29.2673 C56.0096,29.2883 56.0096,29.3093 56.0306,29.3303 C56.0516,29.3513 56.0726,29.3513 56.0926,29.3513 L57.8406,29.3513 C57.8606,29.3513 57.9026,29.3513 57.9026,29.3723 C57.9246,29.3933 57.9246,29.4153 57.9246,29.4353 L57.9246,30.1513 C57.9246,30.1713 57.9246,30.2133 57.9026,30.2133 C57.8826,30.2353 57.8606,30.2353 57.8406,30.2353 L56.7036,30.2353 L55.7776,30.2353 L55.6736,30.2353 C55.5886,30.2353 55.5046,30.2133 55.4206,30.1933 C55.3366,30.1513 55.2726,30.1093 55.2106,30.0663 C55.1466,30.0033 55.1046,29.9403 55.0836,29.8563 C55.0416,29.7723 55.0416,29.6883 55.0416,29.6033 L55.0416,29.4993 L55.0416,29.0983 L55.0416,27.8363 L55.0416,27.4783 L55.0416,27.0573 C55.0416,26.9733 55.0626,26.8893 55.0836,26.8053 C55.1256,26.7213 55.1676,26.6583 55.2106,26.5943 C55.2726,26.5323 55.3366,26.4903 55.4206,26.4683 C55.5046,26.4263 55.5886,26.4263 55.6736,26.4263 L55.7776,26.4263 L57.8406,26.4263 C57.8606,26.4263 57.9026,26.4263 57.9026,26.4483 C57.9246,26.4683 57.9246,26.4903 57.9246,26.5103 L57.9246,27.2263 C57.9246,27.2473 57.9246,27.2893 57.9026,27.2893 C57.8826,27.3103 57.8606,27.3103 57.8406,27.3103 L56.0926,27.3103 C56.0726,27.4153 56.0516,27.4363 56.0306,27.4363" id="Fill-17" fill="#FEFEFE" mask="url(#mask-4)"></path>
                <path d="M60.9749,28.0886 C60.9539,28.1096 60.9539,28.1096 60.9749,28.1306 L62.2379,30.2136 C62.2579,30.2346 62.2579,30.2556 62.2379,30.2766 C62.2159,30.2976 62.2159,30.2976 62.1739,30.2976 L61.2699,30.2976 C61.2479,30.2976 61.2059,30.2976 61.1849,30.2766 C61.1639,30.2556 61.1429,30.2346 61.1219,30.2136 L60.3019,28.7406 C60.2809,28.7206 60.2809,28.7206 60.2809,28.7406 L59.8389,29.2256 C59.8179,29.2456 59.7959,29.2676 59.7959,29.3096 C59.7759,29.3516 59.7759,29.3716 59.7759,29.4146 L59.7759,30.2136 C59.7759,30.2766 59.7339,30.3186 59.6699,30.3186 L58.9339,30.3186 C58.8709,30.3186 58.8289,30.2766 58.8289,30.2136 L58.8289,26.6156 C58.8289,26.5526 58.8709,26.5106 58.9339,26.5106 L59.6919,26.5106 C59.7539,26.5106 59.7959,26.5526 59.7959,26.6156 L59.7959,28.2356 L61.2059,26.5946 C61.2279,26.5736 61.2479,26.5526 61.2899,26.5316 C61.3319,26.5106 61.3539,26.5106 61.3739,26.5106 L62.2799,26.5106 C62.2999,26.5106 62.3219,26.5106 62.3219,26.5316 C62.3219,26.5526 62.3219,26.5736 62.2999,26.5946 L60.9749,28.0886 Z" id="Fill-18" fill="#FEFEFE" mask="url(#mask-4)"></path>
                <path d="M63.8997,30.1931 C63.8997,30.2551 63.8577,30.2971 63.7947,30.2971 L63.0367,30.2971 C62.9737,30.2971 62.9317,30.2551 62.9317,30.1931 L62.9317,26.5941 C62.9317,26.5321 62.9737,26.4901 63.0367,26.4901 L63.7947,26.4901 C63.8577,26.4901 63.8997,26.5321 63.8997,26.5941 L63.8997,30.1931 Z" id="Fill-19" fill="#FEFEFE" mask="url(#mask-4)"></path>
                <path d="M67.5608,26.5525 C67.6448,26.5945 67.7068,26.6375 67.7708,26.6795 C67.8338,26.7415 67.8758,26.8055 67.8968,26.8895 C67.9388,26.9735 67.9388,27.0575 67.9388,27.1425 L67.9388,30.2135 C67.9388,30.2355 67.9388,30.2775 67.9178,30.2775 C67.8968,30.2975 67.8758,30.2975 67.8548,30.2975 L67.0978,30.2975 C67.0768,30.2975 67.0558,30.2975 67.0348,30.2775 C67.0128,30.2555 67.0128,30.2355 67.0128,30.2135 L67.0128,27.5415 C67.0128,27.5205 67.0128,27.4995 66.9928,27.4785 C66.9708,27.4575 66.9508,27.4575 66.9288,27.4575 L65.8558,27.4575 C65.8348,27.4575 65.7928,27.4575 65.7928,27.4785 C65.7928,27.4995 65.7718,27.5205 65.7718,27.5415 L65.7718,30.2135 C65.7718,30.2775 65.7298,30.3195 65.6668,30.3195 L64.9098,30.3195 C64.8458,30.3195 64.8038,30.2775 64.8038,30.2135 L64.8038,26.6155 C64.8038,26.5525 64.8458,26.5105 64.9098,26.5105 L67.3718,26.5105 C67.4138,26.4905 67.4978,26.5105 67.5608,26.5525" id="Fill-20" fill="#FEFEFE" mask="url(#mask-4)"></path>
                <path d="M71.9583,28.2576 C71.9793,28.2786 71.9793,28.2996 71.9793,28.3196 L71.9793,29.6666 C71.9793,29.7506 71.9583,29.8346 71.9373,29.9196 C71.8953,30.0036 71.8533,30.0666 71.8113,30.1296 C71.7473,30.1936 71.6853,30.2356 71.6003,30.2556 C71.5163,30.2976 71.4323,30.2976 71.3483,30.2976 L69.4333,30.2976 C69.3493,30.2976 69.2653,30.2776 69.1813,30.2556 C69.0963,30.2136 69.0333,30.1716 68.9703,30.1296 C68.9073,30.0666 68.8643,30.0036 68.8443,29.9196 C68.8023,29.8346 68.8023,29.7506 68.8023,29.6666 L68.8023,27.1426 C68.8023,27.0576 68.8223,26.9736 68.8443,26.8896 C68.8643,26.8056 68.9283,26.7416 68.9703,26.6796 C69.0333,26.6156 69.0963,26.5736 69.1813,26.5526 C69.2653,26.5106 69.3493,26.5106 69.4333,26.5106 L71.6853,26.5106 C71.7053,26.5106 71.7473,26.5106 71.7473,26.5316 C71.7693,26.5526 71.7693,26.5736 71.7693,26.5946 L71.7693,27.3106 C71.7693,27.3316 71.7693,27.3736 71.7473,27.3736 C71.7273,27.3946 71.7053,27.3946 71.6853,27.3946 L69.8753,27.3946 C69.8543,27.3946 69.8123,27.3946 69.8123,27.4156 C69.7903,27.4366 69.7903,27.4576 69.7903,27.4786 L69.7903,29.2456 C69.7903,29.2676 69.7903,29.2876 69.8123,29.3096 C69.8333,29.3296 69.8543,29.3296 69.8753,29.3296 L70.9473,29.3296 C70.9693,29.3296 70.9903,29.3296 71.0113,29.3096 C71.0323,29.2876 71.0323,29.2676 71.0323,29.2456 L71.0323,28.2996 C71.0323,28.2786 71.0323,28.2366 71.0533,28.2366 C71.0743,28.2146 71.0953,28.2146 71.1163,28.2146 L71.8733,28.2146 C71.9163,28.2146 71.9373,28.2366 71.9583,28.2576" id="Fill-21" fill="#FEFEFE" mask="url(#mask-4)"></path>
                <path d="M22.9339,0.3152 C23.4179,0.5262 23.8389,0.8212 24.1969,1.1782 C24.5539,1.5362 24.8279,1.9572 25.0589,2.4402 C25.2699,2.9242 25.3739,3.4512 25.3739,3.9982 L25.3739,23.9442 C25.3739,24.1332 25.3119,24.2812 25.1849,24.4072 C25.0589,24.5332 24.9119,24.5962 24.7219,24.5962 L19.9469,24.5962 C19.7569,24.5962 19.6099,24.5332 19.5039,24.4072 C19.3989,24.2812 19.3359,24.1332 19.3359,23.9442 L19.3359,5.8072 L15.4859,5.8072 L15.4859,23.9442 C15.4859,24.1332 15.4219,24.2812 15.3179,24.4072 C15.2119,24.5332 15.0439,24.5962 14.8749,24.5962 L10.5409,24.5962 C10.3519,24.5962 10.2049,24.5332 10.0789,24.4072 C9.9529,24.2812 9.8889,24.1332 9.8889,23.9442 L9.8889,5.8072 L6.0379,5.8072 L6.0379,23.9442 C6.0379,24.3852 5.8289,24.5962 5.3859,24.5962 L0.6529,24.5962 C0.2099,24.5962 -0.0001,24.3852 -0.0001,23.9442 L-0.0001,0.6522 C-0.0001,0.2112 0.2099,0.0002 0.6529,0.0002 L21.3559,0.0002 C21.9239,0.0002 22.4289,0.1052 22.9339,0.3152" id="Fill-22" fill="#FEFEFE" mask="url(#mask-4)"></path>
                <path d="M46.1839,18.6208 C46.3729,18.6208 46.5409,18.6828 46.6469,18.8098 C46.7729,18.9358 46.8359,19.1038 46.8359,19.2938 L46.8359,23.9438 C46.8359,24.1338 46.7729,24.2808 46.6469,24.4278 C46.5199,24.5548 46.3729,24.6168 46.1839,24.6168 L29.8349,24.6168 C29.3719,24.6168 29.1409,24.3858 29.1409,23.9438 L29.1409,0.6738 C29.1409,0.2308 29.3719,-0.0002 29.8349,-0.0002 L34.8429,-0.0002 C35.3059,-0.0002 35.5379,0.2308 35.5379,0.6738 L35.5379,18.0108 C35.5379,18.1998 35.5999,18.3478 35.7469,18.4738 C35.8729,18.5998 36.0419,18.6418 36.2319,18.6418 L46.1839,18.6418 L46.1839,18.6208 Z" id="Fill-23" fill="#FEFEFE" mask="url(#mask-4)"></path>
                <path d="M71.306,-0.0003 C71.495,-0.0003 71.663,0.0627 71.789,0.1887 C71.916,0.3147 72,0.4837 72,0.6737 L72,24.0067 C72,24.1957 71.937,24.3437 71.789,24.4907 C71.663,24.6167 71.495,24.6807 71.306,24.6807 L66.214,24.6807 C66.025,24.6807 65.856,24.6167 65.73,24.4907 C65.604,24.3647 65.52,24.1957 65.52,24.0067 L65.52,15.8637 C65.52,15.6747 65.456,15.5277 65.33,15.4007 C65.204,15.2747 65.057,15.2327 64.846,15.2327 L57.713,15.2327 C57.525,15.2327 57.356,15.2967 57.23,15.4007 C57.104,15.5277 57.019,15.6747 57.019,15.8637 L57.019,24.0067 C57.019,24.4487 56.787,24.6807 56.325,24.6807 L51.276,24.6807 C50.813,24.6807 50.581,24.4487 50.581,24.0067 L50.581,0.6737 C50.581,0.2307 50.813,-0.0003 51.276,-0.0003 L56.325,-0.0003 C56.787,-0.0003 57.019,0.2307 57.019,0.6737 L57.019,8.5627 C57.019,9.0057 57.25,9.2367 57.713,9.2367 L64.846,9.2367 C65.035,9.2367 65.204,9.1737 65.33,9.0477 C65.456,8.9207 65.52,8.7527 65.52,8.5627 L65.52,0.6737 C65.52,0.4837 65.582,0.3367 65.73,0.1887 C65.856,0.0627 66.025,-0.0003 66.214,-0.0003 L71.306,-0.0003 Z" id="Fill-24" fill="#FEFEFE" mask="url(#mask-4)"></path>
            </g>
        </g>
    </g>
</svg>