<?xml version="1.0" encoding="UTF-8"?>
<svg width="155px" height="50px" viewBox="0 0 155 50" version="1.1" xmlns="http://www.w3.org/2000/svg" xmlns:xlink="http://www.w3.org/1999/xlink">
    <!-- Generator: Sketch 52.4 (67378) - http://www.bohemiancoding.com/sketch -->
    <title>Viasat</title>
    <desc>Created with Sketch.</desc>
    <defs>
        <polygon id="path-1" points="0.405884569 0.524 42.047 0.524 42.047 34.0920659 0.405884569 34.0920659"></polygon>
        <polygon id="path-3" points="0 0.71447777 22.1453608 0.71447777 22.1453608 27.6824667 0 27.6824667"></polygon>
        <polygon id="path-5" points="0.172169178 0.242634792 17.4922872 0.242634792 17.4922872 22 0.172169178 22"></polygon>
    </defs>
    <g id="Live-Site" stroke="none" stroke-width="1" fill="none" fill-rule="evenodd">
        <g id="sponsors-live" transform="translate(-688.000000, -658.000000)">
            <g id="Viasat" transform="translate(688.000000, 657.000000)">
                <g id="Group-3" transform="translate(112.000000, 0.475900)">
                    <mask id="mask-2" fill="white">
                        <use xlink:href="#path-1"></use>
                    </mask>
                    <g id="Clip-2"></g>
                    <path d="M42.0474,29.2844 C41.8594,29.8824 41.7374,30.5134 41.4694,31.0714 C40.4864,33.1144 38.4614,34.2134 36.1174,34.0374 C34.0474,33.8834 32.1534,32.3624 31.5264,30.2784 C30.8364,27.9794 30.1944,25.6654 29.5324,23.3574 C28.4744,19.6714 27.4174,15.9844 26.3594,12.2984 C26.3334,12.2074 26.2994,12.1184 26.2354,11.9304 C26.1414,12.2434 26.0704,12.4634 26.0074,12.6844 C24.2504,18.8154 22.4914,24.9454 20.7384,31.0774 C20.3054,32.5954 19.3614,33.6034 17.8154,33.9714 C15.8134,34.4464 13.8274,33.3084 13.2244,31.3314 C12.6714,29.5234 12.1744,27.6994 11.6514,25.8834 C11.3254,24.7444 10.9984,23.6064 10.6714,22.4694 C10.6514,22.3964 10.6224,22.3264 10.5644,22.1584 C10.4974,22.3514 10.4534,22.4614 10.4214,22.5744 C9.5304,25.6864 8.6434,28.7994 7.7514,31.9104 C7.4394,33.0014 6.7484,33.7214 5.6404,34.0044 C4.2094,34.3684 2.6934,33.5694 2.2604,32.1544 C1.6374,30.1204 1.0494,28.0744 0.5004,26.0194 C0.0994,24.5134 1.0134,23.0104 2.5034,22.5874 C3.9844,22.1674 5.5254,22.9904 6.0034,24.4744 C6.2334,25.1874 6.4244,25.9134 6.6334,26.6334 C6.6624,26.7314 6.6974,26.8284 6.7624,27.0194 C6.8894,26.5854 6.9904,26.2464 7.0884,25.9064 C7.9394,22.9524 8.7904,19.9994 9.6384,17.0444 C10.0684,15.5404 11.0154,14.5474 12.5414,14.1664 C14.5624,13.6624 16.5904,14.8594 17.1884,16.9054 C17.8514,19.1804 18.4874,21.4614 19.1364,23.7384 C19.1654,23.8424 19.1984,23.9424 19.2614,24.1444 C19.3304,23.9544 19.3734,23.8524 19.4034,23.7484 C21.2244,17.4094 23.0514,11.0734 24.8594,4.7304 C25.4794,2.5524 26.8334,1.1584 29.0534,0.6334 C29.2104,0.5964 29.3684,0.5604 29.5264,0.5234 L30.7654,0.5234 C30.8584,0.5494 30.9504,0.5794 31.0444,0.5984 C33.1874,1.0474 34.6704,2.2804 35.2854,4.3884 C37.0864,10.5514 38.8414,16.7274 40.6084,22.9014 C41.0984,24.6124 41.5684,26.3304 42.0474,28.0454 L42.0474,29.2844 Z" id="Fill-1" fill="#FEFEFE" mask="url(#mask-2)"></path>
                </g>
                <g id="Group-6" transform="translate(0.000000, 22.475900)">
                    <mask id="mask-4" fill="white">
                        <use xlink:href="#path-3"></use>
                    </mask>
                    <g id="Clip-5"></g>
                    <path d="M11.062,21.1154 C11.3,20.2334 11.516,19.4414 11.728,18.6474 C13.164,13.2784 14.599,7.9094 16.035,2.5394 C16.048,2.4874 16.066,2.4354 16.078,2.3834 C16.312,1.3724 16.958,0.8114 17.982,0.7774 C18.976,0.7454 19.979,0.7394 20.968,0.8314 C21.948,0.9224 22.313,1.4614 22.075,2.4184 C21.715,3.8604 21.294,5.2874 20.885,6.7174 C19.107,12.9274 17.325,19.1364 15.541,25.3444 C15.131,26.7734 14.357,27.4224 12.877,27.5774 C11.544,27.7174 10.213,27.7364 8.885,27.5174 C7.658,27.3164 6.922,26.5964 6.585,25.4114 C5.616,21.9964 4.632,18.5854 3.653,15.1734 C2.489,11.1134 1.321,7.0554 0.164,2.9944 C0.073,2.6744 0.016,2.3364 0.002,2.0034 C-0.025,1.3734 0.21,1.0404 0.826,0.8964 C1.298,0.7864 1.791,0.7194 2.275,0.7154 C2.967,0.7074 3.663,0.7524 4.354,0.8134 C5.207,0.8894 5.745,1.3744 5.973,2.1944 C6.233,3.1254 6.483,4.0584 6.733,4.9914 C8.14,10.2454 9.545,15.4994 10.952,20.7534 C10.976,20.8444 11.007,20.9344 11.062,21.1154" id="Fill-4" fill="#FEFEFE" mask="url(#mask-4)"></path>
                </g>
                <g id="Group-9" transform="translate(72.000000, 28.475900)">
                    <mask id="mask-6" fill="white">
                        <use xlink:href="#path-5"></use>
                    </mask>
                    <g id="Clip-8"></g>
                    <path d="M11.9917,15.2151 C11.9917,14.6181 11.9807,14.0211 11.9967,13.4241 C12.0037,13.1721 11.8987,13.0691 11.6667,13.0441 C11.3327,13.0081 11.0007,12.9491 10.6657,12.9311 C9.6137,12.8721 8.5597,12.8111 7.5297,13.1041 C6.8847,13.2861 6.3427,13.6311 6.1157,14.2901 C5.7007,15.4971 5.8607,17.0531 7.7187,17.5041 C9.0557,17.8291 10.3847,17.7601 11.7017,17.3661 C11.9297,17.2981 12.0027,17.1721 11.9967,16.9411 C11.9817,16.3651 11.9917,15.7901 11.9917,15.2151 M17.4817,13.6451 C17.4817,15.2101 17.4837,16.7751 17.4787,18.3391 C17.4777,18.5991 17.4607,18.8611 17.4197,19.1181 C17.3217,19.7421 16.9577,20.1811 16.4197,20.4881 C15.5597,20.9791 14.6217,21.2521 13.6697,21.4731 C10.8117,22.1341 7.9427,22.2081 5.0887,21.4971 C4.3297,21.3081 3.5867,20.9801 2.8987,20.6021 C1.5757,19.8741 0.7587,18.7191 0.4017,17.2531 C0.0827,15.9431 0.1007,14.6231 0.4277,13.3171 C0.9797,11.0981 2.4977,9.8501 4.6177,9.2351 C6.1797,8.7811 7.7847,8.7191 9.3957,8.7661 C10.1877,8.7881 10.9777,8.8481 11.7697,8.8741 C11.8417,8.8771 11.9817,8.7551 11.9807,8.6941 C11.9697,8.0861 11.9897,7.4721 11.8957,6.8751 C11.7337,5.8511 11.0907,5.2181 10.0937,4.9531 C9.1497,4.7021 8.1937,4.7421 7.2507,4.9171 C6.0457,5.1411 4.8507,5.4211 3.6517,5.6771 C3.4817,5.7131 3.3127,5.7591 3.1417,5.7801 C2.7227,5.8311 2.4197,5.6901 2.2857,5.2931 C1.9557,4.3151 1.6927,3.3151 1.6957,2.2721 C1.6967,1.7581 1.9587,1.4361 2.5317,1.2881 C3.5517,1.0271 4.5697,0.7231 5.6077,0.5881 C7.0797,0.3981 8.5667,0.2981 10.0507,0.2471 C11.2647,0.2051 12.4487,0.4601 13.5597,0.9821 C15.6737,1.9731 16.8127,3.7091 17.2167,5.9401 C17.3967,6.9381 17.4447,7.9671 17.4707,8.9841 C17.5117,10.5361 17.4817,12.0911 17.4817,13.6451" id="Fill-7" fill="#FEFEFE" mask="url(#mask-6)"></path>
                </g>
                <path d="M45.7817,43.6509 C45.7817,43.0639 45.7687,42.4769 45.7877,41.8899 C45.7957,41.6329 45.6867,41.5399 45.4557,41.5169 C45.1417,41.4859 44.8317,41.4289 44.5177,41.4109 C43.4547,41.3479 42.3887,41.2849 41.3447,41.5759 C40.7347,41.7459 40.2337,42.0669 39.9557,42.6649 C39.2857,44.1029 39.9547,45.5789 41.4827,45.9699 C42.8297,46.3139 44.1737,46.2389 45.5037,45.8449 C45.7157,45.7819 45.7917,45.6659 45.7867,45.4439 C45.7727,44.8459 45.7817,44.2489 45.7817,43.6509 M45.7777,37.3199 C45.7617,36.5519 45.8647,35.7719 45.6177,35.0079 C45.2977,34.0149 44.5557,33.5399 43.5817,33.3579 C42.4597,33.1489 41.3507,33.3049 40.2527,33.5239 C39.2947,33.7149 38.3467,33.9539 37.3937,34.1699 C37.2467,34.2039 37.0977,34.2419 36.9477,34.2569 C36.5117,34.3039 36.1837,34.1579 36.0797,33.7409 C35.8447,32.8059 35.6317,31.8629 35.4957,30.9099 C35.4097,30.3109 35.7187,29.9519 36.3027,29.7699 C37.8747,29.2839 39.4817,28.9679 41.1217,28.8389 C42.0517,28.7669 42.9867,28.7039 43.9187,28.7179 C45.7937,28.7479 47.5227,29.2329 48.9637,30.5129 C50.1117,31.5339 50.7267,32.8529 51.0007,34.3219 C51.1747,35.2549 51.2557,36.2179 51.2637,37.1689 C51.2957,40.4189 51.2637,43.6689 51.2827,46.9189 C51.2897,47.9879 50.8507,48.7189 49.8757,49.1559 C48.6847,49.6879 47.4377,50.0149 46.1577,50.2139 C43.8077,50.5809 41.4557,50.5949 39.1357,50.0349 C38.3327,49.8399 37.5377,49.5259 36.8067,49.1379 C35.2797,48.3289 34.4167,46.9979 34.1127,45.3059 C33.9087,44.1709 33.9397,43.0329 34.2007,41.9089 C34.6857,39.8139 36.0327,38.5129 38.0297,37.8359 C39.3927,37.3729 40.8057,37.2259 42.2357,37.2359 C43.3957,37.2439 44.5557,37.2899 45.7777,37.3199" id="Fill-10" fill="#FEFEFE"></path>
                <path d="M62.7388,50.4663 C59.8358,50.4293 57.6308,49.9823 55.4768,49.2583 C54.7578,49.0173 54.5648,48.7483 54.6428,47.9933 C54.7258,47.1963 54.8408,46.3993 55.0118,45.6163 C55.1988,44.7683 55.5668,44.5943 56.4108,44.7733 C57.9278,45.0933 59.4438,45.4323 60.9738,45.6753 C61.5788,45.7723 62.2328,45.6993 62.8418,45.5853 C63.5238,45.4563 63.9668,44.9793 64.0878,44.2773 C64.2118,43.5553 64.0248,42.8953 63.3928,42.5033 C62.7908,42.1303 62.1298,41.8393 61.4668,41.5823 C60.3548,41.1523 59.1818,40.8623 58.1068,40.3613 C56.3208,39.5283 55.1878,38.1253 54.8238,36.1383 C54.2298,32.8983 55.9558,30.0613 59.1318,29.1023 C60.4078,28.7163 61.7108,28.6753 63.0338,28.7403 C64.7518,28.8263 66.4088,29.1773 68.0328,29.7233 C68.7808,29.9743 69.0498,30.2513 68.9528,31.0303 C68.8428,31.9193 68.6398,32.8013 68.4168,33.6703 C68.2838,34.1903 67.9428,34.3533 67.4078,34.2363 C66.4748,34.0303 65.5518,33.7783 64.6178,33.5883 C63.7018,33.4033 62.7728,33.2753 61.8408,33.4853 C61.6518,33.5283 61.4648,33.5973 61.2928,33.6853 C60.2798,34.2063 60.1858,35.4613 61.1328,36.0973 C61.4968,36.3423 61.9208,36.5063 62.3318,36.6703 C63.6518,37.1983 64.9968,37.6693 66.2948,38.2453 C66.9398,38.5313 67.5468,38.9483 68.0958,39.3973 C69.0838,40.2033 69.6648,41.2683 69.8188,42.5483 C69.9688,43.7923 69.9088,45.0173 69.5128,46.2153 C68.9348,47.9663 67.6788,49.0433 66.0258,49.7253 C64.7738,50.2403 63.4718,50.4893 62.7388,50.4663" id="Fill-12" fill="#FEFEFE"></path>
                <path d="M102.1499,34.0747 C102.1499,37.0527 102.1479,40.0297 102.1529,43.0077 C102.1539,43.2997 102.1799,43.5937 102.2249,43.8827 C102.3469,44.6727 102.8799,45.2057 103.6809,45.1957 C104.5449,45.1847 105.4059,45.0577 106.2669,44.9767 C106.5379,44.9517 106.8039,44.8907 107.0749,44.8807 C107.5659,44.8607 107.8179,45.0157 107.9379,45.4957 C108.1039,46.1567 108.2139,46.8327 108.3389,47.5047 C108.3769,47.7067 108.3949,47.9147 108.3999,48.1197 C108.4179,48.8457 108.1529,49.2297 107.4479,49.3917 C106.5069,49.6087 105.5649,49.8467 104.6089,49.9567 C103.5359,50.0807 102.4449,50.1407 101.3659,50.1067 C98.6109,50.0197 96.6339,48.2507 96.2069,45.5307 C96.0859,44.7627 96.0229,43.9757 96.0169,43.1977 C95.9959,40.2857 96.0079,37.3737 96.0079,34.4607 C96.0079,34.0287 96.0069,34.0287 95.5829,34.0267 C94.6809,34.0227 93.7789,34.0267 92.8779,34.0097 C92.1579,33.9947 91.8109,33.7157 91.6829,33.0107 C91.4979,31.9877 91.4979,30.9557 91.6899,29.9327 C91.8149,29.2637 92.1599,28.9817 92.8429,28.9687 C93.7779,28.9477 94.7129,28.9437 95.6469,28.9547 C95.9369,28.9587 96.0139,28.8637 96.0139,28.5817 C96.0139,27.2777 96.0159,25.9737 96.0579,24.6717 C96.0849,23.8387 96.4449,23.4437 97.2739,23.3087 C98.4819,23.1127 99.6989,23.1127 100.9059,23.3117 C101.6799,23.4387 101.9859,23.7847 102.1019,24.5577 C102.1309,24.7507 102.1419,24.9467 102.1419,25.1417 C102.1449,28.1197 102.1439,31.0967 102.1439,34.0747 L102.1499,34.0747 Z" id="Fill-14" fill="#FEFEFE"></path>
                <path d="M24.3911,39.522 L24.3911,30.916 C24.3921,29.571 24.7091,29.169 26.0341,29.02 C27.1461,28.894 28.2691,28.873 29.3751,29.098 C30.1111,29.248 30.4231,29.629 30.4791,30.384 C30.5061,30.752 30.5251,31.122 30.5251,31.491 C30.5281,36.967 30.5281,42.445 30.5251,47.921 C30.5251,48.236 30.5041,48.551 30.4661,48.864 C30.4011,49.409 30.1201,49.796 29.5731,49.945 C29.3231,50.012 29.0641,50.095 28.8091,50.096 C27.8021,50.099 26.7911,50.117 25.7881,50.042 C24.8681,49.971 24.5181,49.564 24.4091,48.65 C24.3911,48.5 24.3921,48.346 24.3921,48.194 C24.3911,45.303 24.3911,42.413 24.3911,39.522" id="Fill-16" fill="#FEFEFE"></path>
                <path d="M109.3462,31.5025 C109.3172,31.8265 109.3012,32.1525 109.2552,32.4745 C109.1302,33.3565 108.6242,33.9125 107.7652,34.1255 C106.9722,34.3215 106.1712,34.3235 105.3752,34.1345 C104.5302,33.9335 103.9642,33.4135 103.8702,32.5415 C103.7952,31.8475 103.7932,31.1315 103.8692,30.4375 C103.9662,29.5535 104.5372,29.0315 105.4022,28.8345 C106.1112,28.6725 106.8252,28.6575 107.5362,28.7965 C108.6892,29.0225 109.2412,29.6865 109.3132,30.9135 C109.3252,31.1085 109.3152,31.3055 109.3152,31.5005 C109.3252,31.5015 109.3352,31.5025 109.3462,31.5025" id="Fill-18" fill="#FEFEFE"></path>
                <path d="M113.6265,48.8267 C113.7975,48.3857 113.9555,48.0287 114.0745,47.6597 C114.1745,47.3497 114.4115,47.3727 114.6225,47.4267 C114.7045,47.4477 114.7845,47.6487 114.7875,47.7697 C114.8055,48.3547 114.7935,48.9407 114.7975,49.5267 C114.7985,49.7077 114.7835,49.8477 114.5435,49.8437 C114.3145,49.8407 114.3145,49.7007 114.3155,49.5387 C114.3185,49.1187 114.3165,48.6997 114.2755,48.2667 C114.1625,48.5667 114.0505,48.8667 113.9365,49.1657 C113.8785,49.3157 113.8295,49.5197 113.6185,49.4497 C113.4945,49.4077 113.3695,49.2727 113.3115,49.1497 C113.1745,48.8617 113.0785,48.5557 112.9245,48.2707 C112.9245,48.7007 112.9225,49.1307 112.9255,49.5587 C112.9265,49.7147 112.9075,49.8367 112.7045,49.8417 C112.4995,49.8467 112.4415,49.7457 112.4425,49.5617 C112.4455,48.9547 112.4355,48.3467 112.4505,47.7397 C112.4535,47.6287 112.5405,47.4397 112.6155,47.4257 C112.8135,47.3877 113.0505,47.3297 113.1535,47.6267 C113.2855,48.0027 113.4445,48.3697 113.6265,48.8267" id="Fill-20" fill="#FEFEFE"></path>
                <path d="M111.1226,47.4068 C111.3826,47.4068 111.6426,47.4108 111.9026,47.4048 C112.0706,47.4008 112.1296,47.4758 112.1296,47.6398 C112.1296,47.7998 112.0776,47.8708 111.9086,47.8878 C111.3586,47.9428 111.3596,47.9488 111.3596,48.5198 C111.3596,48.8788 111.3536,49.2358 111.3596,49.5938 C111.3636,49.7768 111.2806,49.8418 111.1056,49.8438 C110.9246,49.8448 110.8556,49.7698 110.8586,49.5898 C110.8656,49.1778 110.8616,48.7658 110.8596,48.3538 C110.8576,47.8708 110.9106,47.8908 110.4126,47.8808 C110.3106,47.8788 110.1486,47.8238 110.1236,47.7538 C110.0616,47.5848 110.0696,47.3998 110.3426,47.4048 C110.6016,47.4098 110.8616,47.4058 111.1226,47.4068" id="Fill-22" fill="#FEFEFE"></path>
            </g>
        </g>
    </g>
</svg>