<svg xmlns="http://www.w3.org/2000/svg" viewBox="0 0 3227.29 92.75"><defs><style>.cls-1,.cls-3{fill:none;stroke:#fff;stroke-miterlimit:10;stroke-width:2.5px;}.cls-2{font-size:75px;font-family:BrandonGrotesque-Regular, Brandon Grotesque;}.cls-2,.cls-4{fill:#fff;}.cls-3{stroke-linecap:round;}.cls-5{letter-spacing:-0.01em;}</style></defs><title>Asset 1</title><g id="Layer_2" data-name="Layer 2"><g id="Design"><circle class="cls-1" cx="803.12" cy="47.67" r="36" transform="translate(42.89 310.97) rotate(-22.5)"/><path class="cls-1" d="M824.16,60.42a.88.88,0,0,1-.88.88H783a.88.88,0,0,1-.88-.88V35.57l17,13.76a6.32,6.32,0,0,0,8,0l17-13.88Z"/><line class="cls-1" x1="780.89" y1="34.04" x2="825.35" y2="34.04"/><text class="cls-2" transform="translate(853.52 64.17)">team@slohacks.com</text><circle class="cls-1" cx="37.25" cy="47.67" r="36"/><path id="f" class="cls-1" d="M41,72V49.8h7.44l1.12-8.64H41V35.64c0-2.5.7-4.2,4.28-4.2h4.58V23.71a60,60,0,0,0-6.67-.34c-6.59,0-11.11,4-11.11,11.42v6.37H24.63V49.8h7.46V72Z"/><text class="cls-2" transform="translate(87.64 64.17)">slohacks</text><circle class="cls-1" cx="420.19" cy="47.67" r="36"/><path class="cls-1" d="M411.6,66.47c17.46,0,27-14.47,27-27,0-.42,0-.82,0-1.23a19.41,19.41,0,0,0,4.73-4.92,18.79,18.79,0,0,1-5.45,1.5A9.54,9.54,0,0,0,442,29.56a19.11,19.11,0,0,1-6,2.3,9.5,9.5,0,0,0-16.17,8.66,26.94,26.94,0,0,1-19.57-9.92,9.5,9.5,0,0,0,2.94,12.67,9.43,9.43,0,0,1-4.31-1.18v.12a9.5,9.5,0,0,0,7.62,9.3,9.42,9.42,0,0,1-4.29.16,9.52,9.52,0,0,0,8.87,6.6,19,19,0,0,1-14.05,3.93,26.92,26.92,0,0,0,14.55,4.26"/><text class="cls-2" transform="translate(470.58 64.17)">slohacks</text><circle class="cls-1" cx="1553.83" cy="47.67" r="36"/><circle class="cls-3" cx="1553.83" cy="47.67" r="9.72"/><circle class="cls-3" cx="1566.4" cy="35.94" r="1.49"/><rect class="cls-3" x="1532.8" y="26.64" width="42.06" height="42.06" rx="9.25"/><text class="cls-2" transform="translate(1604.23 64.17)">slo_hacks</text><path class="cls-4" d="M1965.66,82.76a36,36,0,1,1,36-36A36,36,0,0,1,1965.66,82.76Zm0-69.58a33.58,33.58,0,1,0,33.59,33.58A33.62,33.62,0,0,0,1965.66,13.18Z"/><path class="cls-4" d="M1965.66,26.4A20.36,20.36,0,1,0,1986,46.76,20.38,20.38,0,0,0,1965.66,26.4Zm1.15,19.21V38.3h7.75a29.18,29.18,0,0,1,1.17,7.31Zm16.87,2.3a18,18,0,0,1-2.07,7.31h-4.68a31,31,0,0,0,1.09-7.31Zm0-2.3H1978a31,31,0,0,0-1.09-7.31h4.68A18,18,0,0,1,1983.68,45.61ZM1966.81,36V28.82c2.74.57,5.25,3.18,6.93,7.19Zm9.38,0a19.76,19.76,0,0,0-3.31-5.8,18,18,0,0,1,7.28,5.8Zm-9.38,19.21V47.91h8.92a29.18,29.18,0,0,1-1.17,7.31Zm6.93,2.29c-1.68,4-4.19,6.62-6.93,7.19V57.51Zm-.86,5.8a19.76,19.76,0,0,0,3.31-5.8h4A18,18,0,0,1,1972.88,63.31Zm-8.36-25v7.31h-8.92a29.18,29.18,0,0,1,1.17-7.31ZM1951.17,36a17.9,17.9,0,0,1,7.28-5.8,19.76,19.76,0,0,0-3.31,5.8Zm13.35,11.9v7.31h-7.75a29.18,29.18,0,0,1-1.17-7.31Zm-16.87-2.3a18.12,18.12,0,0,1,2.06-7.31h4.69a31.53,31.53,0,0,0-1.1,7.31Zm5.65,2.3a31.53,31.53,0,0,0,1.1,7.31h-4.69a18.12,18.12,0,0,1-2.06-7.31Zm11.22,9.6V64.7c-2.74-.57-5.26-3.18-6.93-7.19Zm-9.38,0a19.76,19.76,0,0,0,3.31,5.8,17.9,17.9,0,0,1-7.28-5.8Zm2.45-21.5c1.67-4,4.19-6.62,6.93-7.19V36Z"/><text class="cls-2" transform="translate(2016.06 64.7)">slohacks.com</text><text class="cls-2" transform="translate(2529.87 63.75)">bit.l<tspan class="cls-5" x="110.55" y="0">y</tspan><tspan x="144.97" y="0">/join-slohacks2019</tspan></text></g></g></svg>